<svg width="119" height="103" viewBox="0 0 119 103" fill="none" xmlns="http://www.w3.org/2000/svg">
<path d="M116.295 45.2336C116.295 45.2336 105.322 59.8115 79.4125 48.9376C79.4125 48.9376 71.2506 63.2534 76.8382 75.7589C76.0078 75.616 75.0468 75.5207 73.8961 75.5207C66.707 75.5207 66.707 79.1056 59.5179 79.1056C52.3288 79.1056 52.3288 75.5207 45.1397 75.5207C42.2925 75.5207 40.5724 76.0805 39.1013 76.7594C41.7112 66.4453 50.407 41.9703 74.5249 38.2663C74.5249 38.2663 70.5981 16.9117 85.2492 7.88391C85.2492 7.88391 97.6818 20.3537 89.1285 37.1468C89.1285 37.1468 102.558 34.3003 116.295 45.2336Z" stroke="#8B5632" stroke-width="2" stroke-miterlimit="10"/>
<path d="M42.7437 22.2355H48.96" stroke="#724D48" stroke-width="2" stroke-miterlimit="10"/>
<path d="M29.203 32.3989C34.795 31.0732 38.2578 25.4475 36.9374 19.8335C35.617 14.2194 30.0133 10.743 24.4213 12.0686C18.8294 13.3942 15.3666 19.02 16.687 24.634C18.0074 30.2481 23.611 33.7245 29.203 32.3989Z" stroke="#8B5632" stroke-width="2" stroke-miterlimit="10"/>
<path d="M26.812 6.22892V0" stroke="#724D48" stroke-width="2" stroke-miterlimit="10"/>
<path d="M15.5417 10.9209L11.1523 6.51416" stroke="#724D48" stroke-width="2" stroke-miterlimit="10"/>
<path d="M10.8678 22.2357H4.66333" stroke="#724D48" stroke-width="2" stroke-miterlimit="10"/>
<path d="M15.5417 33.5508L11.1523 37.9575" stroke="#724D48" stroke-width="2" stroke-miterlimit="10"/>
<path d="M26.812 38.2312V44.472" stroke="#724D48" stroke-width="2" stroke-miterlimit="10"/>
<path d="M38.0815 33.5508L42.4709 37.9575" stroke="#724D48" stroke-width="2" stroke-miterlimit="10"/>
<path d="M38.0815 10.9209L42.4709 6.51416" stroke="#724D48" stroke-width="2" stroke-miterlimit="10"/>
<path d="M2.01685 79.1057C9.20595 79.1057 9.20595 75.5208 16.3951 75.5208C23.5842 75.5208 23.5842 79.1057 30.7733 79.1057C35.1152 79.1057 36.8354 77.7956 39.1012 76.7594C40.5723 76.0805 42.2924 75.5208 45.1396 75.5208C52.3287 75.5208 52.3287 79.1057 59.5178 79.1057C66.7069 79.1057 66.7069 75.5208 73.896 75.5208C75.0349 75.5208 75.9958 75.616 76.8381 75.759C81.2749 76.5688 82.2359 79.1057 88.2742 79.1057C95.4752 79.1057 95.4752 75.5208 102.652 75.5208C109.83 75.5208 109.842 79.1057 117.031 79.1057" stroke="#8B5632" stroke-width="2" stroke-miterlimit="10" stroke-linecap="round" stroke-linejoin="round"/>
<path d="M117.019 90.4551C109.83 90.4551 109.83 86.8702 102.641 86.8702C95.4518 86.8702 95.4518 90.4551 88.2627 90.4551C81.0736 90.4551 81.0736 86.8702 73.8844 86.8702C66.6953 86.8702 66.6953 90.4551 59.5062 90.4551C52.3171 90.4551 52.3171 86.8702 45.128 86.8702C37.9389 86.8702 37.9389 90.4551 30.7498 90.4551C23.5607 90.4551 23.5607 86.8702 16.3716 86.8702C9.18251 86.8702 9.18251 90.4551 1.99341 90.4551" stroke="#8B5632" stroke-width="2" stroke-miterlimit="10" stroke-linecap="round" stroke-linejoin="round"/>
<path d="M117.019 101.818C109.83 101.818 109.83 98.2328 102.641 98.2328C95.4518 98.2328 95.4518 101.818 88.2627 101.818C81.0736 101.818 81.0736 98.2328 73.8844 98.2328C66.6953 98.2328 66.6953 101.818 59.5062 101.818C52.3171 101.818 52.3171 98.2328 45.128 98.2328C37.9389 98.2328 37.9389 101.818 30.7498 101.818C23.5607 101.818 23.5607 98.2328 16.3716 98.2328C9.18251 98.2328 9.18251 101.818 1.99341 101.818" stroke="#8B5632" stroke-width="2" stroke-miterlimit="10" stroke-linecap="round" stroke-linejoin="round"/>
</svg>
