<svg width="23" height="25" viewBox="0 0 23 25" fill="none" xmlns="http://www.w3.org/2000/svg">
<path d="M22.9565 24.0601L0.956543 24.061L3.31353 5.20309L6.53417 5.20371C6.91851 2.54105 9.18846 0.488556 11.9566 0.488556C14.7248 0.488556 16.9923 2.54105 17.3766 5.20308L20.5994 5.2037L22.9565 24.0601ZM11.9565 2.0601C10.0573 2.0601 8.49008 3.41208 8.12392 5.20304L15.7901 5.20365C15.4231 3.41207 13.8548 2.06009 11.9565 2.06009V2.0601ZM4.55748 6.77431L2.52781 22.4886L21.385 22.4892L19.4207 6.77413L4.55685 6.77506L4.55748 6.77431ZM15.4919 10.7029C14.8414 10.7029 14.3136 10.1748 14.3136 9.5236C14.3136 8.87305 14.8414 8.34558 15.4919 8.34558C16.1428 8.34558 16.6706 8.87305 16.6706 9.5236C16.6706 10.1757 16.1428 10.7029 15.4919 10.7029ZM8.42044 10.7029C7.76927 10.7029 7.2421 10.1748 7.2421 9.5236C7.2421 8.87305 7.76926 8.34558 8.42044 8.34558C9.07191 8.34558 9.59909 8.87305 9.59909 9.5236C9.59909 10.1757 9.071 10.7029 8.42044 10.7029Z" fill="#3A383B"/>
</svg>
