<svg width="23" height="23" viewBox="0 0 23 23" fill="none" xmlns="http://www.w3.org/2000/svg">
<path d="M11.5 9.38264e-05C8.45004 9.38264e-05 5.52511 1.21168 3.36826 3.36834C1.21164 5.52514 0 8.45042 0 11.5C0 14.5497 1.21159 17.4749 3.36826 19.6318C5.52507 21.7884 8.45036 23 11.5 23C14.5496 23 17.4749 21.7884 19.6317 19.6318C21.7884 17.475 23 14.5497 23 11.5C23 9.4813 22.4686 7.49831 21.4593 5.75002C20.4499 4.00173 18.9982 2.5501 17.25 1.54072C15.5017 0.531349 13.5187 0 11.4999 0L11.5 9.38264e-05ZM17.4228 16.256C17.5783 16.4102 17.6657 16.6201 17.6657 16.8393C17.6657 17.0584 17.5783 17.2683 17.4228 17.4225C17.2686 17.578 17.0586 17.6655 16.8395 17.6655C16.6204 17.6655 16.4105 17.578 16.2563 17.4225L11.5004 12.6582L6.7445 17.4225C6.5903 17.578 6.38036 17.6655 6.16123 17.6655C5.94211 17.6655 5.73218 17.578 5.57797 17.4225C5.42248 17.2683 5.33502 17.0584 5.33502 16.8393C5.33502 16.6201 5.42248 16.4102 5.57797 16.256L10.3423 11.5001L5.57797 6.74428C5.36968 6.53581 5.28826 6.23218 5.36454 5.94759C5.44082 5.66284 5.66305 5.4406 5.94781 5.36433C6.23238 5.28805 6.536 5.36946 6.7445 5.57775L11.5004 10.3421L16.2563 5.57775C16.4647 5.36946 16.7684 5.28805 17.053 5.36433C17.3377 5.4406 17.5599 5.66283 17.6362 5.94759C17.7125 6.23216 17.6311 6.53578 17.4228 6.74428L12.6585 11.5001L17.4228 16.256Z" fill="#FFF9ED"/>
</svg>
