<svg width="78" height="78" viewBox="0 0 78 78" fill="none" xmlns="http://www.w3.org/2000/svg">
<circle cx="39" cy="39" r="39" fill="#E3D9C6"/>
<mask id="path-2-inside-1_1_517" fill="white">
<path d="M56.0682 31.4963C52.8265 27.6843 46.5739 26.7963 42.5733 29.7939C41.2549 30.782 39.7534 32.692 39.3406 34.2909C38.9278 32.692 37.4257 30.782 36.1073 29.7939C32.1073 26.7963 25.8547 27.6843 22.6124 31.4963C19.3708 35.3071 19.3596 41.4014 22.347 45.4169C24.6494 48.5107 28.2636 50.2638 31.5825 52.2159C34.9009 54.1685 38.2759 56.7005 39.3406 60.4124C40.4053 56.7005 43.7803 54.1685 47.0987 52.2159C50.4177 50.2638 54.0318 48.5107 56.3343 45.4169C59.3222 41.4014 59.3105 35.3071 56.0682 31.4963Z"/>
</mask>
<path d="M42.5733 29.7939L41.3739 28.1935L41.3741 28.1933L42.5733 29.7939ZM39.3406 34.2909L41.2771 34.7908H37.4041L39.3406 34.2909ZM36.1073 29.7939L37.3067 28.1934L37.3068 28.1935L36.1073 29.7939ZM22.6124 31.4963L24.1359 32.7921L24.1358 32.7922L22.6124 31.4963ZM22.347 45.4169L20.7425 46.611L20.7423 46.6107L22.347 45.4169ZM31.5825 52.2159L32.5965 50.4919L32.5968 50.4921L31.5825 52.2159ZM39.3406 60.4124L41.2631 60.9638L39.3406 67.6662L37.4181 60.9638L39.3406 60.4124ZM47.0987 52.2159L46.0844 50.4921L46.0848 50.4919L47.0987 52.2159ZM56.3343 45.4169L57.9388 46.6109L57.9387 46.611L56.3343 45.4169ZM54.5447 32.7919C51.9422 29.7317 46.8727 29.0716 43.7726 31.3944L41.3741 28.1933C46.2752 24.521 53.7109 25.637 57.5918 30.2006L54.5447 32.7919ZM43.7728 31.3943C43.294 31.7532 42.722 32.3305 42.2259 33.0019C41.7201 33.6864 41.3963 34.329 41.2771 34.7908L37.4041 33.791C37.6977 32.6538 38.331 31.5421 39.0089 30.6248C39.6963 29.6944 40.5343 28.8228 41.3739 28.1935L43.7728 31.3943ZM37.4041 34.7908C37.2849 34.3292 36.9611 33.6866 36.4552 33.0021C35.959 32.3307 35.3868 31.7532 34.9078 31.3943L37.3068 28.1935C38.1463 28.8227 38.9844 29.6943 39.672 30.6246C40.3499 31.5418 40.9835 32.6537 41.2771 33.791L37.4041 34.7908ZM34.9079 31.3943C31.8086 29.0717 26.739 29.7315 24.1359 32.7921L21.089 30.2005C24.9703 25.6371 32.406 24.5208 37.3067 28.1934L34.9079 31.3943ZM24.1358 32.7922C21.5388 35.8451 21.4816 40.9031 23.9516 44.2232L20.7423 46.6107C17.2375 41.8997 17.2027 34.7692 21.089 30.2004L24.1358 32.7922ZM23.9514 44.2229C25.9443 46.9007 29.0508 48.4065 32.5965 50.4919L30.5686 53.9398C27.4763 52.121 23.3545 50.1207 20.7425 46.611L23.9514 44.2229ZM32.5968 50.4921C35.9351 52.4565 39.9636 55.3305 41.2631 59.8609L37.4181 60.9638C36.5882 58.0705 33.8668 55.8805 30.5682 53.9396L32.5968 50.4921ZM37.4181 59.8609C38.7176 55.3305 42.7461 52.4565 46.0844 50.4921L48.113 53.9396C44.8145 55.8805 42.093 58.0705 41.2631 60.9638L37.4181 59.8609ZM46.0848 50.4919C49.6305 48.4065 52.7369 46.9007 54.7298 44.2229L57.9387 46.611C55.3267 50.1207 51.2049 52.121 48.1127 53.9398L46.0848 50.4919ZM54.7297 44.223C57.2 40.9032 57.1425 35.8454 54.545 32.7923L57.5915 30.2003C61.4785 34.7689 61.4445 41.8996 57.9388 46.6109L54.7297 44.223Z" fill="#8B5632" mask="url(#path-2-inside-1_1_517)"/>
<mask id="path-4-inside-2_1_517" fill="white">
<path d="M31.8852 62.5125C30.0896 61.3106 27.921 60.8427 25.8202 60.3472C23.7194 59.8523 21.5575 59.2697 19.8863 57.8979C19.5082 57.5875 18.9907 57.2225 18.5875 57.4986C18.4295 57.6066 18.3422 57.7905 18.2766 57.9705C17.6393 59.7331 18.5858 61.7566 20.0392 62.9343C21.4925 64.112 23.3514 64.6328 25.1537 65.1249C18.4609 65.8324 11.6885 62.8775 6.90384 58.1246C6.28049 57.5054 5.40734 56.8018 4.6322 57.2141C4.11414 57.4891 3.93995 58.1471 3.90635 58.7348C3.77529 60.999 4.96432 63.1885 6.62549 64.7244C8.28722 66.2603 10.3819 67.2339 12.4849 68.06C15.5989 69.2844 18.816 70.2439 22.0907 70.9244C24.6508 71.4564 27.2697 71.8254 29.6892 72.8191C32.1092 73.8129 34.368 75.5485 35.3039 78C35.7245 76.9556 36.2386 74.5193 36.3019 73.7044C36.8973 66.0523 34.2963 64.126 31.8852 62.5125Z"/>
</mask>
<path d="M25.8202 60.3472L26.2788 58.4005L26.2793 58.4006L25.8202 60.3472ZM19.8863 57.8979L18.6174 59.4439L18.617 59.4436L19.8863 57.8979ZM18.5875 57.4986L19.7175 59.1488L19.7162 59.1497L18.5875 57.4986ZM18.2766 57.9705L16.3958 57.2904L16.3973 57.2862L18.2766 57.9705ZM25.1537 65.1249L25.6805 63.1955L25.364 67.1138L25.1537 65.1249ZM6.90384 58.1246L8.31333 56.7057L8.31334 56.7057L6.90384 58.1246ZM4.6322 57.2141L5.57132 58.9799L5.56997 58.9806L4.6322 57.2141ZM3.90635 58.7348L5.90309 58.849L5.90301 58.8504L3.90635 58.7348ZM6.62549 64.7244L5.26796 66.1931L5.26772 66.1929L6.62549 64.7244ZM12.4849 68.06L13.2162 66.1985L13.2168 66.1987L12.4849 68.06ZM22.0907 70.9244L22.4976 68.9662L22.4976 68.9662L22.0907 70.9244ZM29.6892 72.8191L28.9295 74.6692L28.9293 74.6692L29.6892 72.8191ZM35.3039 78L37.1591 78.7472L35.2541 83.4773L33.4354 78.7133L35.3039 78ZM36.3019 73.7044L34.3079 73.5495L34.3079 73.5492L36.3019 73.7044ZM30.7727 64.1745C29.34 63.2156 27.5699 62.8148 25.3611 62.2938L26.2793 58.4006C28.2722 58.8707 30.8392 59.4057 32.9977 60.8504L30.7727 64.1745ZM25.3616 62.2939C23.2908 61.8061 20.6915 61.1462 18.6174 59.4439L21.1551 56.352C22.4236 57.3931 24.148 57.8985 26.2788 58.4005L25.3616 62.2939ZM18.617 59.4436C18.5436 59.3833 18.4922 59.3443 18.4545 59.3186C18.4137 59.2909 18.4212 59.301 18.4706 59.3218C18.5166 59.3411 18.6706 59.4004 18.9031 59.4009C19.1649 59.4014 19.459 59.3258 19.7175 59.1488L17.4574 55.8485C18.4539 55.1661 19.484 55.4085 20.022 55.6349C20.538 55.852 20.9537 56.1865 21.1555 56.3523L18.617 59.4436ZM19.7162 59.1497C19.9354 58.9998 20.0546 58.8317 20.1069 58.7456C20.1558 58.6651 20.1699 58.6164 20.1559 58.6548L16.3973 57.2862C16.4769 57.0676 16.7387 56.3398 17.4587 55.8476L19.7162 59.1497ZM20.1574 58.6506C19.9116 59.3305 20.2395 60.5225 21.2983 61.3804L18.78 64.4882C16.9321 62.9908 15.367 60.1356 16.3958 57.2904L20.1574 58.6506ZM21.2983 61.3804C22.372 62.2504 23.8094 62.6846 25.6805 63.1955L24.6269 67.0542C22.8935 66.5809 20.6131 65.9735 18.78 64.4882L21.2983 61.3804ZM25.364 67.1138C17.9598 67.8965 10.6178 64.633 5.49435 59.5435L8.31334 56.7057C12.7592 61.122 18.962 63.7682 24.9435 63.1359L25.364 67.1138ZM5.49436 59.5435C5.36718 59.4172 5.24875 59.3082 5.1388 59.2195C5.02597 59.1284 4.95011 59.0816 4.91169 59.0619C4.87082 59.0409 4.92253 59.0763 5.05108 59.0876C5.11951 59.0937 5.2058 59.0923 5.30285 59.0738C5.40109 59.055 5.49237 59.0219 5.57132 58.9799L3.69309 55.4483C4.888 54.8128 6.04002 55.1449 6.7382 55.5032C7.41641 55.8513 7.96922 56.3639 8.31333 56.7057L5.49436 59.5435ZM5.56997 58.9806C5.69751 58.9129 5.79108 58.827 5.85232 58.7522C5.90992 58.6819 5.93232 58.6299 5.93609 58.6208C5.93985 58.6117 5.93273 58.6268 5.9237 58.6728C5.9149 58.7177 5.9072 58.777 5.90309 58.849L1.90961 58.6206C1.934 58.1942 2.01237 57.6425 2.23912 57.0936C2.4701 56.5344 2.90564 55.8663 3.69444 55.4475L5.56997 58.9806ZM5.90301 58.8504C5.81643 60.3462 6.61724 61.9929 7.98327 63.2559L5.26772 66.1929C3.31141 64.3841 1.73416 61.6519 1.90969 58.6192L5.90301 58.8504ZM7.98302 63.2557C9.35685 64.5255 11.1565 65.3894 13.2162 66.1985L11.7537 69.9216C9.6073 69.0784 7.21759 67.9952 5.26796 66.1931L7.98302 63.2557ZM13.2168 66.1987C16.2255 67.3817 19.3339 68.3088 22.4976 68.9662L21.6838 72.8825C18.2981 72.179 14.9723 71.1871 11.7531 69.9213L13.2168 66.1987ZM22.4976 68.9662C24.8819 69.4617 27.8033 69.8824 30.449 70.9691L28.9293 74.6692C26.7361 73.7683 24.4196 73.4511 21.6838 72.8825L22.4976 68.9662ZM30.4489 70.969C33.1541 72.0799 35.9669 74.129 37.1724 77.2867L33.4354 78.7133C32.7691 76.9679 31.0644 75.5459 28.9295 74.6692L30.4489 70.969ZM33.4487 77.2528C33.5944 76.8909 33.7996 76.1554 33.9855 75.3278C34.1717 74.499 34.2881 73.8046 34.3079 73.5495L38.2959 73.8592C38.2524 74.4191 38.0802 75.3502 37.8883 76.2045C37.6961 77.0599 37.4339 78.0647 37.1591 78.7472L33.4487 77.2528ZM34.3079 73.5492C34.5886 69.9415 34.0907 67.9711 33.4575 66.7874C32.8319 65.6179 31.9528 64.9642 30.7729 64.1746L32.9975 60.8503C34.2288 61.6743 35.8557 62.7905 36.9845 64.9006C38.1057 66.9964 38.6106 69.8151 38.2959 73.8595L34.3079 73.5492Z" fill="#8B5632" mask="url(#path-4-inside-2_1_517)"/>
<mask id="path-6-inside-3_1_517" fill="white">
<path d="M9.57844 58.8074C8.90076 58.25 8.41013 57.4717 8.09201 56.6523C7.77389 55.8328 7.72517 54.8751 8.12338 54.0916C8.31101 53.7233 8.61232 53.3909 9.00773 53.2733C9.47147 53.1355 9.98449 53.3223 10.3485 53.6428C10.712 53.9634 10.9512 54.4004 11.1618 54.8379C11.8249 56.2153 12.2819 57.6972 13.0884 58.9958C14.0254 60.5042 15.3864 61.6909 16.7266 62.8528C16.5586 62.7071 13.9279 62.386 9.57844 58.8074Z"/>
</mask>
<path d="M8.12338 54.0916L6.34048 53.1854L6.34123 53.1839L8.12338 54.0916ZM9.00773 53.2733L8.43784 51.3562L8.43809 51.3562L9.00773 53.2733ZM10.3485 53.6428L11.6703 52.1418L11.6714 52.1428L10.3485 53.6428ZM11.1618 54.8379L9.35974 55.7055L9.35962 55.7053L11.1618 54.8379ZM13.0884 58.9958L11.3895 60.0512L11.3894 60.051L13.0884 58.9958ZM16.7266 62.8528L18.0367 61.3416L15.4165 64.364L16.7266 62.8528ZM8.30805 60.3521C7.29863 59.5219 6.63454 58.4243 6.22759 57.3761L9.95644 55.9285C10.1857 56.519 10.5029 56.9782 10.8488 57.2627L8.30805 60.3521ZM6.22759 57.3761C5.7652 56.185 5.61638 54.61 6.34048 53.1854L9.90628 54.9979C9.83396 55.1401 9.78259 55.4806 9.95644 55.9285L6.22759 57.3761ZM6.34123 53.1839C6.66858 52.5412 7.32442 51.6872 8.43784 51.3562L9.57762 55.1904C9.74513 55.1406 9.84321 55.0599 9.88052 55.0236C9.91552 54.9897 9.91687 54.9771 9.90554 54.9993L6.34123 53.1839ZM8.43809 51.3562C9.76574 50.9617 10.9722 51.5272 11.6703 52.1418L9.02679 55.1438C9.04163 55.1569 9.07285 55.1815 9.14075 55.2018C9.21271 55.2234 9.37182 55.2516 9.57738 55.1905L8.43809 51.3562ZM11.6714 52.1428C12.3607 52.7507 12.7432 53.512 12.9639 53.9706L9.35962 55.7053C9.26642 55.5116 9.19605 55.3803 9.13162 55.2803C9.06954 55.1841 9.03321 55.1495 9.02565 55.1428L11.6714 52.1428ZM12.9638 53.9704C13.3236 54.7176 13.6432 55.5283 13.9135 56.1678C14.2022 56.8507 14.4693 57.4284 14.7874 57.9406L11.3894 60.051C10.901 59.2646 10.5364 58.4521 10.2291 57.725C9.90348 56.9546 9.66309 56.3356 9.35974 55.7055L12.9638 53.9704ZM14.7873 57.9405C15.5383 59.1493 16.6584 60.1467 18.0367 61.3416L15.4165 64.3639C14.1143 63.235 12.5125 61.859 11.3895 60.0512L14.7873 57.9405ZM15.4165 64.364C15.5963 64.5198 15.7602 64.603 15.8135 64.6295C15.8839 64.6645 15.9377 64.6853 15.9563 64.6923C15.9913 64.7056 16.005 64.7089 15.9612 64.6954C15.9281 64.6852 15.7075 64.6198 15.5497 64.5701C15.1556 64.446 14.601 64.2543 13.9051 63.9436C12.5134 63.3222 10.616 62.251 8.30774 60.3518L10.8491 57.2629C12.8904 58.9424 14.4831 59.8211 15.536 60.2912C16.0626 60.5263 16.4689 60.6659 16.7512 60.7548C16.9317 60.8117 16.9781 60.8232 17.1381 60.8724C17.1907 60.8886 17.2824 60.9172 17.3766 60.953C17.3872 60.957 17.7251 61.0715 18.0367 61.3416L15.4165 64.364Z" fill="#8B5632" mask="url(#path-6-inside-3_1_517)"/>
<mask id="path-8-inside-4_1_517" fill="white">
<path d="M14.6644 59.0002C13.752 57.8118 13.1102 56.4035 12.9198 54.9154C12.8385 54.281 12.8436 53.5943 13.1875 53.0561C13.5308 52.5179 14.3143 52.2254 14.8324 52.5978C15.2777 52.9172 15.346 53.5387 15.4518 54.078C15.6187 54.9323 15.9766 55.7478 16.4908 56.4485C16.5966 56.5931 16.7126 56.7393 16.7546 56.9142C16.7988 57.1015 16.7523 57.2972 16.7148 57.4862C16.5025 58.5525 16.586 60.0283 16.9523 61.0513C16.8951 60.8927 15.859 60.558 14.6644 59.0002Z"/>
</mask>
<path d="M12.9198 54.9154L14.9036 54.6615L14.9036 54.6616L12.9198 54.9154ZM13.1875 53.0561L14.8736 54.1317L14.8728 54.1329L13.1875 53.0561ZM14.8324 52.5978L13.6665 54.2228L13.6652 54.2219L14.8324 52.5978ZM15.4518 54.078L17.4144 53.6928L17.4147 53.6945L15.4518 54.078ZM16.4908 56.4485L18.1033 55.2654L18.1043 55.2668L16.4908 56.4485ZM16.7546 56.9142L18.6993 56.4472L18.701 56.4544L16.7546 56.9142ZM16.7148 57.4862L18.6765 57.8757L18.6763 57.8766L16.7148 57.4862ZM16.9523 61.0513L18.8352 60.3771L15.0706 61.729L16.9523 61.0513ZM13.078 60.2181C11.983 58.7919 11.1776 57.0581 10.9359 55.1693L14.9036 54.6616C15.0427 55.749 15.521 56.8317 16.2508 57.7822L13.078 60.2181ZM10.9359 55.1694C10.8426 54.4401 10.7596 53.1414 11.5021 51.9793L14.8728 54.1329C14.9095 54.0755 14.8935 54.0634 14.8828 54.1627C14.8716 54.2679 14.8737 54.4285 14.9036 54.6615L10.9359 55.1694ZM11.5013 51.9805C11.9403 51.2923 12.6205 50.8014 13.3537 50.5747C14.0967 50.345 15.1103 50.3346 15.9996 50.9737L13.6652 54.2219C14.0364 54.4886 14.3992 54.4383 14.5352 54.3962C14.6612 54.3573 14.778 54.2816 14.8736 54.1317L11.5013 51.9805ZM15.9983 50.9727C16.7048 51.4796 17.0174 52.1664 17.1702 52.6334C17.3067 53.0506 17.3864 53.5502 17.4144 53.6928L13.4893 54.4632C13.4736 54.3833 13.4586 54.3019 13.4468 54.2381C13.434 54.1695 13.4235 54.114 13.413 54.0621C13.3914 53.9558 13.3769 53.9029 13.3686 53.8774C13.3606 53.8531 13.3699 53.8908 13.4124 53.9579C13.4593 54.032 13.5411 54.1328 13.6665 54.2228L15.9983 50.9727ZM17.4147 53.6945C17.525 54.2591 17.763 54.8017 18.1033 55.2654L14.8782 57.6316C14.1902 56.6939 13.7124 55.6055 13.4889 54.4615L17.4147 53.6945ZM18.1043 55.2668C18.1131 55.2788 18.5417 55.791 18.6993 56.4472L14.8099 57.3812C14.8564 57.5749 14.9303 57.6973 14.9472 57.7246C14.9565 57.7395 14.9594 57.7426 14.9464 57.7245C14.9401 57.7158 14.9323 57.7051 14.9203 57.6888C14.9108 57.6758 14.8924 57.6509 14.8772 57.6302L18.1043 55.2668ZM18.701 56.4544C18.868 57.1614 18.6804 57.8561 18.6765 57.8757L14.7531 57.0966C14.7581 57.0715 14.7651 57.0368 14.7682 57.0216C14.7724 57.0007 14.7751 56.9869 14.7771 56.976C14.7814 56.9529 14.78 56.9573 14.7778 56.9763C14.774 57.0107 14.7587 57.1649 14.8081 57.3741L18.701 56.4544ZM18.6763 57.8766C18.5293 58.6154 18.6003 59.7211 18.8352 60.3771L15.0693 61.7254C14.5716 60.3354 14.4758 58.4896 14.7533 57.0957L18.6763 57.8766ZM15.0706 61.729C15.2016 62.0927 15.4055 62.3184 15.4836 62.4002C15.5762 62.4972 15.6548 62.5575 15.6789 62.5757C15.7224 62.6087 15.7451 62.6208 15.6726 62.5751C15.5659 62.5079 15.3361 62.3672 15.0687 62.1753C14.5149 61.7778 13.8091 61.1715 13.0773 60.2172L16.2515 57.7831C16.7143 58.3867 17.1239 58.7267 17.4011 58.9256C17.5491 59.0319 17.6638 59.102 17.8047 59.1908C17.8561 59.2231 17.9785 59.2996 18.0942 59.3873C18.1544 59.4329 18.2624 59.5182 18.377 59.6383C18.4771 59.7431 18.6958 59.9901 18.8339 60.3735L15.0706 61.729Z" fill="#8B5632" mask="url(#path-8-inside-4_1_517)"/>
<mask id="path-10-inside-5_1_517" fill="white">
<path d="M46.7953 62.5125C48.5909 61.3106 50.76 60.8427 52.8603 60.3472C54.9617 59.8523 57.1235 59.2697 58.7948 57.8979C59.1728 57.5875 59.6898 57.2225 60.0936 57.4986C60.2515 57.6066 60.3389 57.7905 60.4044 57.9705C61.0418 59.7331 60.0953 61.7566 58.6419 62.9343C57.1885 64.112 55.3291 64.6328 53.5273 65.1249C60.2202 65.8324 66.9925 62.8775 71.7767 58.1246C72.4006 57.5054 73.2737 56.8018 74.0489 57.2141C74.5669 57.4891 74.7411 58.1471 74.7747 58.7348C74.9052 60.999 73.7167 63.1885 72.055 64.7244C70.3938 66.2603 68.2986 67.2339 66.1961 68.06C63.0821 69.2844 59.8651 70.2439 56.5903 70.9244C54.0303 71.4564 51.4114 71.8254 48.9913 72.8191C46.5713 73.8129 44.3125 75.5485 43.3772 78C42.956 76.9556 42.4424 74.5193 42.3791 73.7044C41.7838 66.0523 44.3847 64.126 46.7953 62.5125Z"/>
</mask>
<path d="M52.8603 60.3472L52.4011 58.4007L52.4018 58.4005L52.8603 60.3472ZM58.7948 57.8979L60.064 59.4436L60.0637 59.4439L58.7948 57.8979ZM60.0936 57.4986L58.9648 59.1497L58.9646 59.1495L60.0936 57.4986ZM60.4044 57.9705L62.2837 57.2862L62.2852 57.2904L60.4044 57.9705ZM53.5273 65.1249L53.3171 67.1138L53.0004 63.1955L53.5273 65.1249ZM71.7767 58.1246L70.3671 56.7058L70.3678 56.705L71.7767 58.1246ZM74.0489 57.2141L73.1111 58.9806L73.1097 58.9799L74.0489 57.2141ZM74.7747 58.7348L72.778 58.8499L72.778 58.849L74.7747 58.7348ZM72.055 64.7244L70.6972 63.2559L70.6975 63.2557L72.055 64.7244ZM66.1961 68.06L65.4643 66.1987L65.4647 66.1986L66.1961 68.06ZM56.5903 70.9244L56.1834 68.9662L56.1834 68.9662L56.5903 70.9244ZM43.3772 78L45.2458 78.7129L43.4288 83.4755L41.5223 78.748L43.3772 78ZM42.3791 73.7044L44.3731 73.5492L44.3731 73.5495L42.3791 73.7044ZM45.6828 60.8504C47.8413 59.4057 50.409 58.8706 52.4011 58.4007L53.3195 62.2938C51.111 62.8148 49.3405 63.2156 47.9078 64.1745L45.6828 60.8504ZM52.4018 58.4005C54.5331 57.8985 56.2575 57.3931 57.5259 56.352L60.0637 59.4439C57.9896 61.1462 55.3902 61.8061 53.3188 62.294L52.4018 58.4005ZM57.5255 56.3523C57.7269 56.1869 58.1426 55.8522 58.6586 55.635C59.1975 55.4081 60.2266 55.1667 61.2225 55.8477L58.9646 59.1495C59.2225 59.3259 59.516 59.4014 59.7777 59.4009C60.0102 59.4004 60.1643 59.3411 60.2105 59.3217C60.26 59.3008 60.2676 59.2906 60.2268 59.3184C60.1891 59.3441 60.1377 59.3831 60.064 59.4436L57.5255 56.3523ZM61.2224 55.8476C61.9423 56.3398 62.2041 57.0675 62.2837 57.2862L58.5251 58.6548C58.5112 58.6164 58.5253 58.6652 58.5742 58.7456C58.6265 58.8318 58.7456 58.9998 58.9648 59.1497L61.2224 55.8476ZM62.2852 57.2904C63.3141 60.1356 61.749 62.9908 59.901 64.4882L57.3828 61.3804C58.4415 60.5225 58.7695 59.3305 58.5236 58.6506L62.2852 57.2904ZM59.901 64.4882C58.0679 65.9735 55.7869 66.581 54.0543 67.0542L53.0004 63.1955C54.8713 62.6845 56.3091 62.2504 57.3828 61.3804L59.901 64.4882ZM53.7376 63.1359C59.719 63.7682 65.9218 61.122 70.3671 56.7058L73.1862 59.5434C68.0632 64.633 60.7213 67.8965 53.3171 67.1138L53.7376 63.1359ZM70.3678 56.705C70.7119 56.3636 71.2648 55.8511 71.9429 55.5032C72.641 55.1449 73.7931 54.8128 74.988 55.4483L73.1097 58.9799C73.1887 59.0219 73.28 59.055 73.3782 59.0738C73.4753 59.0923 73.5616 59.0937 73.63 59.0876C73.7585 59.0763 73.8101 59.0409 73.7692 59.0619C73.7307 59.0817 73.6547 59.1286 73.5417 59.2197C73.4316 59.3086 73.313 59.4177 73.1855 59.5442L70.3678 56.705ZM74.9866 55.4475C75.7754 55.8663 76.211 56.5344 76.4419 57.0936C76.6687 57.6425 76.7471 58.1942 76.7715 58.6206L72.778 58.849C72.7739 58.777 72.7662 58.7177 72.7574 58.6728C72.7483 58.6268 72.7412 58.6117 72.745 58.6208C72.7487 58.6299 72.7711 58.6819 72.8287 58.7522C72.89 58.827 72.9836 58.9129 73.1111 58.9806L74.9866 55.4475ZM76.7714 58.6197C76.9461 61.6518 75.3699 64.3839 73.4125 66.1931L70.6975 63.2557C72.0635 61.9931 72.8643 60.3463 72.778 58.8499L76.7714 58.6197ZM73.4128 66.1929C71.4636 67.9952 69.073 69.0785 66.9276 69.9215L65.4647 66.1986C67.5242 65.3893 69.3241 64.5255 70.6972 63.2559L73.4128 66.1929ZM66.9279 69.9213C63.7087 71.1871 60.383 72.179 56.9973 72.8825L56.1834 68.9662C59.3472 68.3088 62.4555 67.3817 65.4643 66.1987L66.9279 69.9213ZM56.9973 72.8825C54.2614 73.4511 51.9449 73.7683 49.751 74.6692L48.2316 70.969C50.8779 69.8824 53.7991 69.4617 56.1834 68.9662L56.9973 72.8825ZM49.751 74.6692C47.6161 75.5459 45.9116 76.9679 45.2458 78.7129L41.5086 77.2871C42.7134 74.1291 45.5265 72.0799 48.2316 70.969L49.751 74.6692ZM41.5223 78.748C41.2469 78.065 40.9846 77.0597 40.7925 76.2043C40.6007 75.3499 40.4286 74.4189 40.3851 73.8592L44.3731 73.5495C44.3929 73.8048 44.5093 74.4994 44.6954 75.3279C44.8812 76.1556 45.0863 76.8906 45.232 77.252L41.5223 78.748ZM40.3852 73.8595C40.0705 69.8151 40.5754 66.9964 41.6965 64.9006C42.8252 62.7906 44.4519 61.6744 45.6828 60.8505L47.9078 64.1745C46.7281 64.9641 45.8491 65.6178 45.2235 66.7873C44.5903 67.971 44.0924 69.9415 44.3731 73.5492L40.3852 73.8595Z" fill="#8B5632" mask="url(#path-10-inside-5_1_517)"/>
<mask id="path-12-inside-6_1_517" fill="white">
<path d="M69.1022 58.8074C69.7799 58.25 70.2699 57.4717 70.5886 56.6523C70.9067 55.8328 70.956 54.8751 70.5573 54.0916C70.3696 53.7233 70.0683 53.3909 69.6735 53.2733C69.2092 53.1355 68.6956 53.3223 68.3321 53.6428C67.9686 53.9634 67.7289 54.4004 67.5183 54.8379C66.8557 56.2153 66.3982 57.6972 65.5922 58.9958C64.6552 60.5042 63.2943 61.6909 61.954 62.8528C62.1226 62.7071 64.7521 62.386 69.1022 58.8074Z"/>
</mask>
<path d="M70.5886 56.6523L72.453 57.3761L72.4526 57.3772L70.5886 56.6523ZM70.5573 54.0916L72.3394 53.1839L72.3396 53.1844L70.5573 54.0916ZM69.6735 53.2733L70.2425 51.356L70.2441 51.3565L69.6735 53.2733ZM67.5183 54.8379L65.716 53.9709L65.7162 53.9706L67.5183 54.8379ZM65.5922 58.9958L67.2916 60.0505L67.2911 60.0512L65.5922 58.9958ZM61.954 62.8528L63.2616 64.3661L60.6439 61.3416L61.954 62.8528ZM67.8318 57.2627C68.1773 56.9786 68.4943 56.5196 68.7246 55.9273L72.4526 57.3772C72.0456 58.4238 71.3825 59.5215 70.3726 60.3521L67.8318 57.2627ZM68.7242 55.9285C68.8984 55.4796 68.8467 55.14 68.7749 54.9989L72.3396 53.1844C73.0654 54.6102 72.9151 56.186 72.453 57.3761L68.7242 55.9285ZM68.7751 54.9993C68.7638 54.9771 68.765 54.9895 68.7998 55.0233C68.8369 55.0593 68.935 55.1402 69.1028 55.1902L70.2441 51.3565C71.3567 51.6877 72.0122 52.5416 72.3394 53.1839L68.7751 54.9993ZM69.1045 55.1907C69.3092 55.2514 69.4676 55.2235 69.5394 55.2019C69.6072 55.1816 69.639 55.1569 69.655 55.1428L67.0092 52.1428C67.7085 51.5261 68.9156 50.9622 70.2425 51.356L69.1045 55.1907ZM69.655 55.1428C69.647 55.1498 69.6104 55.1848 69.5482 55.2812C69.4837 55.3811 69.4133 55.5124 69.3205 55.7053L65.7162 53.9706C65.9377 53.5104 66.3206 52.7502 67.0092 52.1428L69.655 55.1428ZM69.3206 55.7049C69.0173 56.3354 68.7769 56.9546 68.4513 57.725C68.144 58.4521 67.7794 59.2643 67.2916 60.0505L63.8929 57.9412C64.211 57.4287 64.4782 56.8507 64.7668 56.1678C65.0371 55.5283 65.3567 54.7178 65.716 53.9709L69.3206 55.7049ZM67.2911 60.0512C66.1681 61.859 64.5663 63.235 63.2641 64.3639L60.6439 61.3416C62.0222 60.1467 63.1424 59.1493 63.8933 57.9405L67.2911 60.0512ZM60.6464 61.3394C60.9571 61.071 61.2936 60.957 61.3046 60.9528C61.3986 60.9171 61.4902 60.8886 61.5428 60.8724C61.7021 60.8234 61.7498 60.8114 61.9295 60.7548C62.2118 60.666 62.6181 60.5264 63.1445 60.2913C64.1973 59.8211 65.79 58.9424 67.8316 57.2629L70.3728 60.3519C68.0643 62.251 66.1672 63.3221 64.7756 63.9436C64.0798 64.2543 63.5252 64.446 63.1311 64.5701C62.9726 64.62 62.7533 64.685 62.7195 64.6954C62.6755 64.7089 62.6891 64.7057 62.724 64.6925C62.7424 64.6855 62.796 64.6648 62.8661 64.63C62.9193 64.6036 63.0825 64.5209 63.2616 64.3661L60.6464 61.3394Z" fill="#8B5632" mask="url(#path-12-inside-6_1_517)"/>
<mask id="path-14-inside-7_1_517" fill="white">
<path d="M64.0166 59.0002C64.929 57.8118 65.5703 56.4035 65.7612 54.9154C65.8424 54.281 65.8374 53.5943 65.4935 53.0561C65.1496 52.5179 64.3667 52.2254 63.8486 52.5978C63.4033 52.9172 63.335 53.5387 63.2292 54.078C63.0623 54.9323 62.7044 55.7478 62.1902 56.4485C62.0838 56.5931 61.9679 56.7393 61.9264 56.9142C61.8822 57.1015 61.9287 57.2972 61.9662 57.4862C62.1779 58.5525 62.095 60.0283 61.7287 61.0513C61.7859 60.8927 62.822 60.558 64.0166 59.0002Z"/>
</mask>
<path d="M65.7612 54.9154L67.745 55.1694L67.745 55.17L65.7612 54.9154ZM63.8486 52.5978L65.0158 54.2219L65.0145 54.2228L63.8486 52.5978ZM63.2292 54.078L61.2663 53.6945L61.2666 53.6928L63.2292 54.078ZM62.1902 56.4485L63.8028 57.6317L63.8008 57.6343L62.1902 56.4485ZM61.9264 56.9142L59.98 56.4544L59.9803 56.4531L61.9264 56.9142ZM61.9662 57.4862L63.9279 57.0966L63.9279 57.0967L61.9662 57.4862ZM61.7287 61.0513L63.6104 61.729L59.8458 60.3771L61.7287 61.0513ZM62.4302 57.7822C63.1596 56.8322 63.6378 55.7493 63.7775 54.6608L67.745 55.17C67.5027 57.0578 66.6983 58.7915 65.603 60.2181L62.4302 57.7822ZM63.7774 54.6615C63.8073 54.4284 63.8094 54.2679 63.7982 54.1627C63.7875 54.0634 63.7715 54.0755 63.8082 54.1329L67.1789 51.9793C67.9214 53.1414 67.8384 54.4402 67.745 55.1694L63.7774 54.6615ZM63.8082 54.1329C63.9032 54.2817 64.0193 54.3572 64.1455 54.3962C64.2817 54.4383 64.6447 54.4885 65.0158 54.2219L62.6814 50.9737C63.5706 50.3346 64.5841 50.3449 65.3273 50.5748C66.0605 50.8015 66.74 51.2923 67.1789 51.9793L63.8082 54.1329ZM65.0145 54.2228C65.1399 54.1328 65.2217 54.032 65.2686 53.9579C65.3111 53.8908 65.3204 53.8531 65.3124 53.8774C65.3041 53.903 65.2896 53.9558 65.268 54.0621C65.2575 54.114 65.247 54.1695 65.2342 54.2381C65.2224 54.3019 65.2074 54.3833 65.1917 54.4632L61.2666 53.6928C61.2946 53.5502 61.3743 53.0506 61.5108 52.6334C61.6636 52.1664 61.9762 51.4796 62.6827 50.9727L65.0145 54.2228ZM65.192 54.4615C64.9686 55.6055 64.4908 56.6939 63.8028 57.6316L60.5777 55.2654C60.918 54.8017 61.156 54.2591 61.2663 53.6945L65.192 54.4615ZM63.8008 57.6343C63.7865 57.6538 63.767 57.68 63.7583 57.6918C63.7465 57.7078 63.7388 57.7182 63.7328 57.7266C63.7203 57.744 63.7235 57.7404 63.7333 57.7246C63.7512 57.6958 63.8261 57.5715 63.8725 57.3754L59.9803 56.4531C60.1372 55.7911 60.5685 55.2779 60.5797 55.2628L63.8008 57.6343ZM63.8729 57.3741C63.9223 57.1648 63.907 57.0107 63.9031 56.9762C63.901 56.9572 63.8996 56.9529 63.9039 56.9759C63.9059 56.9869 63.9086 57.0007 63.9128 57.0215C63.9159 57.0369 63.9229 57.0715 63.9279 57.0966L60.0045 57.8757C60.0007 57.8563 59.813 57.1615 59.98 56.4544L63.8729 57.3741ZM63.9279 57.0967C64.2044 58.4893 64.1096 60.3349 63.6117 61.7254L59.8458 60.3771C60.0805 59.7217 60.1514 58.6157 60.0045 57.8757L63.9279 57.0967ZM59.8471 60.3735C59.9852 59.9901 60.2039 59.7431 60.304 59.6383C60.4186 59.5182 60.5266 59.4329 60.5868 59.3873C60.7025 59.2996 60.8249 59.2231 60.8763 59.1908C61.0172 59.102 61.1319 59.0319 61.2799 58.9256C61.5571 58.7267 61.9667 58.3867 62.4295 57.7831L65.6037 60.2172C64.8719 61.1715 64.1661 61.7778 63.6123 62.1753C63.3449 62.3672 63.1151 62.5079 63.0084 62.5751C62.9359 62.6208 62.9586 62.6087 63.0021 62.5757C63.0262 62.5575 63.1048 62.4972 63.1974 62.4002C63.2755 62.3184 63.4794 62.0927 63.6104 61.729L59.8471 60.3735Z" fill="#8B5632" mask="url(#path-14-inside-7_1_517)"/>
</svg>
