<svg width="21" height="21" viewBox="0 0 21 21" fill="none" xmlns="http://www.w3.org/2000/svg">
<path d="M18 12.0164V19.0328C18 20.1147 17.1147 21 16.0328 21H1.96721C0.885328 21 0 20.1147 0 19.0328V4.96721C0 3.88533 0.885328 3 1.96721 3H8.98361C9.34429 3 9.63934 3.29505 9.63934 3.65574C9.63934 4.01643 9.34429 4.31148 8.98361 4.31148H1.96721C1.60652 4.31148 1.31148 4.60652 1.31148 4.96721V19.0328C1.31148 19.3935 1.60652 19.6885 1.96721 19.6885H16.0328C16.3935 19.6885 16.6885 19.3935 16.6885 19.0328V12.0164C16.6885 11.6557 16.9836 11.3607 17.3443 11.3607C17.705 11.3607 18 11.6557 18 12.0164Z" fill="black"/>
<path d="M20.1174 0.840835C19.523 0.291004 18.7191 0 17.8802 0C17.0413 0 16.2372 0.291012 15.6431 0.840835L14.2448 2.13437L12.7067 3.58959L7.95264 7.98759C7.84784 8.08454 7.77786 8.21402 7.74287 8.34334L7.00875 12.2239C6.97376 12.418 7.04374 12.6442 7.21852 12.8059C7.35831 12.9353 7.53309 13 7.70786 13H7.81266L12.0074 12.3209C12.1472 12.2885 12.287 12.2239 12.3919 12.1268L20.0822 5.01238C20.6766 4.46255 20.9911 3.71885 20.9911 2.94277C21.0611 2.13432 20.7116 1.39046 20.1174 0.840786L20.1174 0.840835ZM11.5881 11.0597L8.58185 11.5448L9.10619 8.76367L13.0213 5.1417L15.5033 7.43776L11.5881 11.0597ZM17.1811 5.8856L16.4819 6.53237L14 4.23631L14.7691 3.52479L17.2511 5.82084L17.1811 5.8856ZM19.1386 4.04224L18.1947 4.91545L15.7128 2.6194L16.6217 1.74618C17.0063 1.45517 17.4258 1.29349 17.9152 1.29349C18.4046 1.29349 18.8241 1.45518 19.1386 1.77856C19.4532 2.10195 19.663 2.49009 19.663 2.9104C19.663 3.33072 19.4882 3.75124 19.1386 4.04224Z" fill="black"/>
</svg>
