<svg width="43" height="42" viewBox="0 0 43 42" fill="none" xmlns="http://www.w3.org/2000/svg">
<path d="M29.9232 13.9385C28.9301 12.9093 27.5594 12.331 26.1291 12.3379C24.6975 12.3376 23.3255 12.9116 22.3208 13.9313L21.4991 14.753L20.6774 13.9313C19.6726 12.9115 18.3007 12.3376 16.8691 12.3379C15.4437 12.3309 14.0769 12.9035 13.0821 13.9242C12.0694 14.9314 11.5 16.3008 11.5 17.729C11.5 19.1573 12.0694 20.5267 13.0821 21.5339L20.9916 29.4507C21.1258 29.5861 21.3084 29.6622 21.499 29.6622C21.6896 29.6622 21.8722 29.5861 22.0063 29.4507L23.5068 27.943V27.9432C23.6642 27.7591 23.718 27.5079 23.6493 27.2757C23.5807 27.0435 23.399 26.8618 23.1668 26.7931C22.9344 26.7245 22.6832 26.7781 22.4993 26.9357L21.499 27.9288L14.0823 20.5191C13.3396 19.779 12.9222 18.7738 12.9222 17.7254C12.9222 16.6769 13.3396 15.6717 14.0823 14.9316C14.8161 14.1836 15.8209 13.7637 16.8689 13.7669C17.9216 13.7674 18.9303 14.1894 19.6698 14.9388L20.9916 16.2679V16.2677C21.1258 16.4031 21.3084 16.4792 21.499 16.4792C21.6896 16.4792 21.8722 16.4031 22.0063 16.2677L23.3282 14.9387V14.9388C24.0676 14.1894 25.0763 13.7674 26.129 13.7669C27.1794 13.7658 28.1851 14.1913 28.9156 14.9458C29.6574 15.6835 30.0745 16.6864 30.0745 17.7325C30.0745 18.7786 29.6574 19.7816 28.9156 20.5191C28.7636 20.6476 28.6721 20.8336 28.663 21.0325C28.6539 21.2314 28.7282 21.4248 28.8679 21.5666C29.0076 21.7084 29.2001 21.7854 29.3992 21.7792C29.5981 21.7728 29.7855 21.684 29.9159 21.5337C30.9297 20.5299 31.5 19.1626 31.5 17.7361C31.5 16.3095 30.9297 14.9421 29.9159 13.9385L29.9232 13.9385Z" fill="#3A383B"/>
<path d="M29.0017 23.499H27.2154V21.7127C27.2154 21.4574 27.0792 21.2215 26.8581 21.0939C26.637 20.9663 26.3646 20.9663 26.1436 21.0939C25.9225 21.2215 25.7863 21.4574 25.7863 21.7127V23.499H24C23.7447 23.499 23.5088 23.6352 23.3812 23.8563C23.2536 24.0773 23.2536 24.3497 23.3812 24.5708C23.5088 24.7918 23.7447 24.928 24 24.928H25.7863V26.7143C25.7863 26.9697 25.9225 27.2055 26.1436 27.3331C26.3646 27.4607 26.637 27.4607 26.8581 27.3331C27.0792 27.2055 27.2154 26.9697 27.2154 26.7143V24.928H29.0017C29.257 24.928 29.4929 24.7918 29.6205 24.5708C29.7481 24.3497 29.7481 24.0773 29.6205 23.8563C29.4929 23.6352 29.257 23.499 29.0017 23.499Z" fill="#3A383B"/>
<rect x="0.5" y="0.5" width="42" height="41" rx="20.5" stroke="black"/>
</svg>
