<svg width="66" height="70" viewBox="0 0 66 70" fill="none" xmlns="http://www.w3.org/2000/svg">
<path d="M2.36476 19.036L3.27064 17.6128L1.08731 17.2568L2.36476 19.036ZM5.22752 17.9263L4.12624 17.7498L2.86666 19.7291L3.51126 20.6218L2.99953 21.4258L0 17.1222L0.512231 16.3181L5.75843 17.0931L5.22752 17.9263Z" fill="#3A383B"/>
<path d="M6.27941 9.45868L7.43439 12.9303L8.58955 14.0061L7.94761 14.6683L6.81725 13.6174L3.16675 12.6738L3.81797 12.0007L6.39224 12.6004L5.63283 10.1269L6.27941 9.45868Z" fill="#3A383B"/>
<path d="M12.0271 9.67815C12.3299 9.73454 12.6331 9.66117 12.9358 9.45863C13.2381 9.25609 13.4148 9.00929 13.4665 8.71518C13.5186 8.4229 13.436 8.1197 13.2183 7.80801L11.6035 5.48731L12.3734 4.97248L13.9884 7.29378C14.2269 7.63519 14.3629 7.98023 14.3972 8.32891C14.432 8.67637 14.3656 9.00626 14.1966 9.31674C14.0285 9.62721 13.7656 9.90252 13.4095 10.1396C13.0501 10.381 12.6894 10.5235 12.3294 10.5659C11.9686 10.609 11.6303 10.5502 11.3114 10.3919C10.9937 10.2336 10.7156 9.98378 10.4775 9.64116L8.86353 7.32046L9.63283 6.80563L11.2469 9.12693C11.4646 9.43802 11.7244 9.62175 12.0271 9.67815Z" fill="#3A383B"/>
<path d="M17.7532 5.1999L18.7757 4.80392C19.1034 4.67718 19.3255 4.51042 19.4412 4.30424C19.5576 4.09746 19.5603 3.85733 19.4496 3.58263C19.3404 3.31157 19.1722 3.14238 18.9451 3.07325C18.7185 3.00534 18.4411 3.03444 18.1132 3.16118L17.0907 3.55716L17.7532 5.1999ZM20.5483 6.49275L19.236 5.4837C19.2032 5.50128 19.15 5.52433 19.077 5.55222L18.0549 5.94819L18.5817 7.25499L17.7143 7.59033L15.9253 3.15147L17.8141 2.41955C18.4003 2.19276 18.9069 2.1497 19.3334 2.29281C19.7606 2.43532 20.0713 2.75004 20.267 3.23576C20.4072 3.58323 20.4497 3.90826 20.3951 4.21328C20.3412 4.51709 20.1921 4.78754 19.9486 5.02404L21.5377 6.1095L20.5483 6.49275Z" fill="#3A383B"/>
<path d="M30.5931 3.79163C30.7553 3.67157 30.8316 3.50905 30.8229 3.30469C30.8145 3.10882 30.7246 2.95965 30.553 2.85414C30.3817 2.74984 30.1476 2.70617 29.8514 2.72255L28.6698 2.77167L28.7237 4.03237L29.9052 3.98326C30.2024 3.97598 30.4315 3.91231 30.5931 3.79163ZM30.3781 1.77353C30.5105 1.66316 30.5726 1.5152 30.5641 1.32904C30.5564 1.14712 30.482 1.00947 30.3413 0.914871C30.2002 0.820879 30.0088 0.78085 29.7685 0.795404L28.5871 0.843919L28.6364 2.00214L29.8182 1.95303C30.0596 1.94393 30.2461 1.88389 30.3781 1.77353ZM31.0235 0.272687C31.3316 0.474012 31.4937 0.758418 31.5098 1.1259C31.5209 1.38968 31.4547 1.6189 31.3131 1.81295C31.1702 2.00821 30.9684 2.14283 30.7067 2.21742C31.0341 2.26229 31.2927 2.38842 31.485 2.5946C31.6774 2.80017 31.7807 3.06213 31.7943 3.38049C31.811 3.78921 31.6638 4.11666 31.3521 4.36407C31.0409 4.61148 30.6069 4.74611 30.0504 4.76915L27.826 4.86072L27.6226 0.0913734L29.7837 0.00284147C30.3027 -0.0183825 30.7159 0.0719681 31.0235 0.272687Z" fill="#3A383B"/>
<path d="M35.3644 0.212166L36.2854 0.352249L35.6675 4.25322L37.7434 4.56976L37.6147 5.38538L34.6172 4.92936L35.3644 0.212166Z" fill="#3A383B"/>
<path d="M41.7716 1.52851L45.1273 2.71888L44.8502 3.46899L42.3716 2.58911L41.9621 3.69881L44.1865 4.48774L43.9088 5.23786L41.6844 4.44893L41.2681 5.57744L43.8259 6.48462L43.5488 7.23474L40.1145 6.01648L41.7716 1.52851Z" fill="#3A383B"/>
<path d="M51.5379 6.18534L52.3 6.66076L49.6847 10.6879L48.94 10.2228L48.6282 6.13137L46.827 8.90323L46.0581 8.42417L48.6746 4.39767L49.4194 4.86278L49.733 8.96327L51.5379 6.18534Z" fill="#3A383B"/>
<path d="M54.7521 13.8545C55.0162 13.9285 55.2828 13.9291 55.5507 13.8563C55.8191 13.7842 56.0635 13.641 56.2861 13.4276C56.5088 13.2154 56.6591 12.9752 56.7395 12.7078C56.8193 12.4404 56.8243 12.1742 56.7519 11.9092C56.6795 11.6454 56.5385 11.4071 56.327 11.196L55.5742 10.4405L53.2657 12.6508L54.0432 13.4318C54.2505 13.6398 54.4874 13.7805 54.7521 13.8545ZM57.6167 11.7721C57.7379 12.1833 57.7422 12.5926 57.629 12.9995C57.5158 13.4064 57.2919 13.7702 56.9573 14.091C56.6226 14.4124 56.2459 14.6222 55.829 14.7198C55.4109 14.8187 54.9909 14.8023 54.5696 14.6725C54.1478 14.5415 53.7643 14.3026 53.4173 13.9546L52.0273 12.5604L55.5092 9.22402L56.9239 10.643C57.2647 10.9844 57.4948 11.361 57.6167 11.7721Z" fill="#3A383B"/>
<path d="M61.37 17.6951C61.302 17.4344 61.2141 17.2209 61.1084 17.0554C60.9896 16.8704 60.8609 16.7455 60.7205 16.6818C60.5807 16.6176 60.4477 16.6242 60.3228 16.7018C60.2083 16.7716 60.1372 16.868 60.1088 16.9905C60.0809 17.1124 60.0778 17.2458 60.102 17.3889C60.1255 17.5332 60.1712 17.7212 60.238 17.9535C60.3308 18.2779 60.3921 18.5532 60.4218 18.7788C60.4521 19.005 60.4255 19.2287 60.3438 19.4513C60.2615 19.6738 60.089 19.866 59.8261 20.028C59.5749 20.1826 59.3133 20.2511 59.0411 20.2329C58.7702 20.2153 58.5098 20.1201 58.2624 19.9479C58.0155 19.7751 57.796 19.5398 57.6036 19.2384C57.4007 18.9231 57.2634 18.5781 57.191 18.2045C57.1174 17.8304 57.11 17.4695 57.1675 17.1233L58.0459 17.0329C57.984 17.3555 57.9803 17.6782 58.0329 17.9995C58.0861 18.3215 58.1826 18.592 58.323 18.8115C58.4609 19.0268 58.6125 19.1705 58.7758 19.2415C58.9384 19.313 59.0931 19.3033 59.2384 19.2142C59.3566 19.1414 59.4296 19.0438 59.458 18.9219C59.4859 18.7988 59.4871 18.666 59.4605 18.5217C59.4339 18.3773 59.385 18.1869 59.3151 17.9504C59.2224 17.626 59.1599 17.3531 59.1283 17.1312C59.0949 16.9098 59.1191 16.6891 59.1989 16.4678C59.2786 16.2464 59.4488 16.056 59.7079 15.8965C59.9473 15.7492 60.1966 15.6825 60.4551 15.6976C60.7143 15.7122 60.9661 15.805 61.211 15.9736C61.456 16.1415 61.675 16.3756 61.8673 16.6764C62.035 16.9377 62.1618 17.2209 62.2471 17.5253C62.3325 17.8297 62.3727 18.1226 62.3684 18.4058L61.4795 18.5186C61.4752 18.2306 61.4387 17.9559 61.37 17.6951Z" fill="#3A383B"/>
<path d="M21.3832 30.9528C21.3828 30.9376 21.3431 29.8788 21.2151 28.4556C21.5316 28.8576 21.8873 29.3979 22.1088 30.0165C22.5201 31.162 22.5114 32.3766 22.0817 33.6276C21.9694 33.9575 21.8399 34.2461 21.7196 34.4836C21.526 34.12 21.2675 33.6803 20.9613 33.2565C20.8294 33.0739 20.6888 32.9011 20.5528 32.7344C20.0436 32.1086 19.6416 31.6137 19.7694 30.8478C19.8588 30.3172 20.0763 29.7527 20.3182 29.2482C20.3971 30.2718 20.4233 30.974 20.424 30.9867C20.4331 31.2462 20.656 31.45 20.9205 31.4403C21.1856 31.4312 21.3946 31.2135 21.3832 30.9528ZM27.9518 24.1671C28.7439 24.1811 29.1669 24.6589 29.7024 25.2635C29.8457 25.4242 29.9936 25.5916 30.153 25.7517C30.5224 26.124 30.9183 26.4527 31.2475 26.7049C30.2419 26.9869 28.4363 27.2513 26.6951 26.2725C26.1476 25.9651 25.6919 25.5558 25.3512 25.1938C26.6896 25.5734 27.7003 25.7328 27.795 25.7474C28.0572 25.7874 28.3022 25.6116 28.3437 25.3545C28.3838 25.0986 28.2051 24.8572 27.9429 24.8172C27.9238 24.8142 27.1931 24.6995 26.1563 24.4309C26.7299 24.2769 27.3727 24.1568 27.9518 24.1671ZM28.4039 30.2129C28.9732 30.8824 29.433 31.9751 29.734 33.3711C29.8418 33.8726 29.9114 34.331 29.9549 34.6802C29.6156 34.5765 29.1735 34.428 28.6946 34.2352C27.3415 33.6919 26.3252 33.0497 25.7528 32.3766C24.7285 31.1705 25.1004 29.8315 25.3133 29.3021C26.2266 30.6884 26.7881 31.6707 26.7968 31.6865C26.9261 31.9133 27.2187 31.9945 27.4502 31.8678C27.6819 31.7417 27.7648 31.4548 27.636 31.2274C27.6273 31.2135 27.1557 30.3882 26.3745 29.1802C27.0093 29.233 27.7778 29.4768 28.4039 30.2129ZM18.7846 31.1329C18.7846 32.0722 19.3207 32.7307 19.8023 33.322C19.9356 33.4857 20.062 33.6403 20.1782 33.8004C20.8084 34.6717 21.2269 35.6552 21.231 35.6652C21.2965 35.8215 21.4431 35.9309 21.6152 35.9522C21.786 35.9731 21.9556 35.9027 22.0588 35.7668C22.0811 35.7379 22.6027 35.0467 22.9813 33.9611C23.4846 32.5167 23.4963 31.0443 23.0147 29.7042C22.457 28.1494 21.2354 27.0633 21.1837 27.0184C21.1455 26.9845 21.102 26.9572 21.056 26.9378C21.0336 26.751 21.0094 26.5606 20.9838 26.3702C20.8005 25.0106 20.5742 23.8694 20.3109 22.9737C21.2503 23.9082 22.2357 25.0494 23.2529 26.3847C23.7949 27.0973 24.296 27.7995 24.7396 28.4477C24.672 28.4902 24.6143 28.5496 24.5746 28.6199C24.5616 28.6442 24.2474 29.2191 24.1445 30.0322C24.1221 30.2069 24.1107 30.3779 24.1107 30.5471C24.1107 31.4451 24.4188 32.2783 25.0148 32.9793C26.618 34.8662 30.2339 35.7436 30.3872 35.7803C30.5351 35.8151 30.6914 35.7798 30.8083 35.6841C30.9245 35.5889 30.9883 35.4449 30.9796 35.2966C30.9711 35.1419 30.7445 31.4967 29.1421 29.6108C28.4331 28.7764 27.4659 28.3016 26.3428 28.2373C26.1319 28.2258 25.9328 28.2288 25.7533 28.2415C25.2514 27.4975 24.6679 26.6704 24.0288 25.8299C23.6147 25.2859 23.2055 24.7729 22.804 24.2933C23.1357 24.4376 23.4682 24.5698 23.7949 24.6892C23.8065 24.7414 23.8256 24.7917 23.8539 24.8378C23.8901 24.896 24.7587 26.2695 26.2174 27.0894C27.4751 27.7958 28.9533 28.0505 30.4949 27.8261C31.6514 27.6582 32.4395 27.2804 32.4729 27.264C32.6269 27.1888 32.7296 27.0378 32.7389 26.8692C32.7488 26.6995 32.6653 26.5388 32.5199 26.4466C32.5112 26.4405 31.6038 25.8626 30.8412 25.0949C30.7005 24.9542 30.5686 24.8038 30.428 24.6456C29.8469 23.9901 29.1892 23.2478 27.9697 23.226C26.7246 23.2029 25.306 23.6735 24.5676 23.9573C23.0956 23.457 21.453 22.7118 20.3227 21.6481C20.2926 21.6202 20.2604 21.5972 20.2256 21.5784C18.8522 20.3407 17.5696 19.5445 16.3883 19.1995C16.1346 19.1249 15.8667 19.2668 15.791 19.516C15.7777 19.5609 15.7712 19.6064 15.7712 19.6513C15.7712 19.8538 15.9058 20.0412 16.1144 20.1018C16.7851 20.2977 17.5112 20.6767 18.2834 21.2291C18.3194 21.2843 18.3658 21.334 18.4257 21.3722C18.7268 21.5657 19.4858 22.4528 20.0303 26.4878C20.0801 26.8511 20.1231 27.2119 20.1618 27.5618C19.7418 28.227 19.023 29.4998 18.8222 30.695C18.7959 30.8478 18.7846 30.9928 18.7846 31.1329Z" fill="#3A383B"/>
<path d="M43.889 40.0774C44.2558 39.9111 44.9096 39.921 45.4706 39.9871C45.1589 40.4497 44.7426 40.9443 44.3758 41.1104C44.0059 41.2783 43.5005 41.0834 43.1671 40.8967C43.2766 40.6318 43.4955 40.2557 43.889 40.0774ZM44.7791 41.9655C45.7793 41.5119 46.5766 40.0226 46.6644 39.8544C46.7306 39.7256 46.7343 39.5735 46.6725 39.443C46.6106 39.3113 46.4912 39.2156 46.3471 39.1819C46.1597 39.1382 44.4865 38.7691 43.4863 39.2227C42.6871 39.5846 42.3364 40.3453 42.2021 40.746C42.0184 40.7622 41.7395 40.7654 41.3232 40.7217C40.7708 40.6643 40.2326 40.5494 39.9654 40.4682C39.713 40.3903 39.4427 40.5288 39.3636 40.7771C39.3493 40.824 39.3425 40.8709 39.3425 40.918C39.3425 41.1184 39.4737 41.3039 39.679 41.3669C39.997 41.4643 41.5935 41.8404 42.5689 41.6421C42.6995 41.7212 42.8714 41.8146 43.0712 41.8984C43.7021 42.1623 44.2929 42.1851 44.7791 41.9655Z" fill="#3A383B"/>
<path d="M19.2173 17.4011C19.2455 16.688 19.4565 15.1477 20.6573 13.8931C21.5688 12.9423 23.0932 12.5997 23.9014 12.4808C23.8055 13.3298 23.4633 15.0313 22.2294 16.2902C21.2397 17.3005 19.882 17.4139 19.2173 17.4011ZM18.2623 17.8784C18.281 18.0936 18.4465 18.2689 18.664 18.3029C18.7672 18.3198 21.2148 18.6849 22.9219 16.9433C24.8641 14.961 24.8981 12.1449 24.8981 11.955V11.9496C24.8976 11.8204 24.8438 11.6985 24.7483 11.61C24.6534 11.5215 24.5255 11.4748 24.3948 11.4814C24.2774 11.4863 21.5026 11.6355 19.9576 13.2485C18.4097 14.8658 18.252 16.8445 18.252 17.5849C18.252 17.7541 18.2604 17.8584 18.2623 17.8784Z" fill="#3A383B"/>
<path d="M51.4141 42.818C52.3005 40.0274 52.431 37.1631 52.4378 36.9822C52.4502 36.674 52.2052 36.4146 51.8916 36.4023C51.5774 36.39 51.3126 36.6297 51.299 36.9376C51.2972 36.9864 51.1642 39.8877 50.2926 42.5869C49.5355 41.5939 48.4976 39.8138 48.9163 37.9095C49.4285 35.5855 52.0178 33.1768 53.1597 32.2083C53.7937 33.5527 55.1391 36.7938 54.6275 39.118C54.2094 41.0183 52.5219 42.2183 51.4141 42.818ZM49.3079 46.7447C49.9419 46.0753 50.4479 45.2278 50.8531 44.313C51.3683 44.1223 55.0116 42.6667 55.7415 39.3537C56.4869 35.9669 53.9657 31.2611 53.858 31.0622C53.7795 30.9167 53.6391 30.813 53.4745 30.7791C53.3112 30.7433 53.1399 30.7815 53.0069 30.8821C52.825 31.0198 48.5489 34.2877 47.8029 37.6746C47.5345 38.8959 47.7145 40.2148 48.3238 41.5297C48.4413 41.7836 48.5749 42.0366 48.7234 42.2891C49.1174 42.9545 49.5399 43.4794 49.8349 43.8113C49.4743 44.6411 49.0271 45.3993 48.4722 45.9846C48.312 46.1547 48.2792 46.397 48.3714 46.596C48.4023 46.6611 48.4456 46.7215 48.5031 46.7736C48.7339 46.9833 49.0939 46.97 49.3079 46.7447Z" fill="#3A383B"/>
<path d="M33.3301 24.4678C32.9725 23.9948 33.0294 23.3351 33.1086 22.9451C33.5125 22.9852 34.1744 23.1234 34.5307 23.5946C34.8777 24.053 35.0342 24.9166 35.0967 25.5709C34.475 25.3228 33.6771 24.9256 33.3301 24.4678ZM36.0919 26.2543C36.0919 26.2324 36.0926 25.7115 36.0029 25.0682C35.8785 24.1676 35.6429 23.483 35.3027 23.0337C34.4571 21.9161 32.7882 21.9858 32.7171 21.9895C32.5235 21.9992 32.3558 22.1217 32.2903 22.3005C32.2835 22.3169 32.143 22.7062 32.1016 23.2186C32.0936 23.3144 32.0898 23.4078 32.0898 23.5006C32.0898 24.0961 32.2494 24.62 32.5587 25.0287C33.3344 26.0523 35.2575 26.6405 35.4746 26.7042C35.6187 26.7467 35.7765 26.72 35.8983 26.6308C36.0196 26.5429 36.0913 26.4028 36.0919 26.2543Z" fill="#3A383B"/>
<path d="M46.4607 43.9842C46.7576 44.3765 46.898 45.1071 46.958 45.6848C46.4112 45.4614 45.7407 45.1186 45.4419 44.7245C45.1388 44.3232 45.1753 43.7661 45.2415 43.4165C45.6015 43.456 46.1576 43.5837 46.4607 43.9842ZM44.4213 42.7688C44.4064 42.8067 44.2846 43.1507 44.2468 43.614C44.2394 43.7021 44.2363 43.7886 44.2363 43.8736C44.2363 44.423 44.3848 44.9074 44.6706 45.2861C45.3825 46.226 47.1411 46.7633 47.3397 46.822C47.485 46.8644 47.6421 46.8374 47.7627 46.7491C47.8852 46.6602 47.957 46.5209 47.9576 46.3729C47.9582 46.1706 47.9434 44.364 47.232 43.4233C46.9017 42.9865 46.3796 42.6812 45.7227 42.5403C45.26 42.4408 44.8889 42.4559 44.8481 42.4583C44.6551 42.468 44.4862 42.5905 44.4213 42.7688Z" fill="#3A383B"/>
<path d="M33.3609 57.9946C33.5879 57.6599 33.9955 57.2081 34.4737 57.1695C34.9382 57.1316 35.6626 57.4439 36.2273 57.7626C35.7232 58.168 35.0607 58.5924 34.5968 58.6299C34.118 58.6685 33.6405 58.2878 33.3609 57.9946ZM34.676 59.5684C35.8543 59.4731 37.2077 58.1789 37.3574 58.032C37.457 57.9341 37.5084 57.7982 37.4972 57.6599C37.4848 57.522 37.4125 57.3962 37.2968 57.3157C37.1248 57.1946 35.5729 56.1355 34.3945 56.2311C33.8421 56.2761 33.3089 56.5745 32.8531 57.0954C32.532 57.4633 32.3539 57.8221 32.3458 57.8368C32.3143 57.9017 32.2988 57.972 32.2988 58.0417C32.2988 58.1369 32.3279 58.2324 32.3867 58.3127C32.3959 58.3264 32.6316 58.6524 33.0102 58.9622C33.5471 59.4035 34.123 59.6129 34.676 59.5684Z" fill="#3A383B"/>
<path d="M30.7972 46.0374C30.9976 45.7515 31.3445 45.3784 31.7422 45.3464C32.1344 45.314 32.7418 45.5691 33.2335 45.8403C32.7931 46.1874 32.2364 46.5361 31.8449 46.5683C31.4471 46.6005 31.0438 46.2907 30.7972 46.0374ZM34.5084 45.7373C34.4973 45.5994 34.4243 45.4737 34.3092 45.3934C34.1515 45.2832 32.7418 44.3203 31.663 44.408C31.1533 44.4491 30.6617 44.724 30.2425 45.2027C29.9547 45.5324 29.7969 45.846 29.779 45.8804C29.7471 45.9455 29.7319 46.0152 29.7319 46.085C29.7319 46.1805 29.7616 46.275 29.8201 46.3563C29.8423 46.3873 30.0501 46.6711 30.3898 46.9501C30.883 47.3554 31.4131 47.5472 31.9241 47.5061C33.0016 47.4191 34.2331 46.2428 34.3692 46.1096C34.4694 46.0116 34.5202 45.8759 34.5084 45.7373Z" fill="#3A383B"/>
<path d="M52.7108 47.287C52.451 47.6852 51.971 48.1495 51.3209 48.6294C51.3029 48.6422 51.285 48.6559 51.267 48.6694C51.4019 48.0322 51.6196 47.2877 51.9351 46.8026C52.2629 46.2997 52.746 46.0008 53.1116 45.835C53.1141 46.2279 53.0405 46.7794 52.7108 47.287ZM51.126 46.2964C50.3615 47.4718 50.1505 49.5312 50.1413 49.6188C50.14 49.6335 50.1394 49.6491 50.1394 49.664C50.1394 49.8237 50.2223 49.9736 50.3615 50.0605C50.513 50.1561 50.7072 50.1593 50.8631 50.0698C50.9404 50.0253 52.7553 48.9684 53.5198 47.7935C54.3314 46.5468 54.0104 45.144 53.9955 45.0854C53.9367 44.836 53.685 44.6787 53.4301 44.7309C53.3695 44.7439 51.9369 45.05 51.126 46.2964Z" fill="#3A383B"/>
<path d="M44.285 28.2813C44.5126 28.157 44.7712 28.1443 44.9833 28.1661C44.8912 28.3559 44.7446 28.5651 44.5175 28.69C44.2893 28.815 43.9472 28.8823 43.6157 28.9168C43.8192 28.6579 44.058 28.4056 44.285 28.2813ZM44.9864 29.5117C45.887 29.0175 46.0658 27.9472 46.0732 27.9023C46.1066 27.6883 45.9879 27.4797 45.7837 27.396C45.7411 27.3778 44.7167 26.966 43.8167 27.4597C43.461 27.6543 43.0942 28.0084 42.7256 28.5118C42.4633 28.8701 42.2932 29.177 42.2864 29.1897C42.248 29.2594 42.2295 29.3359 42.2295 29.4129C42.2295 29.4917 42.2487 29.5711 42.2901 29.6427C42.3705 29.7828 42.5184 29.8737 42.6823 29.8828C42.6971 29.8834 43.0516 29.9028 43.5 29.8713C44.1316 29.8264 44.6314 29.7058 44.9864 29.5117Z" fill="#3A383B"/>
<path d="M20.0867 45.2987C20.2423 45.5647 20.3366 46.0337 20.3489 46.6199C20.35 46.6849 20.3508 46.7484 20.3508 46.8092C19.8963 46.5529 19.3618 46.1896 19.1497 45.8283C18.9324 45.4578 19.0083 44.9888 19.0999 44.6823C19.4157 44.7588 19.8695 44.9298 20.0867 45.2987ZM18.3593 43.944C18.3414 43.9807 18.0505 44.5655 18.0505 45.2615C18.0505 45.5976 18.1189 45.9598 18.3178 46.2983C18.8704 47.2389 20.4243 47.9152 20.5999 47.9887C20.7391 48.0481 20.8983 48.0384 21.0298 47.9642C21.161 47.8901 21.2492 47.7603 21.2668 47.6125C21.289 47.4263 21.4712 45.7689 20.9194 44.8289C20.308 43.7902 18.881 43.6877 18.8206 43.6839C18.6275 43.6718 18.4453 43.7746 18.3593 43.944Z" fill="#3A383B"/>
<path d="M10.4731 29.4077C10.6002 29.2251 10.8766 29.0414 11.1678 28.8898C11.1289 29.2051 11.056 29.5277 10.9274 29.7121C10.8032 29.891 10.5732 29.9868 10.3682 30.0365C10.3405 29.8382 10.3446 29.592 10.4731 29.4077ZM11.7197 30.2445C11.9359 29.9346 12.0753 29.4804 12.1335 28.8934C12.1751 28.4829 12.1611 28.1494 12.1604 28.136C12.1548 27.9875 12.077 27.851 11.9524 27.7673C11.8274 27.683 11.6692 27.6618 11.5264 27.7097C11.5128 27.7152 11.1915 27.8225 10.8158 28.0087C10.2789 28.2749 9.89708 28.5666 9.68058 28.8758C9.46 29.1912 9.39233 29.5405 9.39233 29.8503C9.39233 30.2985 9.53417 30.6653 9.56052 30.7296C9.63345 30.9055 9.80621 31.0213 10.0003 31.0237C10.1196 31.0261 11.1803 31.0164 11.7197 30.2445Z" fill="#3A383B"/>
<path d="M16.0045 16.6018C16.0306 16.5175 16.0971 16.4162 16.1833 16.3131C16.1949 16.4465 16.1925 16.566 16.1661 16.6503C16.1418 16.7285 16.0833 16.797 16.0144 16.854C15.9896 16.7691 15.9803 16.68 16.0045 16.6018ZM17.0841 16.9268C17.174 16.64 17.1708 16.2652 17.0756 15.8134C17.0099 15.5036 16.9217 15.2616 16.9191 15.2513C16.8674 15.1118 16.7524 15.0045 16.6079 14.9602C16.4626 14.9166 16.3056 14.942 16.1826 15.03C16.1749 15.036 15.9632 15.1882 15.731 15.4084C15.3934 15.7297 15.1767 16.0384 15.0866 16.3252C15.0458 16.4544 15.0295 16.5799 15.0295 16.7024C15.0295 17.2676 15.3934 17.7248 15.4432 17.7842C15.5662 17.9316 15.7672 17.9922 15.9526 17.9383C16.0446 17.911 16.856 17.6551 17.0841 16.9268Z" fill="#3A383B"/>
<path d="M23.6212 36.6838C23.5936 36.4777 23.6028 36.2328 23.7268 36.0541C23.8539 35.873 24.1308 35.6877 24.4229 35.5359C24.3833 35.8573 24.3084 36.1773 24.1808 36.36C24.0559 36.5374 23.8261 36.634 23.6212 36.6838ZM25.4141 34.7833C25.4082 34.6346 25.3317 34.4981 25.206 34.4144C25.0811 34.3307 24.9226 34.3089 24.7803 34.3574C24.7665 34.3616 24.4451 34.4696 24.0699 34.6561C23.5325 34.9219 23.1501 35.2133 22.9345 35.5229C22.7137 35.8386 22.6465 36.1871 22.6465 36.4969C22.6465 36.9457 22.7881 37.3122 22.8142 37.3769C22.8872 37.5526 23.0601 37.6687 23.2537 37.6713C23.3728 37.6732 24.434 37.6635 24.9733 36.8918C25.1896 36.5819 25.329 36.1271 25.3873 35.5404C25.4288 35.1291 25.415 34.7971 25.4141 34.7833Z" fill="#3A383B"/>
<path d="M39.9153 31.1992C39.7909 31.3781 39.5608 31.4739 39.3555 31.5236C39.3276 31.3174 39.3369 31.0725 39.4612 30.8948C39.5881 30.7135 39.8652 30.5285 40.1559 30.3769C40.1175 30.6916 40.0433 31.0161 39.9153 31.1992ZM41.1493 29.6238C41.1425 29.4752 41.0658 29.3382 40.9408 29.2545C40.8153 29.1708 40.6575 29.1489 40.514 29.1969C40.5004 29.2017 40.1794 29.3096 39.8039 29.4952C39.2676 29.762 38.8847 30.0537 38.6689 30.363C38.4487 30.6783 38.3806 31.027 38.3806 31.3368C38.3806 31.7856 38.5229 32.1525 38.5489 32.2167C38.6212 32.3926 38.7951 32.509 38.988 32.5114C39.1074 32.5127 40.1689 32.503 40.7076 31.7316C40.9235 31.4217 41.0633 30.9675 41.1221 30.3806C41.1629 29.97 41.1499 29.6377 41.1493 29.6238Z" fill="#3A383B"/>
<path d="M32.2762 29.9237C32.1518 30.102 31.9223 30.1984 31.7164 30.2481C31.6891 30.042 31.6978 29.797 31.8221 29.6193C31.9496 29.4374 32.2267 29.253 32.518 29.1008C32.479 29.421 32.403 29.7418 32.2762 29.9237ZM33.3017 27.9784C33.1762 27.8953 33.0184 27.8735 32.8749 27.922C32.8619 27.9256 32.5403 28.0342 32.1648 28.2197C31.6285 28.4859 31.2463 28.7776 31.0299 29.0875C30.8096 29.4028 30.7419 29.7515 30.7419 30.0608C30.7419 30.5101 30.884 30.8764 30.9103 30.9406C30.9826 31.1171 31.1559 31.2335 31.3489 31.236C31.4683 31.2372 32.5298 31.2275 33.0685 30.4561C33.285 30.1469 33.4242 29.6921 33.4836 29.1045C33.5238 28.6945 33.5108 28.3622 33.5102 28.3477C33.504 28.1997 33.4267 28.0621 33.3017 27.9784Z" fill="#3A383B"/>
<path d="M53.1858 23.7159C53.2328 23.7838 53.2687 23.8881 53.2959 24.0094C53.192 23.9403 53.1072 23.8675 53.0602 23.7996C53.0169 23.7365 53.0002 23.6565 52.9965 23.5746C53.0738 23.608 53.1437 23.6541 53.1858 23.7159ZM52.1738 22.8445C52.1528 22.8954 52.0359 23.1883 52.0359 23.5504C52.0359 23.796 52.0897 24.0731 52.2641 24.3259C52.433 24.5728 52.7293 24.8032 53.1425 25.0112C53.4252 25.1543 53.6689 25.238 53.6794 25.2416C53.8229 25.2907 53.9806 25.2707 54.1056 25.1876C54.2318 25.1046 54.3103 24.9681 54.3178 24.8196C54.3178 24.8099 54.3301 24.5564 54.3011 24.2453C54.2596 23.7917 54.152 23.4358 53.9825 23.1902C53.5526 22.565 52.7095 22.5516 52.6149 22.5522C52.4213 22.5528 52.2468 22.6687 52.1738 22.8445Z" fill="#3A383B"/>
<path d="M20.5457 41.7565C20.7634 41.7866 20.9536 41.9458 21.0896 42.1057C20.9137 42.2204 20.6855 42.3208 20.4671 42.2905C20.2426 42.2589 19.9503 42.0926 19.6864 41.9072C19.9974 41.8004 20.3226 41.725 20.5457 41.7565ZM21.8826 42.6958C22.2059 42.7512 22.867 42.8895 23.6953 43.1889C23.9446 43.2787 24.2206 43.1536 24.3117 42.9101C24.3322 42.8561 24.3414 42.8014 24.3414 42.7471C24.3414 42.5553 24.2217 42.3757 24.0273 42.3054C23.1101 41.9742 22.384 41.8243 22.0232 41.763C21.8176 41.4479 21.3759 40.9222 20.6822 40.8244C20.3038 40.7709 19.8254 40.8495 19.2622 41.0575C18.8685 41.2032 18.5704 41.3617 18.5583 41.3681C18.4245 41.4396 18.3346 41.5678 18.3128 41.7146C18.2911 41.8615 18.3418 42.0102 18.4488 42.1154C18.4587 42.1251 18.6992 42.3594 19.0355 42.6074C19.5171 42.9625 19.9527 43.169 20.3314 43.2226C21.0212 43.3192 21.5936 42.9405 21.8826 42.6958Z" fill="#3A383B"/>
<path d="M25.0169 57.4389C26.2502 57.428 27.2075 57.2108 27.6707 57.1044C27.7463 57.0879 27.8319 57.0679 27.8655 57.0627C28.1162 57.0464 28.3134 56.8417 28.3134 56.593V56.588C28.3108 56.3275 28.0933 56.1188 27.8277 56.1221C27.7376 56.1235 27.6482 56.1437 27.4533 56.188C26.9705 56.2979 25.9533 56.5293 24.6733 56.4966C25.1805 55.9902 25.9743 55.3994 26.9828 55.2918C28.3035 55.1514 30.1314 55.7969 31.1348 56.2086C30.2459 56.8219 28.6032 57.8368 27.2805 57.9773C26.4085 58.07 25.6101 57.7725 25.0169 57.4389ZM32.3794 56.4746C32.5068 56.3739 32.573 56.2171 32.5563 56.0572C32.5377 55.8976 32.4387 55.7583 32.2915 55.6867C32.161 55.6225 29.0591 54.1241 26.8789 54.356C25.1668 54.5381 23.9912 55.7609 23.4923 56.3903C22.7053 56.2671 21.8615 56.0276 21.0069 55.6036C20.7708 55.4863 20.4819 55.5792 20.3623 55.8111C20.3265 55.8793 20.3103 55.9513 20.3103 56.0231C20.3103 56.1951 20.4062 56.3606 20.5732 56.4436C21.4196 56.8638 22.3195 57.1516 23.2618 57.3055C23.2697 57.3157 23.2782 57.3254 23.2874 57.3344C23.3604 57.4093 25.1107 59.1563 27.3842 58.9139C29.5644 58.6816 32.2655 56.5649 32.3794 56.4746Z" fill="#3A383B"/>
<path d="M54.3006 27.7852C53.7309 28.2163 52.8613 28.77 52.2408 28.7809C51.6415 28.7918 51.081 28.2351 50.7841 27.8507C51.034 27.4996 51.5672 26.8756 52.2056 26.8641C52.826 26.8531 53.7149 27.3746 54.3006 27.7852ZM45.8554 25.7525C45.7769 25.8411 45.7385 25.9508 45.7385 26.0606C45.7385 26.1922 45.7954 26.3231 45.9049 26.4165C47.7674 27.9992 49.3225 28.2788 49.9497 28.3231C50.0616 28.4759 50.2305 28.6875 50.447 28.8979C51.0136 29.4479 51.6402 29.7329 52.2582 29.7226C53.5899 29.6984 55.2124 28.2806 55.3918 28.1193C55.4938 28.0283 55.5508 27.8986 55.5489 27.7627C55.5464 27.6275 55.4846 27.4996 55.3788 27.4122C55.1926 27.2576 53.5188 25.8993 52.1876 25.9229C51.5691 25.9338 50.9536 26.2419 50.408 26.8119C50.2101 27.0187 50.0555 27.2243 49.9497 27.3789C49.7703 27.3613 49.4944 27.3189 49.1425 27.2115C48.5468 27.029 47.6103 26.6203 46.5334 25.7046C46.3323 25.5348 46.0299 25.5561 45.8554 25.7525Z" fill="#3A383B"/>
<path d="M13.8832 19.3121C13.6362 20.4273 13.1097 22.3872 12.288 23.4029C11.6479 24.1942 10.9027 24.7473 10.2747 25.116C11.1572 23.7316 11.9569 22.6801 11.9731 22.6588C12.1321 22.4514 12.0894 22.1567 11.8764 21.9997C11.6643 21.8438 11.3633 21.8863 11.2045 22.0937C11.1748 22.1325 10.5488 22.9541 9.78181 24.1184C9.95872 23.2143 10.2472 22.2077 10.7123 21.5152C11.3995 20.4928 12.938 19.7154 13.8832 19.3121ZM8.08658 29.5469C8.32145 28.647 8.8257 27.5901 9.39472 26.5768C10.0046 26.3603 11.7044 25.6399 13.0409 23.9881C14.378 22.3344 14.9719 18.7821 14.9963 18.6323C15.0234 18.4692 14.9615 18.3049 14.8327 18.1981C14.7044 18.092 14.5285 18.0593 14.3688 18.112C14.2367 18.1557 11.1156 19.203 9.9101 20.9967C8.79867 22.6516 8.58526 25.6272 8.557 26.1153C7.85604 27.3603 7.38637 28.4324 7.15608 29.3135C7.14569 29.3529 7.14111 29.3923 7.14111 29.4305C7.14111 29.6409 7.28487 29.8319 7.5026 29.8871C7.75943 29.9508 8.02083 29.7986 8.08658 29.5469Z" fill="#3A383B"/>
<path d="M54.3835 30.5979C54.3835 31.0139 54.7287 31.3522 55.153 31.3522C55.5767 31.3522 55.9225 31.0139 55.9225 30.5979C55.9225 30.1825 55.5767 29.8441 55.153 29.8441C54.7287 29.8441 54.3835 30.1825 54.3835 30.5979Z" fill="#3A383B"/>
<path d="M41.4508 17.2873C41.3982 17.2873 41.3556 17.2454 41.3556 17.1939C41.3556 17.1423 41.3982 17.1011 41.4508 17.1011C41.5034 17.1011 41.5461 17.1423 41.5461 17.1939C41.5461 17.2454 41.5034 17.2873 41.4508 17.2873ZM41.4508 16.3455C40.9733 16.3455 40.5854 16.7263 40.5854 17.1939C40.5854 17.662 40.9733 18.0422 41.4508 18.0422C41.929 18.0422 42.3162 17.662 42.3162 17.1939C42.3162 16.7263 41.929 16.3455 41.4508 16.3455Z" fill="#3A383B"/>
<path d="M26.2777 43.2468C26.622 43.2468 26.9023 42.9718 26.9023 42.6342C26.9023 42.297 26.622 42.0224 26.2777 42.0224C25.9331 42.0224 25.6533 42.297 25.6533 42.6342C25.6533 42.9718 25.9331 43.2468 26.2777 43.2468Z" fill="#3A383B"/>
<path d="M27.5502 11.0076C27.5502 10.6698 27.2697 10.3951 26.9258 10.3951C26.5808 10.3951 26.301 10.6698 26.301 11.0076C26.301 11.3448 26.5808 11.6201 26.9258 11.6201C27.2697 11.6201 27.5502 11.3448 27.5502 11.0076Z" fill="#3A383B"/>
<path d="M24.5047 21.1383C24.1614 21.1383 23.8806 21.4137 23.8806 21.7514C23.8806 22.0886 24.1614 22.3633 24.5047 22.3633C24.849 22.3633 25.1298 22.0886 25.1298 21.7514C25.1298 21.4137 24.849 21.1383 24.5047 21.1383Z" fill="#3A383B"/>
<path d="M14.1213 51.4991C12.4306 50.2073 11.2447 48.5363 10.704 47.2691C12.0155 47.108 13.7895 47.1421 15.6136 47.9313C17.8527 48.9007 19.7431 50.8035 21.2381 53.5929C18.0392 53.8947 15.6208 52.6447 14.1213 51.4991ZM15.9395 44.9972C13.141 44.4941 11.4602 43.1072 10.9313 40.8641C11.6487 40.9146 12.5376 41.1086 13.3932 41.6463C14.4885 42.3354 15.3427 43.4608 15.9395 44.9972ZM22.0475 54.4399C22.0475 54.4399 22.048 54.4393 22.049 54.4393C22.0514 54.4393 22.0548 54.4378 22.0575 54.4378C22.07 54.4357 22.0823 54.4333 22.0954 54.4302C22.1021 54.4281 22.1099 54.4255 22.1171 54.4229C22.1251 54.421 22.1321 54.4187 22.1396 54.4161C22.1519 54.4113 22.1632 54.407 22.1744 54.4016C22.1775 54.4004 22.1799 54.3993 22.1836 54.398C22.1836 54.398 22.1836 54.398 22.1843 54.398C22.1966 54.3914 22.2092 54.3843 22.221 54.3772C22.2229 54.3767 22.2247 54.3753 22.2261 54.3748C22.236 54.3691 22.2447 54.3623 22.2539 54.3561C22.3082 54.3173 22.353 54.2692 22.3865 54.2145C22.3865 54.2138 22.3873 54.213 22.3873 54.2124C22.393 54.2033 22.3977 54.1944 22.4025 54.1853C22.4042 54.1806 22.4068 54.1763 22.4088 54.1719C22.4114 54.1659 22.4141 54.1605 22.4167 54.1545C22.4201 54.146 22.424 54.1377 22.4274 54.1292C22.4279 54.1273 22.4279 54.1254 22.4286 54.1235C22.4438 54.079 22.4522 54.0321 22.453 53.983C22.4537 53.9714 22.4537 53.9598 22.453 53.9482C22.453 53.9463 22.4522 53.9437 22.4522 53.9418C22.4511 53.9283 22.4498 53.9148 22.4477 53.9011V53.8999C22.4472 53.8968 22.4457 53.893 22.445 53.8897C22.4431 53.8779 22.4402 53.8665 22.4378 53.8556C22.4351 53.8471 22.4324 53.8388 22.43 53.8309C22.4279 53.8246 22.4261 53.8182 22.424 53.8118C22.4186 53.7987 22.4133 53.7864 22.4076 53.7744C22.4063 53.7725 22.4056 53.7705 22.4052 53.7691C22.4052 53.7687 22.4042 53.7679 22.4042 53.7679C22.4037 53.7665 22.4029 53.7649 22.4025 53.7627C20.7604 50.4501 18.6065 48.1978 16.0011 47.0701C13.8395 46.134 11.7507 46.1567 10.2859 46.3751C8.86542 44.1587 7.35743 40.6216 7.12887 35.425C7.51399 36.5241 7.95255 37.4544 8.3384 38.1711C9.03119 39.4569 9.66905 40.2935 9.89569 40.5768C10.4063 43.7062 12.7179 45.5955 16.5926 46.0446C16.5931 46.0454 16.5938 46.0454 16.5945 46.0454C16.6071 46.0465 16.6194 46.047 16.632 46.048C16.6358 46.048 16.6392 46.048 16.6431 46.048C16.6535 46.0484 16.6634 46.048 16.674 46.047C16.6798 46.0465 16.6859 46.0465 16.6916 46.0465C16.6982 46.0458 16.7047 46.0446 16.7108 46.0432C16.7207 46.0427 16.7313 46.0411 16.7395 46.0394C16.7443 46.0387 16.7482 46.0373 16.7521 46.0368C16.7639 46.0342 16.7758 46.0316 16.7876 46.0278C16.7881 46.0278 16.7891 46.0278 16.7897 46.0273C16.7929 46.026 16.7968 46.0247 16.8009 46.0233C16.8113 46.02 16.8212 46.0162 16.8316 46.0124C16.8384 46.0098 16.8449 46.0067 16.8507 46.0041C16.8587 46.0001 16.8659 45.9968 16.8731 45.993C16.8809 45.9892 16.8888 45.9847 16.8968 45.9802C16.9011 45.9769 16.9072 45.9736 16.9125 45.9703C16.9209 45.9653 16.9282 45.9596 16.9362 45.9544L16.9497 45.9435C16.9572 45.9376 16.9645 45.9319 16.9717 45.9252C16.9761 45.9215 16.9809 45.9172 16.9848 45.9132C16.9913 45.9075 16.9971 45.9009 17.0031 45.8945C17.008 45.8899 17.0123 45.8843 17.0169 45.8788C17.0222 45.8731 17.0268 45.8674 17.0317 45.8616C17.036 45.8551 17.0406 45.8488 17.0456 45.8416C17.0493 45.8366 17.0531 45.8312 17.0565 45.8255C17.0609 45.8184 17.0654 45.8109 17.0703 45.803C17.0727 45.7971 17.0754 45.7919 17.0787 45.7862C17.0829 45.7786 17.0865 45.7701 17.0906 45.7616L17.0978 45.7431C17.1005 45.7353 17.1038 45.7275 17.1065 45.7199C17.109 45.7116 17.1116 45.703 17.1136 45.6948C17.1155 45.6884 17.1167 45.6824 17.1181 45.6761C17.1201 45.6651 17.1222 45.6536 17.1242 45.642C17.1242 45.6389 17.1254 45.6355 17.1254 45.6329V45.6311C17.1275 45.6188 17.128 45.6071 17.128 45.595C17.1288 45.5913 17.1288 45.5865 17.1288 45.5827C17.1288 45.5742 17.1288 45.5659 17.128 45.5569C17.128 45.5498 17.1275 45.5415 17.1266 45.5344C17.1266 45.5304 17.1261 45.5266 17.1254 45.5231C17.1242 45.5105 17.1222 45.4984 17.1193 45.4866C17.1193 45.4853 17.1193 45.4847 17.1189 45.4835C17.1167 45.4685 17.1128 45.4546 17.1082 45.4403V45.4397C15.6363 40.7282 12.4878 39.9271 10.5829 39.9082C10.3326 39.5869 9.77149 38.8197 9.17495 37.7069C8.44016 36.3358 7.49877 34.1431 7.18924 31.481C7.18924 31.4804 7.18881 31.4798 7.18881 31.478C7.18732 31.4658 7.18442 31.4543 7.18275 31.4422L7.18058 31.4319C7.17792 31.4204 7.17477 31.4088 7.17069 31.3967C7.17019 31.3937 7.16945 31.39 7.16821 31.387C7.16437 31.3761 7.16029 31.3658 7.15565 31.3555C7.15373 31.3512 7.15299 31.347 7.15108 31.3433C7.14699 31.3342 7.14192 31.3252 7.1366 31.3161C7.13468 31.3112 7.13202 31.3064 7.12936 31.3015C7.12547 31.2936 7.11965 31.2857 7.11433 31.2773L7.10443 31.2633C7.09843 31.2554 7.09287 31.2481 7.08606 31.2397C7.08297 31.2354 7.07932 31.2318 7.07617 31.2281C7.06967 31.219 7.06095 31.2112 7.05248 31.2033C7.04982 31.2008 7.04741 31.1984 7.04475 31.1954C7.03609 31.1869 7.02569 31.1784 7.0158 31.1699C7.01456 31.1687 7.01239 31.1675 7.01116 31.1663C7.00008 31.1578 6.98944 31.1505 6.97831 31.1426C6.97639 31.1414 6.97491 31.1408 6.97324 31.1396C6.96235 31.1335 6.9527 31.1275 6.94138 31.1214C6.93823 31.1196 6.93557 31.1184 6.93291 31.1166C6.92369 31.1117 6.91454 31.1081 6.90532 31.1044C6.90006 31.1014 6.89543 31.0996 6.89011 31.0978C6.88237 31.0947 6.87514 31.0917 6.8679 31.0893C6.86017 31.0874 6.85194 31.0838 6.84495 31.082C6.83889 31.0802 6.83314 31.0796 6.82708 31.0777C6.81718 31.0759 6.80746 31.0729 6.79757 31.0711C6.79299 31.0705 6.78792 31.0699 6.78235 31.0693C6.77128 31.068 6.76089 31.0662 6.74951 31.0656C6.74827 31.0656 6.74709 31.065 6.74561 31.065C6.74103 31.065 6.73596 31.065 6.73064 31.065C6.72074 31.0644 6.71134 31.0644 6.70169 31.0644C6.69247 31.0644 6.68332 31.065 6.67336 31.0662C6.66829 31.0662 6.66278 31.0662 6.65839 31.0668C6.65697 31.0668 6.65573 31.0674 6.65431 31.0674C6.64584 31.0687 6.63643 31.0699 6.6287 31.0717C6.62146 31.0723 6.61491 31.0735 6.60841 31.0753C6.60043 31.0771 6.5927 31.079 6.58472 31.0808C6.57816 31.0826 6.57093 31.085 6.56295 31.0874C6.55645 31.0893 6.55064 31.0917 6.5439 31.0947C6.53542 31.0971 6.52769 31.1002 6.52045 31.1032C6.51439 31.1056 6.50907 31.1087 6.50326 31.1111C6.49534 31.1153 6.48687 31.119 6.47913 31.1232C6.47357 31.1263 6.46899 31.1287 6.46441 31.1317C6.45594 31.1372 6.44796 31.1414 6.44097 31.1469C6.43614 31.1499 6.43175 31.1529 6.42692 31.1566C6.41919 31.162 6.41245 31.1675 6.4054 31.173C6.3999 31.1772 6.3955 31.1808 6.39142 31.1845C6.38486 31.1905 6.37886 31.196 6.37231 31.2027C6.36798 31.2075 6.3634 31.2112 6.3595 31.216C6.35394 31.2221 6.34819 31.2281 6.34287 31.2342C6.33847 31.2397 6.33365 31.2445 6.33031 31.2494C6.32592 31.256 6.32134 31.2621 6.31651 31.2682C6.31262 31.2742 6.30804 31.2797 6.3047 31.2863C6.3008 31.2924 6.29697 31.2991 6.29282 31.3057C6.28967 31.3124 6.28558 31.3179 6.28243 31.3246C6.27785 31.333 6.27445 31.3415 6.2713 31.35C6.2687 31.3549 6.26672 31.3591 6.2648 31.3646C6.25874 31.3785 6.25367 31.3925 6.25033 31.407C6.24958 31.4082 6.24958 31.4094 6.24909 31.4107C6.24569 31.424 6.2426 31.4379 6.23994 31.4513C6.23919 31.4543 6.2382 31.4586 6.2382 31.4616C6.23653 31.4731 6.23437 31.4852 6.23387 31.4974C6.23313 31.4986 6.23313 31.5004 6.23313 31.5016C6.16818 32.39 6.13843 33.2414 6.13843 34.0576C6.13843 40.4089 7.96269 44.6009 9.61518 47.0938C10.0521 48.4331 11.3261 50.5569 13.5312 52.242C15.2811 53.5792 18.1774 55.0452 22.0429 54.4404C22.0442 54.4404 22.0463 54.4399 22.0475 54.4399Z" fill="#3A383B"/>
<path d="M27.8117 46.6637C27.9281 47.0733 28.034 47.7138 27.7849 48.2328C27.5338 48.7546 26.964 49.0805 26.5678 49.2532C26.453 48.8434 26.3465 48.2025 26.5954 47.6832C26.8464 47.1624 27.4161 46.8364 27.8117 46.6637ZM28.496 50.1738C29.0278 50.4196 29.3605 50.9784 29.536 51.3662C29.1179 51.4801 28.4648 51.5836 27.9352 51.3396C27.4038 51.0935 27.0706 50.5352 26.8952 50.1472C27.313 50.0335 27.9661 49.9295 28.496 50.1738ZM24.7392 53.056C24.6235 52.6472 24.5174 52.0062 24.7667 51.4872C25.0178 50.9661 25.5877 50.6394 25.9831 50.4675C26.0995 50.877 26.2054 51.5175 25.9555 52.0367C25.7052 52.5581 25.1347 52.8845 24.7392 53.056ZM24.0551 49.5465C23.5231 49.3004 23.1904 48.7411 23.0147 48.3533C23.4318 48.2394 24.0837 48.135 24.6164 48.3811C25.1483 48.6269 25.4805 49.1857 25.6567 49.5735C25.2386 49.6868 24.5848 49.7909 24.0551 49.5465ZM21.9325 48.1885C21.9501 48.2546 22.3869 49.8168 23.6461 50.3978C23.8352 50.4854 24.031 50.5447 24.2262 50.5821C24.0999 50.7328 23.9875 50.9002 23.8983 51.0857C23.7191 51.4595 23.655 51.8563 23.655 52.2284C23.655 53.0852 23.9904 53.8162 24.0097 53.8595C24.1073 54.0682 24.3444 54.1776 24.5705 54.1185C24.6382 54.1009 26.2315 53.6721 26.8242 52.4378C26.9141 52.2523 26.974 52.0612 27.0122 51.8698C27.1658 51.9934 27.3359 52.1036 27.5258 52.1912C28.7842 52.773 30.2915 52.1099 30.3553 52.0811C30.5681 51.9856 30.68 51.7537 30.6194 51.5315C30.6015 51.4659 30.1642 49.9037 28.905 49.3222C28.7159 49.2346 28.5208 49.1758 28.3256 49.1379C28.4517 48.987 28.5639 48.8202 28.6528 48.635C29.247 47.4006 28.5699 45.923 28.5412 45.8605C28.4438 45.6518 28.2072 45.5421 27.9806 45.6016C27.9129 45.6196 26.3201 46.0479 25.7269 47.282C25.6375 47.4682 25.5776 47.6588 25.5389 47.8502C25.386 47.7266 25.2149 47.6164 25.0258 47.5295C23.7669 46.9479 22.2594 47.6107 22.1959 47.6389C22.0216 47.7176 21.9153 47.8862 21.9153 48.0672C21.9153 48.1073 21.9204 48.1484 21.9325 48.1885Z" fill="#3A383B"/>
<path d="M13.3461 32.621C14.7499 32.3427 15.945 32.5361 16.8996 33.1971C17.9444 33.9199 19.3925 37.2038 20.1036 39.0126C18.1271 38.9619 14.4861 38.7227 13.4403 38.0014C12.4769 37.3365 11.8869 36.2964 11.6885 34.9099C11.6213 34.4444 11.6117 34.0139 11.6226 33.6749C12.5965 33.9381 13.5236 34.5468 14.236 35.1219C15.5204 36.1604 16.4207 37.3339 16.4292 37.3457C16.5882 37.5544 16.8886 37.5973 17.1014 37.4414C17.3136 37.2863 17.3571 36.9911 17.1985 36.7831C17.1604 36.7317 16.2315 35.518 14.8613 34.4074C14.0441 33.7447 13.2371 33.2571 12.4644 32.9575C12.4158 32.9387 12.3672 32.9212 12.3187 32.9036C12.6101 32.8011 12.9607 32.6974 13.3461 32.621ZM10.658 33.9072C10.658 34.2316 10.6773 34.6084 10.7329 35.0111C10.9624 36.6571 11.7076 37.9568 12.8875 38.7712C13.6203 39.2767 15.1394 39.6181 17.5303 39.8159C19.2427 39.9575 20.7823 39.9653 20.798 39.9653C20.9544 39.966 21.1018 39.8919 21.1916 39.7663C21.2823 39.6406 21.3045 39.4802 21.2516 39.3352C21.2303 39.2775 20.7236 37.9014 20.014 36.3665C19.0233 34.2225 18.1856 32.9345 17.4537 32.4282C16.284 31.618 14.7871 31.3676 13.1267 31.7041C11.9018 31.9515 11.0163 32.4294 10.9793 32.4494C10.9119 32.487 10.8554 32.5385 10.8139 32.6004C10.4033 32.587 10.0063 32.6343 9.62381 32.7423C9.41362 32.8023 9.27686 32.9903 9.27686 33.1946C9.27686 33.2377 9.28292 33.2814 9.29591 33.3256C9.3689 33.5755 9.63568 33.7198 9.88985 33.6476C10.1462 33.5749 10.406 33.5427 10.6662 33.5427C10.6606 33.6549 10.658 33.7762 10.658 33.9072Z" fill="#3A383B"/>
<path d="M27.5655 39.7913C27.7808 39.64 27.8305 39.3465 27.6771 39.1345C27.5831 39.0061 27.4357 38.9379 27.2861 38.9371C27.1895 38.9371 27.0916 38.9661 27.0068 39.0255C26.8135 39.1608 26.5441 39.1169 26.4057 38.9277C26.3392 38.8362 26.3129 38.7242 26.3312 38.6126C26.3504 38.5018 26.4122 38.4047 26.5062 38.3388C26.6995 38.2035 26.9687 38.2474 27.1066 38.4366C27.2001 38.5648 27.348 38.6339 27.4971 38.6339C27.5942 38.6339 27.6916 38.6048 27.7764 38.5456C27.9917 38.3942 28.0422 38.1005 27.8878 37.8885C27.8211 37.7971 27.7945 37.6848 27.8129 37.5744C27.8322 37.4629 27.8939 37.3657 27.9878 37.2999C28.0813 37.2343 28.1954 37.2084 28.3085 37.2269C28.422 37.2452 28.5213 37.3062 28.5885 37.3977C28.6554 37.4891 28.6818 37.6014 28.6627 37.7128C28.6444 37.8236 28.5825 37.9214 28.4885 37.9863C28.273 38.1377 28.2232 38.4321 28.3768 38.6434C28.4708 38.7718 28.6187 38.84 28.7678 38.8405C28.8649 38.8405 28.962 38.8119 29.0469 38.7524C29.2402 38.6169 29.5096 38.6609 29.6478 38.8502C29.7862 39.0395 29.7416 39.3038 29.5483 39.4398C29.4545 39.5047 29.3402 39.5312 29.2271 39.5125C29.1135 39.4936 29.0143 39.4334 28.9478 39.3417C28.8538 39.2129 28.706 39.1447 28.5568 39.1447C28.4597 39.1447 28.3624 39.1731 28.2775 39.2323C28.062 39.3836 28.0122 39.6774 28.1659 39.8891C28.3046 40.0789 28.2599 40.3428 28.0666 40.478C27.9726 40.5439 27.8585 40.5695 27.7448 40.551C27.6324 40.5328 27.5326 40.4723 27.4662 40.3802C27.3985 40.288 27.3722 40.1765 27.391 40.0652C27.4103 39.9543 27.4715 39.8569 27.5655 39.7913ZM26.684 40.9276C26.9003 41.2239 27.2217 41.4203 27.5877 41.4798C27.9545 41.5397 28.3222 41.4558 28.6245 41.2438C28.8999 41.0512 29.0903 40.7732 29.1677 40.4536C29.5019 40.4851 29.8317 40.3982 30.1069 40.2056C30.7305 39.7676 30.875 38.9146 30.429 38.3028C30.2269 38.0249 29.9365 37.8447 29.6232 37.7708C29.6555 37.4434 29.5669 37.1201 29.3697 36.85C29.1534 36.5539 28.8328 36.3576 28.4663 36.2981C28.099 36.2382 27.731 36.322 27.4287 36.5338C27.1533 36.7274 26.9634 37.0055 26.8853 37.325C26.5639 37.2954 26.2302 37.3745 25.9471 37.573C25.6448 37.785 25.445 38.0993 25.3845 38.4584C25.3712 38.534 25.3647 38.61 25.3647 38.6846C25.3647 38.967 25.4541 39.2413 25.625 39.4751C25.827 39.7529 26.1164 39.933 26.4305 40.0071C26.3996 40.3345 26.4871 40.6578 26.684 40.9276Z" fill="#3A383B"/>
<path d="M16.3002 24.5575C16.4633 24.4944 16.6412 24.4969 16.8021 24.5648C16.9625 24.6327 17.086 24.7582 17.1502 24.9177C17.2155 25.0772 17.2121 25.2518 17.1425 25.4089C17.0737 25.5666 16.9454 25.6878 16.7823 25.7515C16.6151 25.8164 16.5329 26.002 16.5996 26.1675C16.6503 26.2918 16.7731 26.3694 16.9033 26.3694C16.9432 26.3694 16.984 26.3616 17.0237 26.3464C17.1867 26.2833 17.3639 26.2858 17.5243 26.3537C17.6852 26.4222 17.8094 26.5471 17.8737 26.7066C17.9382 26.8661 17.9351 27.0401 17.866 27.1984C17.7961 27.3554 17.6688 27.4773 17.5057 27.5404C17.3435 27.6035 17.1648 27.601 17.0046 27.5325C16.8441 27.4646 16.7207 27.3391 16.6556 27.1796C16.6052 27.0541 16.4815 26.9777 16.3519 26.9777C16.3125 26.9777 16.2715 26.9849 16.2319 27.0001C16.0642 27.0656 15.9827 27.2511 16.0485 27.4155C16.113 27.575 16.1103 27.7496 16.0407 27.9067C15.9716 28.0637 15.844 28.1862 15.6812 28.2487C15.5188 28.3123 15.3403 28.3093 15.1798 28.2414C15.0194 28.1735 14.8947 28.048 14.8309 27.8879C14.6983 27.5598 14.8626 27.1857 15.1984 27.0547C15.3656 26.9898 15.4478 26.8042 15.382 26.6393C15.3308 26.5144 15.2081 26.4374 15.0781 26.4374C15.038 26.4374 14.9979 26.4446 14.9578 26.4604C14.7954 26.5235 14.6168 26.5204 14.4564 26.4525C14.296 26.384 14.1725 26.2591 14.1075 26.0996C14.0432 25.9395 14.0459 25.7649 14.1155 25.6078C14.1851 25.4507 14.3131 25.3289 14.4755 25.2658C14.6383 25.2027 14.8157 25.2058 14.9761 25.2737C15.1373 25.3416 15.2612 25.4671 15.3257 25.6266C15.3765 25.7521 15.4992 25.8285 15.6293 25.8285C15.6694 25.8285 15.7102 25.8213 15.7493 25.8055C15.917 25.7406 15.9992 25.555 15.932 25.3913C15.8685 25.2312 15.8711 25.0566 15.9402 24.8995C16.0103 24.7425 16.1378 24.62 16.3002 24.5575ZM14.2343 24.6709C13.9099 24.797 13.6554 25.0396 13.5162 25.3543C13.4438 25.5168 13.4084 25.6897 13.4084 25.8625C13.4084 26.022 13.4394 26.1827 13.5005 26.3355C13.6443 26.6914 13.9335 26.9492 14.2749 27.0692C14.1109 27.3864 14.0797 27.7684 14.2237 28.1244C14.4893 28.7817 15.2508 29.1043 15.9218 28.8442C16.2461 28.718 16.502 28.4755 16.6404 28.1614C16.6511 28.1359 16.6615 28.1104 16.6706 28.0849C16.9939 28.2462 17.3829 28.276 17.7464 28.1353C18.0709 28.0091 18.3265 27.7666 18.4652 27.4519C18.6036 27.1378 18.6097 26.7891 18.4804 26.4713C18.3521 26.153 18.1044 25.9025 17.7838 25.7661C17.7582 25.7552 17.7326 25.7455 17.7063 25.7364C17.8713 25.4192 17.9012 25.0378 17.7575 24.6818C17.6287 24.3635 17.3818 24.113 17.0601 23.9778C16.7402 23.8414 16.385 23.8359 16.0603 23.962C15.735 24.0882 15.4801 24.3307 15.3407 24.6454C15.3296 24.6697 15.3204 24.6952 15.3108 24.72C15.2861 24.7079 15.2612 24.697 15.2359 24.6861C14.9157 24.5502 14.5603 24.5442 14.2343 24.6709Z" fill="#3A383B"/>
<path d="M40.463 22.0788C40.5811 22.1795 40.6516 22.319 40.6628 22.4712C40.6628 22.4718 40.6634 22.4797 40.6603 22.496C40.6356 22.6955 40.7302 22.8926 40.904 22.9993C41.0784 23.1055 41.2993 23.1036 41.4712 22.9945C41.4867 22.9848 41.4929 22.9818 41.4929 22.9818C41.7916 22.8635 42.1337 23.006 42.2543 23.2995C42.3749 23.5924 42.2296 23.9271 41.9308 24.0454C41.9308 24.0454 41.9234 24.0478 41.9055 24.0514C41.7044 24.089 41.5436 24.2388 41.4941 24.4335C41.444 24.6281 41.5139 24.8343 41.6735 24.961C41.6865 24.972 41.6927 24.9774 41.6927 24.9774C41.7929 25.0951 41.8405 25.2442 41.8269 25.3964C41.8127 25.5487 41.7397 25.6875 41.6197 25.7851C41.4997 25.8834 41.3488 25.9301 41.1929 25.9167C41.037 25.9034 40.896 25.8312 40.7958 25.7142C40.7958 25.7142 40.7908 25.7081 40.7821 25.693C40.6838 25.5165 40.4889 25.4128 40.2848 25.4268C40.0795 25.4401 39.9019 25.5687 39.8283 25.7566C39.8215 25.773 39.8178 25.7803 39.8178 25.7803C39.7355 25.9101 39.605 26.0004 39.4529 26.035C39.3001 26.0683 39.1442 26.0429 39.0118 25.9616C38.7384 25.7942 38.6555 25.4395 38.8269 25.1715C38.8269 25.1715 38.8312 25.1648 38.8423 25.1521C38.9828 25.0059 39.0236 24.7919 38.9469 24.6057C38.8702 24.4189 38.6902 24.2934 38.4848 24.2825C38.4681 24.2819 38.4601 24.2795 38.4601 24.2795C38.3085 24.2431 38.1799 24.1503 38.1001 24.0187C38.0197 23.8877 37.9968 23.7337 38.0345 23.5845C38.0722 23.436 38.1669 23.311 38.3011 23.2328C38.4347 23.1534 38.5918 23.1309 38.744 23.1673C38.744 23.1673 38.752 23.1697 38.7675 23.177C38.9531 23.2631 39.1727 23.2346 39.3298 23.1055C39.4516 23.006 39.5184 22.8599 39.5184 22.7095C39.5184 22.6652 39.5135 22.6197 39.5005 22.5755C39.4962 22.5585 39.4955 22.5506 39.4955 22.5506C39.4844 22.3984 39.5357 22.2504 39.6378 22.1346C39.7399 22.0188 39.8828 21.9497 40.0386 21.9387C40.1945 21.929 40.3454 21.9782 40.463 22.0788ZM41.1558 21.2996C40.8254 21.017 40.403 20.8782 39.9663 20.9079C39.5289 20.9376 39.13 21.1316 38.8423 21.4554C38.6698 21.6501 38.5498 21.8769 38.4879 22.1195C38.2324 22.137 37.9844 22.2128 37.7586 22.3456C37.3832 22.5664 37.1178 22.9175 37.0108 23.3335C36.9774 23.4638 36.9619 23.596 36.9619 23.727C36.9619 24.0145 37.0411 24.297 37.1957 24.5505C37.3306 24.7718 37.5143 24.9538 37.7314 25.0866C37.5644 25.7433 37.8359 26.4607 38.4514 26.8385C38.8238 27.0659 39.263 27.1386 39.6891 27.0428C39.9459 26.9846 40.1784 26.87 40.3745 26.7087C40.591 26.8427 40.8378 26.924 41.1001 26.9464C41.5362 26.9846 41.9611 26.8536 42.2964 26.5783C42.6329 26.3024 42.8389 25.9155 42.8772 25.488C42.9007 25.2303 42.8611 24.9774 42.7659 24.7452C43.2947 24.3092 43.5044 23.5742 43.2329 22.9126C42.9607 22.2523 42.289 21.8642 41.5999 21.9102C41.5046 21.6768 41.3537 21.4682 41.1558 21.2996Z" fill="#3A383B"/>
<path d="M34.3316 49.0379C34.3316 49.0379 34.3316 49.0417 34.3303 49.0506C34.3068 49.2324 34.394 49.4114 34.5524 49.508C34.7107 49.6054 34.9124 49.604 35.0689 49.5043C35.0775 49.4983 35.0788 49.4979 35.0788 49.4979C35.2965 49.4124 35.5458 49.5159 35.633 49.7298C35.6757 49.8333 35.6744 49.9475 35.6305 50.0498C35.5854 50.1523 35.5025 50.232 35.3992 50.2732C35.3992 50.2732 35.3955 50.2746 35.3862 50.2758C35.2025 50.3109 35.0565 50.4466 35.0107 50.6238C34.9656 50.8024 35.0293 50.989 35.1747 51.1044C35.1802 51.1094 35.1833 51.112 35.1833 51.112C35.2569 51.1977 35.2909 51.3057 35.281 51.4168C35.2711 51.5282 35.2179 51.6293 35.1307 51.7009C35.0423 51.7731 34.9322 51.8065 34.8184 51.7968C34.7045 51.787 34.6025 51.7342 34.5307 51.6506C34.5307 51.6506 34.5276 51.6473 34.5233 51.6397C34.4336 51.4791 34.2567 51.3846 34.0705 51.3967C33.8837 51.4097 33.721 51.5269 33.6548 51.6982C33.6524 51.7046 33.6499 51.7086 33.6499 51.7086C33.5243 51.9036 33.2614 51.9631 33.0616 51.8413C32.8637 51.7181 32.8025 51.4599 32.9262 51.2662C32.9262 51.2662 32.9287 51.2629 32.9348 51.2564C33.0616 51.1224 33.0994 50.9286 33.0301 50.7586C32.9602 50.5885 32.7957 50.4738 32.6095 50.4639C32.6014 50.4639 32.5977 50.4634 32.5977 50.4634C32.3695 50.4068 32.2309 50.1792 32.2878 49.9565C32.3453 49.7324 32.5767 49.5957 32.8031 49.6516C32.8031 49.6516 32.8068 49.653 32.8155 49.6564C32.9843 49.7343 33.1841 49.7092 33.3276 49.5912C33.4384 49.5005 33.499 49.3676 33.499 49.2304C33.499 49.1899 33.4946 49.1488 33.4829 49.1082C33.481 49.1011 33.4804 49.0964 33.4804 49.0971C33.4649 48.8671 33.6425 48.6676 33.8769 48.6513C34.1113 48.6354 34.3155 48.8098 34.3316 49.0379ZM33.8107 47.7123C33.2089 47.7528 32.7239 48.165 32.5693 48.7044C32.0014 48.7574 31.5023 49.1546 31.3563 49.7277C31.3278 49.8378 31.3142 49.9487 31.3142 50.0576C31.3142 50.5143 31.5517 50.9407 31.9352 51.1906C31.8115 51.7368 32.0423 52.3257 32.5526 52.6386C33.0629 52.9525 33.7037 52.8987 34.1509 52.5517C34.326 52.6536 34.5245 52.7166 34.7336 52.7345C35.1035 52.7668 35.4629 52.6561 35.7468 52.4228C36.0307 52.1897 36.2052 51.8619 36.238 51.4997C36.2565 51.2951 36.2287 51.0928 36.1569 50.9054C36.3103 50.7732 36.4316 50.6084 36.5132 50.4191C36.6586 50.0846 36.6629 49.7149 36.5243 49.378C36.2986 48.8299 35.7487 48.5037 35.1784 48.5276C34.9507 48.0144 34.4113 47.6716 33.8107 47.7123Z" fill="#3A383B"/>
<path d="M47.0525 51.2515C46.6783 52.1173 46.2231 52.8878 45.7004 53.5402C45.0466 54.3571 44.2845 54.9934 43.4358 55.4302C42.177 56.0773 40.8725 56.301 39.5556 56.0956C38.8139 55.979 38.1867 55.7464 37.7104 55.5171C37.9492 55.5082 38.1904 55.492 38.4323 55.4681C40.9869 55.2111 42.9632 54.1746 44.1707 53.3507C45.4826 52.4555 46.1909 51.6213 46.2193 51.586C46.3876 51.3855 46.3585 51.0899 46.1544 50.9244C45.9496 50.7588 45.6472 50.787 45.4783 50.9867C45.4715 50.9952 44.8078 51.7741 43.5948 52.5965C43.4067 52.7246 43.1977 52.858 42.9688 52.9927C43.2608 52.5424 43.6443 51.9974 44.0055 51.5213C44.1645 51.3133 44.1206 51.0182 43.9078 50.863C43.695 50.7079 43.3944 50.751 43.236 50.9597C43.2168 50.9843 42.7709 51.5729 42.3441 52.2061C42.0886 52.5855 41.8925 52.9025 41.7626 53.1487C41.6686 53.3284 41.5758 53.5207 41.5461 53.7076C40.9919 53.941 40.3758 54.1496 39.7022 54.3048C40.035 53.7643 40.6207 52.9392 41.1601 52.2414C41.3203 52.0342 41.2789 51.7392 41.068 51.582C40.8564 51.4249 40.5552 51.4654 40.3944 51.6727C40.3746 51.6999 39.8748 52.3461 39.3954 53.0371C39.1077 53.4499 38.8882 53.7934 38.7416 54.0573C38.6717 54.1812 38.5832 54.3408 38.5288 54.5097C38.4644 54.5173 38.3989 54.5251 38.3333 54.5315C37.8731 54.5779 37.411 54.5895 36.9681 54.5798C37.0609 54.3448 37.1927 54.0478 37.3752 53.7207C37.9622 52.663 38.7898 51.7966 39.7677 51.2155C41.0142 50.4759 42.1801 50.4077 43.5305 50.3291L43.5459 50.3284C43.9894 50.3026 44.4478 50.2758 44.9179 50.2208C46.1748 50.0747 47.2257 49.455 47.7682 49.0741C47.6544 49.5742 47.4367 50.3653 47.0525 51.2515ZM48.3435 47.8898C48.0695 47.8007 47.7484 47.8704 47.5245 48.0681C47.4874 48.1004 46.2998 49.112 44.8047 49.2864C44.363 49.3378 43.9183 49.3634 43.489 49.3887L43.4736 49.3892C42.1195 49.4685 40.7191 49.5498 39.2704 50.4103C38.1471 51.0776 37.2001 52.0666 36.5308 53.2701C36.2463 53.7837 36.0681 54.234 35.9685 54.522C34.8075 54.4149 33.9564 54.2058 33.9428 54.2025C33.6861 54.1381 33.4244 54.2901 33.3588 54.5412C33.3489 54.5805 33.344 54.6198 33.344 54.6592C33.344 54.8686 33.4875 55.0597 33.7052 55.1145C33.7646 55.1298 34.6863 55.3568 35.9401 55.4662C35.945 55.4734 35.9488 55.4797 35.9531 55.4868C35.9883 55.5351 36.0292 55.5795 36.0731 55.6169C36.0749 55.6183 36.0762 55.6195 36.078 55.6206C36.2141 55.7322 37.4661 56.7224 39.404 57.0251C40.93 57.2634 42.4368 57.0075 43.8818 56.2638C44.8517 55.7644 45.7183 55.0437 46.4563 54.1217C47.0309 53.403 47.5295 52.5617 47.9371 51.6194C48.6243 50.0321 48.8192 48.7053 48.8272 48.6496C48.8767 48.3109 48.6775 47.9987 48.3435 47.8898Z" fill="#3A383B"/>
<path d="M50.247 20.3833C50.5835 21.4475 50.7226 22.5621 50.6565 23.6312C49.5672 23.5536 48.4581 23.2698 47.4276 22.8016C46.3006 22.2904 45.3158 21.5834 44.5791 20.7581C43.9377 20.0395 43.6024 19.3603 43.4898 18.5574C43.3927 17.8577 43.4595 17.0736 43.5634 16.113C43.9896 16.4987 44.4164 16.9208 44.8296 17.3562C44.8104 17.3986 44.7987 17.4441 44.7956 17.4914L44.6397 19.7787C44.6348 19.8551 44.6509 19.9279 44.6855 19.991C44.7492 20.1092 44.8717 20.1929 45.0177 20.2026C45.2416 20.2172 45.4352 20.051 45.4494 19.8321L45.5645 18.1542C45.9876 18.6272 46.3865 19.0996 46.7484 19.5398C46.7342 19.575 46.7267 19.6126 46.7237 19.6514L46.6055 21.3833C46.6006 21.4597 46.6185 21.5324 46.6513 21.5955C46.7156 21.7138 46.8381 21.7974 46.9841 21.8071C47.2074 21.8217 47.4016 21.6555 47.4158 21.436L47.4832 20.4573C48.1241 21.2771 48.5298 21.8447 48.5416 21.8623C48.6703 22.0436 48.9226 22.0879 49.107 21.9624C49.2913 21.8369 49.3371 21.5888 49.209 21.4081C49.162 21.342 48.815 20.8551 48.2707 20.1523L48.867 20.1917C49.0915 20.2062 49.2851 20.0401 49.3 19.8206C49.3148 19.6017 49.1459 19.4113 48.922 19.3967L47.6057 19.3106C47.2754 18.9007 46.9055 18.4562 46.5096 18.002L47.5074 18.0675C47.7307 18.082 47.9243 17.9165 47.9385 17.697C47.9546 17.4774 47.7851 17.2876 47.5612 17.2725L45.7482 17.1542C45.301 16.6709 44.8327 16.1937 44.3583 15.7516C45.1816 15.7795 45.8719 15.8292 46.4787 15.9936C47.2766 16.2095 47.9175 16.6261 48.5602 17.3446C49.2962 18.17 49.8789 19.2208 50.247 20.3833ZM51.4321 24.0902C51.7161 21.487 50.8488 18.7006 49.1701 16.8201C47.5773 15.0343 46.0166 14.9942 43.6537 14.9348C43.5752 14.9324 43.496 14.9306 43.4156 14.9281C42.9467 14.5491 42.4803 14.2235 42.0331 13.9773C41.837 13.87 41.5896 13.9379 41.4801 14.1301C41.4102 14.252 41.4133 14.3951 41.4752 14.5109C41.511 14.5764 41.5648 14.6328 41.6366 14.6716C42.0158 14.8802 42.4123 15.1555 42.8156 15.4757C42.8094 15.5412 42.802 15.6061 42.7946 15.671C42.5948 17.492 42.4482 18.8249 43.1824 20.1844C43.3772 20.5452 43.6339 20.9078 43.9673 21.2826C45.6461 23.1637 48.3474 24.3759 51.0177 24.4468H51.0227C51.0295 24.4468 51.0375 24.4462 51.0455 24.4462C51.0511 24.4456 51.0573 24.4456 51.0635 24.4456C51.0709 24.4444 51.0783 24.4432 51.0857 24.442C51.0913 24.4414 51.0975 24.4407 51.1031 24.4395C51.1099 24.4383 51.1173 24.4365 51.1241 24.4353C51.1309 24.4341 51.1371 24.4323 51.142 24.4304C51.1482 24.4286 51.155 24.4268 51.1618 24.4244C51.1668 24.4226 51.1736 24.4201 51.1804 24.4177C51.1859 24.4159 51.1915 24.4129 51.1965 24.411C51.2033 24.4074 51.2101 24.405 51.2163 24.4019C51.2206 24.3989 51.2262 24.3959 51.2317 24.3934C51.2379 24.3892 51.2441 24.3862 51.249 24.3825C51.2546 24.3795 51.2596 24.3753 51.2651 24.3722C51.2701 24.368 51.2756 24.3643 51.2806 24.3607C51.2862 24.3558 51.2911 24.3522 51.2967 24.3474C51.301 24.3437 51.3059 24.3401 51.3103 24.3352C51.3152 24.3304 51.3202 24.3255 51.3251 24.3207C51.3288 24.3158 51.3325 24.3122 51.3363 24.3079C51.3418 24.3025 51.3462 24.2964 51.3505 24.291C51.3542 24.2873 51.3573 24.2819 51.361 24.277C51.3647 24.2716 51.369 24.2655 51.3728 24.26C51.3758 24.2546 51.3789 24.2497 51.3827 24.2449C51.3851 24.2388 51.3876 24.2327 51.3913 24.2273C51.3944 24.2212 51.3969 24.2158 51.4 24.2097C51.4031 24.2049 51.4049 24.1982 51.4074 24.1933C51.4099 24.1854 51.4123 24.18 51.4142 24.1733C51.4161 24.1679 51.4173 24.1618 51.4198 24.1563C51.421 24.1491 51.4235 24.1418 51.4253 24.1351C51.4266 24.1284 51.4272 24.1236 51.4284 24.1169C51.4297 24.1096 51.4309 24.103 51.4321 24.0951C51.4321 24.0939 51.4321 24.0927 51.4321 24.0902Z" fill="#3A383B"/>
<path d="M33.2799 11.6313C34.3024 11.6664 35.3978 11.8672 36.5366 12.2274C37.5121 12.5354 38.3539 12.9102 38.9558 13.2103C38.2135 13.4772 37.1273 13.9538 35.7269 14.7955C35.2877 14.5687 34.8479 14.374 34.41 14.2133C33.0863 13.7264 31.7768 13.5475 30.5192 13.6797C29.2618 13.8125 28.0271 14.3407 26.8871 15.2248C27.5013 14.0726 28.4451 12.8835 29.8641 12.2468C30.8734 11.7944 32.023 11.587 33.2799 11.6313ZM36.9585 16.6656C37.783 17.2605 38.461 17.876 38.9348 18.3466C37.5647 18.3866 35.0125 18.7061 31.1366 20.1233C28.8964 20.9426 26.4231 19.5982 25.3278 18.8747C27.0448 17.9572 28.9866 17.0434 30.2099 16.8536C32.2753 16.5334 34.4335 17.3988 34.4545 17.4072C34.6989 17.5073 34.9809 17.3945 35.083 17.1544C35.1844 16.9142 35.0694 16.6389 34.825 16.5389C34.7267 16.4988 32.4003 15.5614 30.0601 15.9234C28.9909 16.0889 27.4812 16.7263 26.0093 17.4582C26.0162 17.4297 26.025 17.4012 26.0336 17.3721C27.0125 16.2096 28.5809 14.8312 30.6219 14.616C31.7254 14.5002 32.8828 14.659 34.0605 15.0902C35.0187 15.4413 35.9941 15.9713 36.9585 16.6656ZM25.7357 15.394C25.4782 15.9585 25.2928 16.4885 25.1623 16.927C24.6025 17.6134 24.2422 18.2065 24.0936 18.4678C22.5339 19.332 21.3191 20.0954 21.2093 20.1639C21.0668 20.2543 20.9893 20.4053 20.9893 20.5605C20.9893 20.6478 21.0141 20.7364 21.0653 20.8146C21.2093 21.0335 21.5066 21.096 21.7296 20.9559C21.7554 20.9395 22.9007 20.2197 24.3962 19.3841C24.7661 19.654 25.5014 20.1482 26.4463 20.5714C28.2728 21.3901 30.0108 21.5399 31.4731 21.005C37.2269 18.9014 39.9313 19.318 39.9795 19.3253C40.1756 19.3611 40.3748 19.2725 40.4775 19.1046C40.5795 18.9354 40.5653 18.7213 40.4391 18.5679C40.394 18.5127 39.3028 17.1901 37.5467 15.921C37.2578 15.7124 36.9671 15.5177 36.6758 15.3358C38.5129 14.2861 39.8038 13.8816 40.2585 13.8149C40.4577 13.7876 40.6179 13.6421 40.6612 13.4499C40.7045 13.2576 40.6216 13.0587 40.4521 12.9526C40.3915 12.9138 38.9298 11.9981 36.8545 11.3384C35.6286 10.9491 34.4422 10.7308 33.3275 10.6907C31.9153 10.6392 30.6151 10.8745 29.4647 11.3911C27.8983 12.0927 26.6085 13.4772 25.7357 15.394Z" fill="#3A383B"/>
<path d="M40.4989 44.0225C41.8696 44.7974 42.5537 45.5376 42.8865 46.022C43.2007 46.4794 43.2867 46.8265 43.2867 47.0271C43.2867 47.0636 43.2836 47.096 43.2793 47.1223C43.1661 47.1976 42.6898 47.3916 41.6859 47.3831C40.7147 47.3748 39.7727 47.1706 39.0984 46.8229C37.3287 45.9078 36.498 45.0352 36.1133 44.465C35.9642 44.2438 35.8702 44.051 35.8102 43.8958C36.9588 44.1974 37.9665 44.6197 38.7316 44.9973C38.9685 45.1138 39.2568 45.0202 39.3762 44.7879C39.4956 44.5553 39.3997 44.2724 39.1628 44.1559C38.3289 43.7449 37.5409 43.4332 36.8029 43.1987C37.6201 43.0269 38.8473 43.0893 40.4989 44.0225ZM33.0266 34.9426C33.099 34.2337 33.5104 33.0579 34.1005 31.8748C34.6479 30.7778 35.0889 30.1751 35.3159 29.9422C35.4304 30.1241 35.6091 30.5347 35.7471 31.3096C35.9172 32.2672 35.9698 33.4417 35.8955 34.6186C35.752 36.8701 34.8254 37.8252 34.1821 38.2208C34.2062 38.1454 34.2304 38.0706 34.2539 37.9948C34.8285 36.1545 35.0357 34.6826 35.0438 34.6205C35.0803 34.3623 34.8959 34.1252 34.6324 34.0912C34.3702 34.0554 34.1283 34.2367 34.0924 34.4945C34.0887 34.5241 33.8648 36.0823 33.2611 37.9455C33.0409 37.4644 32.859 36.5742 33.0266 34.9426ZM39.0861 37.0935C39.3539 35.7092 40.369 34.3471 42.0199 33.1549C43.4067 32.155 44.8801 31.3193 46.1698 30.8039C47.4416 30.2945 48.0552 30.2897 48.2401 30.3418C48.2612 30.6165 48.0688 31.5376 47.2907 33.0452C46.5261 34.5257 45.5958 35.78 44.8028 36.3996C42.7659 37.9908 41.2683 38.4984 40.3708 38.6445C40.2681 38.6613 40.1723 38.6727 40.0801 38.682C41.7836 37.3865 43.3455 35.9411 44.7273 34.3817C44.9012 34.1852 44.8801 33.8881 44.6791 33.7177C44.4793 33.5467 44.1762 33.5679 44.0024 33.765C42.5815 35.3676 40.9634 36.8481 39.1943 38.1627C39.1436 38.1994 39.0935 38.236 39.0434 38.2729C39.005 37.9739 38.9939 37.5689 39.0861 37.0935ZM22.2407 45.1396C22.2407 45.1569 22.242 45.1742 22.2441 45.1918C22.2738 45.4507 22.5108 45.6368 22.7735 45.6077C25.4986 45.3116 28.1879 44.6811 30.8037 43.7276C30.8129 43.7281 30.8221 43.7281 30.8312 43.7281C30.8327 43.7281 30.8341 43.7281 30.8353 43.7281C30.8491 43.7276 30.8634 43.7276 30.8766 43.7255C30.8798 43.7255 30.8832 43.725 30.8859 43.7243C30.8992 43.7229 30.9107 43.7213 30.9233 43.7187C30.9272 43.7179 30.9313 43.7167 30.9356 43.7156C30.9465 43.7134 30.9574 43.7108 30.968 43.707C30.9707 43.7061 30.9726 43.7061 30.9752 43.7056C30.983 43.703 31.7716 43.4583 33.1138 43.4943C33.6786 43.5097 34.231 43.5711 34.7617 43.6651C34.7957 43.9124 34.9033 44.3414 35.2398 44.8727C35.8751 45.878 37.0219 46.8137 38.6506 47.6555C39.3582 48.0208 40.2904 48.2534 41.2758 48.3112C42.1498 48.3624 42.983 48.2683 43.5069 48.0608C43.8694 47.9165 44.0964 47.7128 44.1805 47.4565C44.5102 46.4678 43.6486 44.7164 40.9782 43.207C38.9475 42.0586 37.419 42.0818 36.4943 42.3033C35.966 42.4302 35.5695 42.6314 35.2998 42.8045C34.6807 42.6783 34.1116 42.606 33.6013 42.5719C33.6297 42.5589 33.6576 42.5464 33.6848 42.5333C35.5102 41.6823 37.2539 40.6819 38.8801 39.5541C39.1925 39.6282 39.7009 39.6906 40.4011 39.5928C41.9005 39.3827 43.5824 38.5564 45.4009 37.1359C46.236 36.4835 47.1738 35.2671 47.9742 33.7971C48.5507 32.7389 49.1742 31.3005 49.1995 30.4376C49.2094 30.0877 49.1173 29.8252 48.9249 29.6572C48.4276 29.2224 47.4051 29.3043 45.884 29.9016C44.5047 30.4425 42.9298 31.329 41.4502 32.3975C40.4116 33.147 39.5976 33.9608 39.0298 34.8178C38.5646 35.519 38.2615 36.2502 38.1291 36.9904C38.0753 37.2872 38.0543 37.5689 38.0543 37.8271C38.0543 38.2554 38.1137 38.619 38.183 38.8835C36.6421 39.9415 34.9955 40.8804 33.2728 41.6836C32.987 41.8163 32.7 41.9451 32.4124 42.0702C32.9116 41.3125 33.3619 40.4237 33.759 39.4073C33.9248 39.3731 34.5706 39.2083 35.2429 38.6002C36.4368 37.518 36.7782 35.8695 36.8543 34.6773C36.9378 33.3465 36.8691 32.0288 36.6588 30.9688C36.4164 29.7439 36.0409 29.0781 35.5108 28.9344C35.3722 28.8974 35.152 28.8889 34.891 29.0647C34.2328 29.5062 33.4275 31.0738 33.1967 31.5437C32.5739 32.8099 32.1532 34.0451 32.0703 34.8486C32.0246 35.3001 32.0011 35.7208 32.0011 36.1107C32.0011 37.192 32.1792 38.032 32.5349 38.6142C32.6444 38.7926 32.7594 38.9311 32.8732 39.0387C32.3437 40.3946 31.6132 41.7841 30.6244 42.7882C28.0335 43.7461 25.3684 44.3783 22.6679 44.6725C22.4226 44.6991 22.2407 44.9033 22.2407 45.1396Z" fill="#3A383B"/>
<path d="M53.9848 57.84L54.4222 57.3075C54.5626 57.1367 54.6312 56.977 54.63 56.8273C54.6281 56.6774 54.5527 56.544 54.4042 56.4267C54.2576 56.3109 54.1104 56.2688 53.9638 56.3005C53.816 56.332 53.6718 56.4332 53.5327 56.6047L53.0953 57.1367L53.9848 57.84ZM55.9401 57.695L54.8935 57.541C54.8805 57.5604 54.8589 57.5896 54.8273 57.628L54.3894 58.16L55.0976 58.7192L54.7265 59.1702L52.3215 57.27L53.13 56.287C53.3811 55.981 53.6471 55.8026 53.9286 55.7505C54.2094 55.6981 54.4815 55.7761 54.7444 55.9843C54.9325 56.1328 55.0605 56.2993 55.1273 56.4841C55.1954 56.6691 55.1991 56.8635 55.1403 57.0689L56.3632 57.1805L55.9401 57.695Z" fill="#3A383B"/>
<path d="M5.83255 51.662L7.08687 53.8043L6.63161 54.0606L6.15247 53.2424L3.92905 54.4936L3.63208 53.9872L5.85574 52.7365L5.37735 51.9176L5.83255 51.662Z" fill="#3A383B"/>
<path d="M7.96795 55.0893L8.33519 55.5443L7.29984 56.3464L8.25496 57.5308L9.29056 56.7287L9.65663 57.1835L7.23409 59.062L6.86661 58.6072L7.8495 57.8447L6.89487 56.6601L5.91124 57.4228L5.54468 56.9677L7.96795 55.0893Z" fill="#3A383B"/>
<path d="M10.9745 58.5528L12.6323 60.0638L12.2807 60.435L11.0559 59.3179L10.5364 59.8667L11.6355 60.8682L11.2837 61.239L10.1845 60.2369L9.65568 60.7948L10.9201 61.9468L10.5685 62.3179L8.87109 60.7711L10.9745 58.5528Z" fill="#3A383B"/>
<path d="M15.96 62.4748L16.4755 62.7598L15.8274 63.8866L17.1684 64.6285L17.8172 63.5017L18.3316 63.7864L16.8142 66.4242L16.2998 66.1388L16.9147 65.0691L15.573 64.3277L14.958 65.3976L14.4421 65.1134L15.96 62.4748Z" fill="#3A383B"/>
<path d="M20.0845 64.5634L22.2047 65.342L22.0228 65.8163L20.4565 65.2408L20.1888 65.9418L21.5939 66.4577L21.4124 66.9317L20.0076 66.4151L19.7348 67.128L21.3505 67.7221L21.1694 68.1961L19.0002 67.3988L20.0845 64.5634Z" fill="#3A383B"/>
<path d="M24.1727 67.5525L24.8549 67.6942C25.0738 67.7392 25.2509 67.7276 25.3865 67.6589C25.522 67.5897 25.6092 67.4628 25.6486 67.2794C25.688 67.0989 25.6593 66.9516 25.5638 66.8374C25.4686 66.7235 25.3108 66.6436 25.0919 66.5984L24.41 66.456L24.1727 67.5525ZM25.189 69.1965L24.8561 68.2115C24.8324 68.2103 24.7957 68.2037 24.7471 68.1935L24.065 68.0519L23.8765 68.9238L23.2983 68.8034L23.9389 65.8409L25.1992 66.1024C25.5908 66.1843 25.8738 66.3357 26.048 66.5579C26.223 66.7801 26.2747 67.0534 26.2051 67.378C26.155 67.6091 26.0606 67.796 25.9233 67.9384C25.7859 68.0807 25.6105 68.1727 25.3969 68.2134L25.8497 69.3343L25.189 69.1965Z" fill="#3A383B"/>
<path d="M29.853 67.8105C29.9429 67.7487 29.9915 67.6589 29.9987 67.5412C30.0048 67.4259 29.9673 67.3344 29.8845 67.2655C29.8011 67.1978 29.6827 67.161 29.5302 67.1554L28.7812 67.1134L28.7391 67.8484L29.4875 67.8897C29.6406 67.8982 29.7622 67.8716 29.853 67.8105ZM29.8598 69.0975C29.9697 69.0319 30.029 68.9341 30.0362 68.8045C30.0434 68.6806 29.996 68.5802 29.8944 68.5036C29.7924 68.4276 29.6476 68.3859 29.4592 68.3779L28.7106 68.3361L28.6642 69.1354L29.4132 69.1766C29.6012 69.1903 29.7504 69.1638 29.8598 69.0975ZM30.3561 66.9021C30.5375 67.0478 30.6217 67.2373 30.6076 67.4711C30.5986 67.6379 30.5429 67.7783 30.4402 67.893C30.3377 68.0069 30.2019 68.0796 30.0315 68.1107C30.2352 68.1597 30.3911 68.2542 30.4994 68.3968C30.6071 68.5384 30.6564 68.7097 30.6439 68.9113C30.6296 69.1702 30.5158 69.3687 30.3029 69.5058C30.0901 69.643 29.8076 69.7018 29.4553 69.6816L28.0454 69.6032L28.2198 66.58L29.5901 66.6562C29.9192 66.674 30.1741 66.756 30.3561 66.9021Z" fill="#3A383B"/>
<path d="M33.3813 68.4991L34.4626 68.398L33.8032 67.1818L33.3813 68.4991ZM35.0552 69.4852L34.7212 68.8734L33.2187 69.0138L33.0084 69.6766L32.3972 69.7339L33.4531 66.5929L34.0649 66.5356L35.688 69.4257L35.0552 69.4852Z" fill="#3A383B"/>
<path d="M36.9109 66.1046L37.4855 65.9686L38.0855 68.4034L39.3814 68.0969L39.507 68.6057L37.6365 69.0482L36.9109 66.1046Z" fill="#3A383B"/>
<path d="M44.0693 64.2114C43.8968 64.2361 43.7539 64.2759 43.6401 64.3301C43.5126 64.3905 43.4236 64.462 43.3728 64.5447C43.3221 64.6264 43.3166 64.7082 43.3586 64.7913C43.3964 64.8674 43.4533 64.9176 43.53 64.9434C43.6067 64.9692 43.692 64.9794 43.786 64.9746C43.8801 64.9704 44.0038 64.954 44.1584 64.9291C44.3737 64.8943 44.5537 64.8742 44.7015 64.8711C44.8487 64.8692 44.9916 64.8996 45.1289 64.9659C45.2663 65.0315 45.3788 65.1513 45.4648 65.3252C45.5477 65.4908 45.5737 65.6576 45.5434 65.8243C45.5137 65.9913 45.4345 66.1453 45.3071 66.2865C45.179 66.4274 45.0126 66.5473 44.8054 66.6456C44.5889 66.7496 44.3576 66.8114 44.112 66.8306C43.8665 66.8505 43.6339 66.8298 43.4155 66.7721L43.4168 66.2221C43.6197 66.2825 43.8275 66.3071 44.0378 66.2962C44.2475 66.2851 44.4294 66.2438 44.5797 66.1718C44.7281 66.1014 44.8302 66.0178 44.8871 65.9212C44.9446 65.825 44.9489 65.7284 44.9019 65.6332C44.8623 65.5552 44.8048 65.5038 44.7281 65.478C44.6514 65.4514 44.5661 65.442 44.4708 65.4489C44.3762 65.4562 44.25 65.4728 44.0935 65.4991C43.8788 65.5346 43.6988 65.5545 43.5541 65.5597C43.4087 65.565 43.2683 65.5353 43.1316 65.4702C42.9943 65.4058 42.8829 65.2878 42.7988 65.1165C42.7196 64.9587 42.6937 64.8003 42.7215 64.6411C42.7487 64.4822 42.8248 64.3327 42.9497 64.193C43.0747 64.0525 43.2405 63.9331 43.4477 63.8348C43.6271 63.7484 43.817 63.6896 44.0199 63.6574C44.2209 63.6254 44.412 63.6202 44.5939 63.6427L44.6063 64.1998C44.4207 64.1832 44.2419 64.1863 44.0693 64.2114Z" fill="#3A383B"/>
<path d="M45.71 62.7071L47.8038 61.3325L48.0964 61.7603L47.2972 62.2852L48.7236 64.3742L48.2281 64.699L46.8011 62.6107L46.0025 63.1346L45.71 62.7071Z" fill="#3A383B"/>
<path d="M50.004 60.3662C49.9452 60.5403 49.9353 60.7161 49.9724 60.8942C50.0101 61.0735 50.093 61.2334 50.2236 61.3744C50.3528 61.516 50.5081 61.6141 50.6875 61.6695C50.8662 61.724 51.0475 61.734 51.23 61.697C51.4124 61.661 51.5732 61.5804 51.713 61.4568C51.8504 61.3357 51.9469 61.1882 52.0019 61.0157C52.057 60.8423 52.0644 60.6671 52.0254 60.488C51.9864 60.3096 51.9011 60.1493 51.7712 60.0076C51.6407 59.8671 51.4885 59.7677 51.3116 59.7117C51.1359 59.6558 50.9572 59.6461 50.7784 59.6828C50.5972 59.7196 50.4382 59.7989 50.3009 59.9204C50.1611 60.0443 50.0621 60.1924 50.004 60.3662ZM50.7005 59.143C50.9794 59.0786 51.2535 59.0868 51.5225 59.1681C51.7904 59.2494 52.0229 59.3967 52.2203 59.6113C52.4176 59.8259 52.5432 60.0687 52.5988 60.3397C52.6539 60.6112 52.6359 60.8809 52.5432 61.1489C52.451 61.417 52.2908 61.6506 52.0638 61.8524C51.8361 62.0526 51.5813 62.184 51.3005 62.2458C51.019 62.3086 50.7431 62.2979 50.4741 62.2162C50.2044 62.1338 49.9712 61.9857 49.7739 61.7719C49.5772 61.5574 49.4516 61.3151 49.3972 61.0446C49.3433 60.7741 49.3631 60.506 49.4572 60.241C49.5518 59.9747 49.7132 59.7409 49.9396 59.5405C50.1666 59.3394 50.4209 59.207 50.7005 59.143Z" fill="#3A383B"/>
<path d="M54.9255 53.865L56.0699 51.9499L56.5152 52.2062L55.6697 53.6208L56.3284 53.9996L57.0868 52.7299L57.5328 52.9862L56.7732 54.2554L57.4437 54.6403L58.3165 53.1807L58.7618 53.4372L57.5903 55.3967L54.9255 53.865Z" fill="#3A383B"/>
<path fill-rule="evenodd" clip-rule="evenodd" d="M63.2537 17.3437H64.3312V17.5141H63.8858V18.6953H63.6965V17.5141H63.2537V17.3437Z" fill="#3A383B"/>
<path fill-rule="evenodd" clip-rule="evenodd" d="M64.5457 17.3437H64.7702L65.2743 18.2945L65.7735 17.3437H65.9999V18.6953H65.8236L65.8211 17.6166L65.3312 18.5534H65.2143L64.7207 17.6166V18.6953H64.5457V17.3437Z" fill="#3A383B"/>
</svg>
