<svg width="27" height="27" viewBox="0 0 27 27" fill="none" xmlns="http://www.w3.org/2000/svg">
<path d="M0.797236 6.96327e-06C0.585629 -0.000879331 0.382225 0.0828734 0.232663 0.232661C0.0828797 0.382222 -0.000877942 0.58563 6.94082e-06 0.797229V21.6366C0.00177954 22.0751 0.358736 22.4294 0.797253 22.4276H12.3149C13.5096 25.1164 16.2018 27 19.327 27C23.556 27 27 23.5561 27 19.3271C27 16.2018 25.1164 13.5096 22.4276 12.315V0.797456C22.4294 0.35896 22.0751 0.00203198 21.6366 0.000216852L0.797236 6.96327e-06ZM1.58824 1.58825H7.6962V7.79089C7.69576 8.08602 7.85884 8.35723 8.11986 8.49482C8.38088 8.63264 8.69685 8.61403 8.94013 8.44696L11.2139 6.88821L13.4939 8.44696C13.7372 8.61402 14.0532 8.63263 14.3142 8.49482C14.5752 8.35722 14.7385 8.08602 14.7379 7.79089V1.58825H20.8396V11.8046C20.3501 11.7062 19.8452 11.6541 19.3273 11.6541C15.0983 11.6541 11.6544 15.0978 11.6544 19.327C11.6544 19.8449 11.7065 20.3498 11.8048 20.8393H1.58841L1.58824 1.58825ZM9.28616 1.58825H13.1482V6.28473L11.6654 5.27035C11.3951 5.08556 11.0392 5.08556 10.7689 5.27035L9.2861 6.28473L9.28616 1.58825ZM19.3273 13.2425C22.6979 13.2425 25.412 15.9564 25.412 19.3272C25.412 22.698 22.6979 25.4118 19.3273 25.4118C15.9567 25.4118 13.2426 22.698 13.2426 19.3272C13.2426 15.9564 15.9567 13.2425 19.3273 13.2425ZM3.97345 14.8959C3.76185 14.895 3.55844 14.9787 3.40888 15.1285C3.2591 15.2781 3.17534 15.4815 3.17623 15.6931V18.4601C3.178 18.8986 3.53496 19.2529 3.97347 19.2511H9.6192C10.0577 19.2529 10.4146 18.8986 10.4164 18.4601V15.6931C10.4173 15.4815 10.3336 15.2781 10.1838 15.1285C10.0342 14.9787 9.83081 14.895 9.61921 14.8959H3.97345ZM22.7392 16.3259C22.5307 16.3303 22.3324 16.4168 22.187 16.5663L18.2599 20.4237L16.4607 18.6819C16.3095 18.5332 16.1053 18.4513 15.8932 18.4539C15.6814 18.4568 15.4793 18.5441 15.3322 18.6968C15.1848 18.8492 15.1048 19.0544 15.1097 19.2662C15.1146 19.478 15.2039 19.6794 15.3579 19.825L17.7092 22.105C18.0188 22.4034 18.5098 22.4012 18.8166 22.1001L23.3007 17.697C23.5391 17.4714 23.6144 17.1227 23.4899 16.8189C23.3656 16.5154 23.0673 16.3195 22.7392 16.3259V16.3259ZM4.76588 16.4841H8.828V17.6675H4.76588V16.4841Z" fill="#3A383B"/>
</svg>
