<svg width="34" height="34" viewBox="0 0 34 34" fill="none" xmlns="http://www.w3.org/2000/svg">
<path d="M32.1495 15.7458C32.11 15.2501 32.481 14.8163 32.9762 14.7781C33.4718 14.74 33.9055 15.1097 33.9436 15.6052C33.9592 15.8006 33.9728 16.0322 33.983 16.2998C33.9943 16.5762 34 16.8078 34 16.9954C34 21.6909 32.0967 25.9429 29.0207 29.0201C25.9445 32.0974 21.6946 34 17 34C12.306 34 8.05552 32.096 4.97928 29.0201C1.90305 25.9429 0 21.6915 0 16.9954C0 12.3852 1.83698 8.20175 4.81758 5.13853C7.80501 2.06702 11.9451 0.12259 16.5414 0.000235523C17.0369 -0.0110012 17.4481 0.381234 17.4594 0.876922C17.4706 1.37264 17.0785 1.78398 16.583 1.79522C12.4777 1.90523 8.77669 3.64506 6.10505 6.39178C3.4413 9.12961 1.8008 12.8709 1.8008 16.997C1.8008 21.1948 3.50169 24.9959 6.25211 27.7473C9.00233 30.4985 12.8021 32.2001 16.9995 32.2001C21.1959 32.2001 24.9964 30.4987 27.747 27.7473C30.4972 24.9962 32.1983 21.1951 32.1983 16.997C32.1983 16.7406 32.1949 16.5329 32.1881 16.3722C32.1813 16.1979 32.168 15.9901 32.1486 15.7484L32.1495 15.7458ZM8.57281 15.9538C8.24471 15.583 8.27945 15.0154 8.6504 14.6872C9.02108 14.359 9.58845 14.3937 9.9166 14.7648L15.0668 20.5877L30.4506 5.03749C30.8001 4.68576 31.3696 4.68472 31.7212 5.03409C32.0728 5.38374 32.0739 5.95339 31.7246 6.30514L15.6673 22.535L15.6663 22.534L15.6248 22.5734C15.2541 22.9027 14.6867 22.8669 14.3586 22.4958L8.57256 15.9538L8.57281 15.9538Z" fill="black"/>
</svg>
