<svg width="42" height="42" viewBox="0 0 42 42" fill="none" xmlns="http://www.w3.org/2000/svg">
<rect width="42" height="41.5725" rx="20.7862" fill="white"/>
<path d="M32 32.5715L10 32.5725L12.357 13.7145L15.5776 13.7152C15.962 11.0525 18.2319 9 21.0001 9C23.7682 9 26.0358 11.0525 26.4201 13.7145L29.6429 13.7151L32 32.5715ZM21 10.5715C19.1008 10.5715 17.5335 11.9235 17.1674 13.7145L24.8336 13.7151C24.4665 11.9235 22.8983 10.5715 21 10.5715V10.5715ZM13.6009 15.2858L11.5713 31L30.4284 31.0007L28.4641 15.2856L13.6003 15.2865L13.6009 15.2858ZM24.5354 19.2143C23.8849 19.2143 23.3571 18.6862 23.3571 18.035C23.3571 17.3845 23.8848 16.857 24.5354 16.857C25.1863 16.857 25.7141 17.3845 25.7141 18.035C25.7141 18.6871 25.1863 19.2143 24.5354 19.2143ZM17.4639 19.2143C16.8127 19.2143 16.2856 18.6862 16.2856 18.035C16.2856 17.3845 16.8127 16.857 17.4639 16.857C18.1154 16.857 18.6425 17.3845 18.6425 18.035C18.6425 18.6871 18.1145 19.2143 17.4639 19.2143Z" fill="#3A383B"/>
</svg>
