<svg width="24" height="26" viewBox="0 0 24 26" fill="none" xmlns="http://www.w3.org/2000/svg">
<path d="M22.9524 21.768C22.9524 19.5842 17.8833 18.1294 13.6271 17.2964C13.1205 17.1905 12.6343 17.5246 12.5378 18.0292C12.4395 18.532 12.7679 19.0182 13.2707 19.1184C17.0966 19.8736 20.7613 21.1575 21.1005 21.7773L21.1007 23.2059H2.80629L2.79697 21.8607C3.13285 21.1391 6.76211 19.7438 10.5675 18.879C10.9905 18.7844 11.2891 18.4059 11.2891 17.9737V16.5654C11.3318 16.5672 11.3726 16.5784 11.4152 16.5784H12.4914C15.3396 16.5784 17.6589 14.2666 17.6589 11.4203L17.6591 6.10266C17.6591 3.25448 15.3417 0.938965 12.4916 0.938965H11.4154C8.56918 0.938965 6.25361 3.25453 6.25361 6.10266V11.4219C6.25361 13.5649 7.5673 15.4017 9.4337 16.1809V17.2385C5.40584 18.2053 0.956543 19.7379 0.956543 21.7751V24.1333C0.956543 24.6436 1.37215 25.061 1.88425 25.061H22.0288C22.5428 25.061 22.9565 24.6436 22.9565 24.1333C22.9565 24.1259 22.9528 24.1221 22.9528 24.1147L22.9524 21.768ZM8.11116 11.4201V6.10244C8.11116 4.27665 9.59178 2.79603 11.4157 2.79603H12.4919C14.3196 2.79603 15.8039 4.28036 15.8039 6.10244L15.8019 11.4201C15.8019 13.2384 14.3175 14.7209 12.4918 14.7209H11.4156C9.59369 14.7209 8.11121 13.2384 8.11121 11.4201H8.11116Z" fill="#3A383B" stroke="#FDF7EB" stroke-width="0.4"/>
</svg>
