<svg width="842" height="395" viewBox="0 0 842 395" fill="none" xmlns="http://www.w3.org/2000/svg">
<g clip-path="url(#clip0_436_2267)">
<rect width="842" height="395" fill="#EBE6D2"/>
<path d="M225.912 89.1825L237.79 64.6704L242.475 66.9418L230.597 91.4538L225.912 89.1825Z" fill="#B18F68" fill-opacity="0.2"/>
<path d="M151.605 -3.83252L174.675 10.6579L171.905 15.0683L148.835 0.57788L151.605 -3.83252Z" fill="#B18F68" fill-opacity="0.2"/>
<path d="M44.0099 85.1911L16.7793 84.4484L16.9217 79.2444L44.1523 79.9871L44.0099 85.1911Z" fill="#B18F68" fill-opacity="0.2"/>
<path d="M139.735 84.2861L132.732 110.614L127.701 109.276L134.704 82.9482L139.735 84.2861Z" fill="#B18F68" fill-opacity="0.2"/>
<path d="M110.062 78.1591C109.601 78.1591 109.143 78.1184 108.68 78.0396C106.997 77.7395 105.872 76.132 106.173 74.4431C106.473 72.7593 108.088 71.6452 109.769 71.9352C110.372 72.0369 110.977 71.836 111.369 71.3705C111.822 70.8338 111.817 70.1573 111.656 69.7045C110.73 67.0618 111.277 64.1012 113.086 61.9749C114.904 59.8307 117.753 58.8286 120.505 59.3245C120.953 59.3932 121.622 59.2991 122.093 58.7523C122.553 58.2156 122.545 57.539 122.388 57.0863C121.823 55.4736 122.667 53.7034 124.288 53.1362C125.885 52.5639 127.676 53.416 128.238 55.0362C129.169 57.6789 128.622 60.6396 126.818 62.7659C125.007 64.8948 122.166 65.9122 119.404 65.4238C118.816 65.3221 118.201 65.5306 117.807 65.9885C117.346 66.5277 117.351 67.1992 117.506 67.6469C118.432 70.2946 117.891 73.2553 116.087 75.3817C114.584 77.1596 112.361 78.1592 110.062 78.1592L110.062 78.1591Z" fill="#B18F68" fill-opacity="0.2"/>
<path d="M225.26 122.208C223.745 122.208 222.419 121.091 222.198 119.55C222.129 119.082 221.819 118.484 221.155 118.215C220.509 117.953 219.861 118.174 219.474 118.467C217.256 120.181 214.275 120.588 211.688 119.542C209.091 118.502 207.224 116.121 206.838 113.339C206.772 112.886 206.461 112.293 205.795 112.021C205.136 111.747 204.5 111.97 204.124 112.266C202.768 113.311 200.825 113.067 199.775 111.719C198.729 110.366 198.973 108.42 200.321 107.369C202.542 105.645 205.533 105.225 208.12 106.276C210.717 107.326 212.576 109.697 212.973 112.466C213.057 113.079 213.446 113.57 214.008 113.794C214.675 114.061 215.31 113.845 215.692 113.558C217.915 111.851 220.904 111.436 223.478 112.466C226.075 113.525 227.929 115.895 228.328 118.665C228.572 120.356 227.397 121.933 225.703 122.172C225.556 122.198 225.406 122.208 225.261 122.208H225.26Z" fill="#B18F68" fill-opacity="0.2"/>
<path d="M260.253 12.3742C257.857 12.3742 255.558 11.2804 254.062 9.37789C252.34 7.21592 251.893 4.23749 252.908 1.61763C253.093 1.15472 253.119 0.501053 252.681 -0.0458374C252.221 -0.6283 251.554 -0.745286 251.102 -0.686801C248.299 -0.307819 245.511 -1.40916 243.787 -3.59913C242.055 -5.78656 241.617 -8.76501 242.645 -11.3724C243.265 -12.9697 245.076 -13.7455 246.664 -13.1224C248.261 -12.4941 249.042 -10.6984 248.413 -9.1036C248.243 -8.66357 248.213 -7.9921 248.65 -7.43251C249.021 -6.96451 249.576 -6.74322 250.237 -6.81953C252.997 -7.22394 255.813 -6.09461 257.537 -3.88687C259.279 -1.71728 259.73 1.27392 258.674 3.89358C258.514 4.30562 258.483 4.98728 258.926 5.54173C259.373 6.11147 260.045 6.23864 260.498 6.16997C262.204 5.89273 263.766 7.1009 264.005 8.79483C264.249 10.4914 263.074 12.0632 261.38 12.3023C261.004 12.3532 260.63 12.3735 260.254 12.3735L260.253 12.3742Z" fill="#B18F68" fill-opacity="0.2"/>
<path d="M7.86541 124.051C7.81454 124.051 7.76621 124.051 7.71534 124.049C6.0061 123.967 4.68605 122.517 4.7649 120.803C4.79288 120.195 4.50546 119.628 3.99675 119.297C3.41429 118.918 2.75042 119.018 2.32568 119.221C-0.205094 120.493 -3.21406 120.333 -5.54657 118.809C-7.90186 117.306 -9.28807 114.615 -9.13544 111.802C-9.11764 111.356 -9.31095 110.7 -9.90359 110.319C-10.5064 109.932 -11.1626 110.016 -11.5798 110.242C-13.1084 111.018 -14.9702 110.42 -15.7511 108.897C-16.5319 107.373 -15.9291 105.501 -14.4056 104.723C-11.9053 103.446 -8.89121 103.594 -6.53331 105.112C-4.1984 106.623 -2.82234 109.299 -2.93681 112.099C-2.96988 112.722 -2.67738 113.284 -2.17883 113.602C-1.5633 113.999 -0.891787 113.907 -0.46197 113.694C2.02557 112.429 5.032 112.582 7.37447 114.095C9.72722 115.624 11.1007 118.302 10.9659 121.103C10.8794 122.764 9.51352 124.051 7.86536 124.051L7.86541 124.051Z" fill="#B18F68" fill-opacity="0.2"/>
<path d="M94.4467 95.8371C94.4467 98.8867 91.9744 101.359 88.9247 101.359C85.875 101.359 83.4053 98.8867 83.4053 95.8371C83.4053 92.7899 85.875 90.3176 88.9247 90.3176C91.9744 90.3176 94.4467 92.7899 94.4467 95.8371Z" fill="#B18F68" fill-opacity="0.2"/>
<path d="M123.019 10.1084C123.019 13.1555 120.547 15.6278 117.497 15.6278C114.45 15.6278 111.978 13.1555 111.978 10.1084C111.978 7.05873 114.45 4.58643 117.497 4.58643C120.547 4.58643 123.019 7.05873 123.019 10.1084Z" fill="#B18F68" fill-opacity="0.2"/>
<path d="M228.53 36.1801C228.53 39.2297 226.057 41.702 223.008 41.702C219.958 41.702 217.488 39.2297 217.488 36.1801C217.488 33.1329 219.958 30.6606 223.008 30.6606C226.057 30.6606 228.53 33.1329 228.53 36.1801Z" fill="#B18F68" fill-opacity="0.2"/>
<path d="M173.827 83.5894C173.827 86.6365 171.354 89.1088 168.305 89.1088C165.257 89.1088 162.785 86.6365 162.785 83.5894C162.785 80.5397 165.257 78.0674 168.305 78.0674C171.354 78.0674 173.827 80.5397 173.827 83.5894Z" fill="#B18F68" fill-opacity="0.2"/>
<path d="M27.9594 39.8267C27.9594 42.8763 25.4896 45.3461 22.4399 45.3461C19.3903 45.3461 16.918 42.8763 16.918 39.8267C16.918 36.777 19.3903 34.3047 22.4399 34.3047C25.4896 34.3047 27.9594 36.777 27.9594 39.8267Z" fill="#B18F68" fill-opacity="0.2"/>
<path d="M506.817 67.4801L518.504 42.8761L523.206 45.1109L511.52 69.7148L506.817 67.4801Z" fill="#B18F68" fill-opacity="0.2"/>
<path d="M324.889 64.907L297.654 64.3767L297.756 59.1717L324.991 59.702L324.889 64.907Z" fill="#B18F68" fill-opacity="0.2"/>
<path d="M420.604 63.2557L413.807 89.6376L408.766 88.339L415.563 61.9571L420.604 63.2557Z" fill="#B18F68" fill-opacity="0.2"/>
<path d="M390.884 57.3601C390.424 57.3637 389.965 57.3265 389.502 57.2513C387.816 56.9643 386.679 55.3656 386.966 53.6745C387.253 51.9884 388.859 50.8618 390.543 51.1386C391.146 51.2356 391.75 51.03 392.138 50.5615C392.587 50.0213 392.576 49.3448 392.413 48.8933C391.466 46.2579 391.99 43.2931 393.782 41.1527C395.584 38.9944 398.424 37.9701 401.181 38.4446C401.629 38.5098 402.297 38.4105 402.763 37.86C403.219 37.3197 403.207 36.6432 403.045 36.1917C402.468 34.5836 403.299 32.8068 404.914 32.2269C406.507 31.6422 408.304 32.4803 408.879 34.0961C409.831 36.7315 409.307 39.6963 407.52 41.8366C405.726 43.9795 402.893 45.0191 400.127 44.5523C399.538 44.4551 398.924 44.6685 398.534 45.1294C398.078 45.6722 398.088 46.3436 398.247 46.79C399.193 49.4305 398.674 52.3953 396.888 54.5357C395.398 56.3253 393.183 57.3422 390.884 57.3601L390.884 57.3601Z" fill="#B18F68" fill-opacity="0.2"/>
<path d="M506.423 100.509C504.907 100.521 503.573 99.4149 503.34 97.8753C503.267 97.4079 502.952 96.8126 502.286 96.5482C501.638 96.2913 500.991 96.5176 500.607 96.8131C498.403 98.5447 495.425 98.9748 492.83 97.9496C490.225 96.9296 488.34 94.5636 487.931 91.7841C487.862 91.3319 487.547 90.7417 486.878 90.4748C486.217 90.2052 485.583 90.434 485.209 90.732C483.862 91.7879 481.917 91.5589 480.856 90.219C479.8 88.8741 480.029 86.9265 481.368 85.8655C483.575 84.1238 486.563 83.6807 489.158 84.711C491.763 85.7412 493.641 88.0972 494.06 90.8639C494.148 91.4762 494.541 91.964 495.105 92.1835C495.773 92.4453 496.408 92.2242 496.787 91.9338C498.997 90.2098 501.982 89.7719 504.564 90.7819C507.169 91.8198 509.042 94.1757 509.462 96.9424C509.72 98.6319 508.557 100.218 506.865 100.47C506.718 100.497 506.568 100.508 506.423 100.509L506.423 100.509Z" fill="#B18F68" fill-opacity="0.2"/>
<path d="M289.049 104.048C288.998 104.048 288.949 104.049 288.898 104.046C287.189 103.978 285.857 102.539 285.923 100.824C285.946 100.216 285.654 99.651 285.143 99.3243C284.558 98.9499 283.894 99.0543 283.471 99.2611C280.951 100.552 277.94 100.416 275.596 98.9104C273.229 97.4256 271.822 94.7455 271.953 91.9311C271.967 91.4859 271.769 90.8311 271.173 90.4543C270.567 90.0724 269.912 90.1614 269.496 90.391C267.974 91.1787 266.107 90.5955 265.315 89.0781C264.522 87.5607 265.11 85.6841 266.627 84.8938C269.118 83.5976 272.133 83.7215 274.503 85.2216C276.849 86.7142 278.246 89.3791 278.153 92.18C278.125 92.8034 278.422 93.3632 278.923 93.6773C279.542 94.0693 280.212 93.9725 280.641 93.7555C283.118 92.472 286.126 92.6011 288.48 94.0962C290.845 95.6065 292.239 98.2739 292.126 101.076C292.052 102.737 290.697 104.035 289.048 104.047L289.049 104.048Z" fill="#B18F68" fill-opacity="0.2"/>
<path d="M375.407 75.1597C375.431 78.2093 372.978 80.7008 369.929 80.7246C366.879 80.7484 364.39 78.2954 364.366 75.2458C364.343 72.1988 366.793 69.7073 369.843 69.6835C372.892 69.6597 375.384 72.1127 375.407 75.1597Z" fill="#B18F68" fill-opacity="0.2"/>
<path d="M509.022 14.4585C509.045 17.5081 506.592 19.9996 503.543 20.0234C500.493 20.0472 498.004 17.5942 497.981 14.5446C497.957 11.4976 500.407 9.00613 503.457 8.98234C506.506 8.95856 508.998 11.4115 509.022 14.4585Z" fill="#B18F68" fill-opacity="0.2"/>
<path d="M454.69 62.2931C454.713 65.3401 452.26 67.8316 449.211 67.8554C446.164 67.8792 443.672 65.4263 443.649 62.3792C443.625 59.3296 446.078 56.8381 449.125 56.8144C452.174 56.7906 454.666 59.2435 454.69 62.2931Z" fill="#B18F68" fill-opacity="0.2"/>
<path d="M308.486 19.6691C308.509 22.7187 306.059 25.2076 303.009 25.2314C299.96 25.2552 297.468 22.8048 297.444 19.7552C297.421 16.7056 299.874 14.2141 302.923 14.1903C305.973 14.1665 308.462 16.6195 308.486 19.6691Z" fill="#B18F68" fill-opacity="0.2"/>
<path d="M579.114 85.1275L603.551 97.16L601.25 101.831L576.814 89.7982L579.114 85.1275Z" fill="#B18F68" fill-opacity="0.2"/>
<path d="M672.597 11.4085L657.961 34.3864L653.568 31.5887L668.204 8.61083L672.597 11.4085Z" fill="#B18F68" fill-opacity="0.2"/>
<path d="M824.49 55.2259L806.741 75.8868L802.794 72.4968L820.544 51.8358L824.49 55.2259Z" fill="#B18F68" fill-opacity="0.2"/>
<path d="M704.778 58.559L722.761 79.0132L718.85 82.4503L700.867 61.9961L704.778 58.559Z" fill="#B18F68" fill-opacity="0.2"/>
<path d="M546.094 84.2671C546.103 82.7512 547.228 81.4331 548.771 81.2215C549.24 81.1558 549.839 80.8493 550.113 80.1871C550.379 79.5427 550.162 78.8928 549.872 78.5043C548.172 76.2757 547.783 73.2921 548.845 70.712C549.902 68.1217 552.294 66.2699 555.079 65.9009C555.532 65.8376 556.127 65.531 556.403 64.8663C556.682 64.2093 556.462 63.572 556.17 63.1937C555.133 61.8315 555.389 59.8898 556.744 58.8479C558.104 57.811 560.048 58.0675 561.09 59.4222C562.8 61.6535 563.201 64.6472 562.134 67.2276C561.067 69.8178 558.685 71.6622 555.913 72.0414C555.299 72.1215 554.806 72.5075 554.579 73.0682C554.307 73.7329 554.52 74.3701 554.805 74.7534C556.497 76.9872 556.893 79.9783 555.847 82.5458C554.772 85.136 552.39 86.9752 549.618 87.357C547.925 87.5905 546.355 86.4055 546.127 84.7101C546.102 84.5624 546.093 84.4123 546.094 84.2673L546.094 84.2671Z" fill="#B18F68" fill-opacity="0.2"/>
<path d="M767.653 100.87C767.662 99.4763 768.619 98.2182 770.033 97.8812C770.636 97.7349 771.102 97.3055 771.279 96.7292C771.458 96.158 771.301 95.5364 770.885 95.081C768.98 93.0087 768.301 90.0692 769.122 87.4111C769.92 84.7352 772.123 82.6609 774.869 82.0372C775.299 81.9331 775.874 81.5654 776.084 80.8851C776.263 80.3037 776.117 79.6898 775.693 79.2318C774.533 77.9781 774.604 76.015 775.858 74.8528C777.117 73.6907 779.077 73.7642 780.239 75.0229C782.144 77.0799 782.84 80.0094 782.015 82.693C781.209 85.3459 779.016 87.4152 776.293 88.0721C775.679 88.2132 775.221 88.6452 775.052 89.2139C774.829 89.9018 775.113 90.5267 775.431 90.8823C777.333 92.9292 778.017 95.8713 777.201 98.5367C776.386 101.205 774.193 103.267 771.467 103.911C769.801 104.31 768.132 103.282 767.733 101.618C767.676 101.366 767.652 101.119 767.653 100.87L767.653 100.87Z" fill="#B18F68" fill-opacity="0.2"/>
<path d="M655.705 119.952C655.72 117.556 656.828 115.264 658.74 113.78C660.913 112.072 663.894 111.643 666.507 112.675C666.969 112.863 667.623 112.893 668.172 112.459C668.758 112.002 668.879 111.336 668.823 110.883C668.462 108.078 669.581 105.297 671.782 103.587C673.98 101.869 676.961 101.45 679.562 102.494C681.155 103.125 681.92 104.94 681.286 106.524C680.648 108.117 678.847 108.886 677.257 108.248C676.818 108.075 676.146 108.04 675.584 108.474C675.114 108.843 674.889 109.396 674.961 110.057C675.348 112.82 674.201 115.628 671.982 117.339C669.802 119.067 666.808 119.499 664.195 118.427C663.784 118.264 663.103 118.229 662.545 118.668C661.973 119.112 661.841 119.783 661.907 120.236C662.174 121.944 660.956 123.498 659.26 123.727C657.562 123.96 655.998 122.775 655.769 121.08C655.721 120.703 655.703 120.329 655.705 119.953L655.705 119.952Z" fill="#B18F68" fill-opacity="0.2"/>
<path d="M741.731 52.3061C738.682 52.2869 736.225 49.799 736.244 46.7494C736.264 43.6998 738.751 41.2457 741.801 41.265C744.851 41.2842 747.305 43.7695 747.285 46.8191C747.266 49.8687 744.781 52.3254 741.731 52.3061Z" fill="#B18F68" fill-opacity="0.2"/>
<path d="M632.099 88.0796C629.05 88.0603 626.593 85.5725 626.612 82.5229C626.632 79.4733 629.12 77.0192 632.169 77.0384C635.216 77.0576 637.673 79.543 637.654 82.5926C637.634 85.6422 635.147 88.0988 632.099 88.0796Z" fill="#B18F68" fill-opacity="0.2"/>
<path d="M814.202 125.7C811.152 125.681 808.696 123.195 808.715 120.146C808.734 117.096 811.222 114.642 814.272 114.661C817.321 114.68 819.775 117.166 819.756 120.215C819.737 123.265 817.252 125.719 814.202 125.7Z" fill="#B18F68" fill-opacity="0.2"/>
<path d="M814.892 16.2974C811.843 16.2781 809.386 13.7902 809.405 10.7406C809.425 7.69357 811.913 5.23693 814.962 5.25618C818.012 5.27543 820.466 7.76327 820.447 10.8103C820.427 13.8599 817.942 16.3166 814.892 16.2974Z" fill="#B18F68" fill-opacity="0.2"/>
<path d="M585.036 33.0786C581.989 33.0594 579.533 30.5715 579.552 27.5219C579.571 24.4748 582.059 22.0182 585.106 22.0374C588.156 22.0567 590.612 24.5445 590.593 27.5916C590.574 30.6412 588.086 33.0978 585.036 33.0786Z" fill="#B18F68" fill-opacity="0.2"/>
</g>
<defs>
<clipPath id="clip0_436_2267">
<rect width="842" height="395" fill="white"/>
</clipPath>
</defs>
</svg>
