<svg width="301" height="302" viewBox="0 0 301 302" fill="none" xmlns="http://www.w3.org/2000/svg">
<path d="M75.816 181.379L75.2625 179.448L86.1081 171.009L72.4418 169.607L71.8854 167.666L88.6728 169.47L89.1049 170.977L75.816 181.379ZM75.9966 182.009L75.5082 180.305L84.5981 177.398L90.4635 175.717L91.0318 177.7L75.9966 182.009ZM72.1962 168.75L71.7078 167.046L86.743 162.737L87.3113 164.719L81.4459 166.401L72.1962 168.75Z" fill="#B6ADA3"/>
<path d="M78.3183 145.585L79.3066 145.592C80.481 145.601 81.5326 145.756 82.4614 146.056C83.3902 146.357 84.1783 146.786 84.8258 147.342C85.4733 147.898 85.9661 148.564 86.304 149.34C86.642 150.109 86.8074 150.97 86.8002 151.922C86.7933 152.846 86.615 153.693 86.2655 154.464C85.916 155.228 85.4132 155.89 84.7573 156.451C84.1014 157.005 83.3069 157.432 82.3736 157.733C81.4403 158.034 80.3864 158.18 79.212 158.171L78.2237 158.164C77.0493 158.155 76.0013 157.996 75.0798 157.689C74.1511 157.374 73.363 156.935 72.7156 156.371C72.0609 155.808 71.5646 155.141 71.2267 154.373C70.8887 153.597 70.7232 152.747 70.7302 151.823C70.7374 150.87 70.9157 150.012 71.2652 149.249C71.6148 148.478 72.121 147.819 72.784 147.273C73.4399 146.719 74.2344 146.299 75.1676 146.012C76.0936 145.718 77.1439 145.576 78.3183 145.585ZM79.2912 147.644L78.2814 147.636C77.3505 147.629 76.5262 147.72 75.8086 147.908C75.0911 148.089 74.4875 148.36 73.9978 148.721C73.508 149.083 73.1359 149.528 72.8812 150.056C72.6267 150.577 72.4969 151.17 72.4919 151.836C72.487 152.481 72.6079 153.065 72.8547 153.59C73.1014 154.107 73.4669 154.554 73.9511 154.93C74.4353 155.299 75.0347 155.586 75.7493 155.792C76.4639 155.998 77.2867 156.105 78.2177 156.112L79.2274 156.119C80.1655 156.126 80.997 156.032 81.7218 155.837C82.4394 155.642 83.0467 155.36 83.5436 154.992C84.0335 154.616 84.4056 154.171 84.6602 153.657C84.9147 153.136 85.0444 152.554 85.0493 151.909C85.0544 151.236 84.9335 150.637 84.6868 150.112C84.4401 149.588 84.0746 149.144 83.5903 148.783C83.099 148.414 82.4959 148.134 81.7812 147.942C81.0593 147.75 80.2293 147.651 79.2912 147.644Z" fill="#B6ADA3"/>
<path d="M82.7397 126.765L83.6924 127.028C84.8246 127.341 85.8003 127.762 86.6196 128.293C87.439 128.824 88.0894 129.442 88.5709 130.147C89.0525 130.851 89.356 131.622 89.4816 132.459C89.6092 133.29 89.5462 134.164 89.2929 135.082C89.0471 135.972 88.6557 136.745 88.1186 137.399C87.5834 138.046 86.9264 138.556 86.1477 138.928C85.3709 139.293 84.4928 139.5 83.5134 139.549C82.5341 139.598 81.4783 139.467 80.3461 139.154L79.3935 138.891C78.2613 138.579 77.29 138.155 76.4794 137.619C75.6639 137.075 75.0163 136.446 74.5367 135.735C74.0502 135.021 73.7432 134.249 73.6157 133.419C73.49 132.582 73.5501 131.718 73.7959 130.828C74.0492 129.909 74.4435 129.127 74.9787 128.479C75.5159 127.825 76.1753 127.32 76.9571 126.964C77.7339 126.599 78.6101 126.398 79.5857 126.363C80.5562 126.319 81.6076 126.453 82.7397 126.765ZM83.1466 129.006L82.1732 128.738C81.2758 128.49 80.4562 128.364 79.7144 128.36C78.9745 128.349 78.3213 128.455 77.7547 128.677C77.1881 128.9 76.7135 129.233 76.3309 129.677C75.9502 130.115 75.6713 130.654 75.4941 131.296C75.3227 131.917 75.2882 132.513 75.3908 133.084C75.4952 133.648 75.7326 134.174 76.103 134.662C76.4753 135.144 76.9799 135.577 77.6169 135.961C78.2539 136.344 79.0211 136.66 79.9186 136.908L80.8919 137.176C81.7963 137.426 82.6238 137.55 83.3743 137.549C84.118 137.547 84.7776 137.431 85.353 137.204C85.9234 136.968 86.398 136.634 86.7768 136.204C87.1574 135.767 87.4335 135.237 87.605 134.616C87.784 133.967 87.8223 133.357 87.7198 132.787C87.6172 132.216 87.3788 131.693 87.0047 131.219C86.6255 130.735 86.1155 130.308 85.4747 129.938C84.827 129.567 84.0509 129.256 83.1466 129.006Z" fill="#B6ADA3"/>
<path d="M95.1153 120.65L93.4792 123.477L92.0304 122.613L93.6557 119.805C94.2155 118.839 94.4805 117.916 94.4507 117.038C94.4148 116.157 94.1245 115.344 93.5797 114.598C93.0323 113.842 92.2659 113.179 91.2805 112.609L90.4531 112.13C89.6783 111.682 88.9366 111.376 88.2277 111.214C87.5127 111.048 86.8435 111.025 86.2202 111.144C85.5906 111.26 85.0167 111.515 84.4984 111.91C83.9836 112.299 83.5325 112.828 83.145 113.497L81.3798 116.547L79.9109 115.696L81.6761 112.647C82.1892 111.761 82.8062 111.038 83.5271 110.479C84.2417 109.916 85.0305 109.533 85.8933 109.329C86.7534 109.115 87.6596 109.094 88.6118 109.264C89.5577 109.431 90.5204 109.798 91.4996 110.365L92.3084 110.833C93.2877 111.4 94.0884 112.054 94.7104 112.795C95.3263 113.532 95.754 114.33 95.9934 115.188C96.2365 116.041 96.2879 116.931 96.1476 117.859C96.0048 118.778 95.6607 119.708 95.1153 120.65ZM80.4975 114.683L94.0336 122.519L92.9948 124.313L79.4588 116.477L80.4975 114.683Z" fill="#B6ADA3"/>
<path d="M103.07 88.3169L112.732 100.616L111.127 101.877L101.465 89.5778L103.07 88.3169ZM107.023 85.2112L108.072 86.5459L98.5687 94.0115L97.5202 92.6768L107.023 85.2112Z" fill="#B6ADA3"/>
<path d="M126.509 82.948L127.191 84.4903L119.45 87.9158L118.768 86.3735L126.509 82.948ZM116.341 80.0937L122.671 94.3965L120.775 95.2354L114.445 80.9327L116.341 80.0937ZM125.438 76.0683L131.767 90.3711L129.881 91.2057L123.552 76.903L125.438 76.0683Z" fill="#B6ADA3"/>
<path d="M146.381 85.8081L146.672 87.4693L138.514 88.8997L138.223 87.2385L146.381 85.8081ZM136.226 73.4217L138.927 88.8273L136.885 89.1854L134.184 73.7798L136.226 73.4217ZM144.053 78.8765L144.344 80.5377L137.266 81.7788L136.974 80.1176L144.053 78.8765ZM143.865 72.0822L144.158 73.754L136.106 75.1658L135.813 73.4941L143.865 72.0822Z" fill="#B6ADA3"/>
<path d="M152.316 71.7737L157.485 72.0687C158.658 72.1356 159.638 72.3708 160.425 72.7744C161.22 73.1784 161.808 73.7428 162.19 74.4676C162.58 75.1856 162.745 76.0522 162.687 77.0675C162.647 77.7825 162.463 78.4283 162.136 79.005C161.816 79.575 161.373 80.0518 160.806 80.4355C160.246 80.8124 159.586 81.0796 158.823 81.2369L158.231 81.4291L153.373 81.1519L153.448 79.4669L157.116 79.6762C157.859 79.7186 158.485 79.6252 158.993 79.396C159.501 79.1596 159.893 78.8269 160.169 78.3979C160.445 77.9689 160.598 77.4862 160.628 76.95C160.662 76.3494 160.574 75.8172 160.364 75.3533C160.154 74.8894 159.802 74.5214 159.308 74.2493C158.822 73.9705 158.182 73.8085 157.388 73.7632L154.289 73.5863L153.495 87.507L151.425 87.3889L152.316 71.7737ZM160.552 87.9097L157.159 80.6147L159.315 80.727L162.768 87.9071L162.761 88.0358L160.552 87.9097Z" fill="#B6ADA3"/>
<path d="M176.55 77.1367L167.391 89.2244L165.369 88.5989L175.687 75.4192L176.991 75.8224L176.55 77.1367ZM176.483 92.0374L175.739 76.8859L176.118 75.5525L177.422 75.9558L178.515 92.6661L176.483 92.0374ZM177.938 86.4267L177.436 88.0482L169.041 85.451L169.543 83.8296L177.938 86.4267Z" fill="#B6ADA3"/>
<path d="M190.24 92.4365L186.663 90.277L187.534 88.8332L191.112 90.9927C191.805 91.4109 192.432 91.6391 192.995 91.6775C193.557 91.7158 194.055 91.598 194.488 91.3241C194.927 91.0538 195.298 90.6673 195.602 90.1646C195.879 89.7047 196.039 89.2114 196.081 88.6846C196.129 88.1616 196.013 87.6479 195.731 87.1436C195.454 86.6331 194.969 86.1688 194.276 85.7506L191.112 83.8409L183.907 95.7781L182.132 94.7067L190.215 81.3165L195.153 84.2976C196.165 84.9082 196.915 85.5992 197.403 86.3706C197.891 87.142 198.129 87.9464 198.117 88.784C198.108 89.6155 197.865 90.4267 197.388 91.2176C196.87 92.0759 196.247 92.6994 195.518 93.088C194.79 93.4766 193.981 93.6194 193.089 93.5163C192.202 93.4071 191.252 93.0472 190.24 92.4365Z" fill="#B6ADA3"/>
<path d="M206.471 92.7826L203.836 101.221L212.252 98.501L213.925 100.155L203.202 103.329L199.092 107.483L197.618 106.026L201.728 101.871L204.783 91.1132L206.471 92.7826Z" fill="#B6ADA3"/>
<path d="M206.135 114.314C206.412 114.123 206.704 114.048 207.011 114.089C207.327 114.131 207.599 114.318 207.827 114.648C208.055 114.978 208.131 115.296 208.054 115.601C207.987 115.908 207.816 116.157 207.538 116.348C207.267 116.535 206.976 116.605 206.666 116.559C206.359 116.518 206.092 116.332 205.864 116.002C205.637 115.672 205.556 115.354 205.623 115.047C205.693 114.745 205.864 114.501 206.135 114.314Z" fill="#B6ADA3"/>
<path d="M225.644 121.19L226.163 123.13L215.168 131.374L228.807 133.02L229.329 134.971L212.577 132.868L212.172 131.352L225.644 121.19ZM225.475 120.557L225.933 122.269L216.792 125.013L210.898 126.589L210.365 124.597L225.475 120.557ZM229.038 133.882L229.496 135.594L214.386 139.634L213.853 137.641L219.747 136.065L229.038 133.882Z" fill="#B6ADA3"/>
<path d="M222.502 156.934L221.515 156.908C220.34 156.879 219.292 156.705 218.369 156.388C217.445 156.071 216.665 155.628 216.027 155.061C215.39 154.493 214.909 153.818 214.585 153.036C214.261 152.261 214.111 151.398 214.135 150.446C214.159 149.522 214.352 148.678 214.715 147.914C215.078 147.156 215.593 146.503 216.259 145.954C216.924 145.412 217.727 144.999 218.665 144.715C219.604 144.431 220.66 144.304 221.834 144.333L222.822 144.359C223.996 144.388 225.041 144.565 225.957 144.89C226.88 145.221 227.66 145.674 228.297 146.249C228.942 146.824 229.426 147.499 229.75 148.274C230.074 149.056 230.224 149.909 230.201 150.832C230.177 151.784 229.983 152.639 229.62 153.396C229.257 154.161 228.739 154.81 228.066 155.345C227.4 155.887 226.599 156.293 225.66 156.563C224.729 156.84 223.677 156.963 222.502 156.934ZM221.567 154.857L222.576 154.883C223.507 154.907 224.333 154.831 225.053 154.656C225.774 154.488 226.382 154.228 226.878 153.875C227.375 153.522 227.755 153.084 228.019 152.561C228.282 152.044 228.423 151.453 228.44 150.787C228.456 150.143 228.346 149.557 228.108 149.028C227.871 148.506 227.514 148.052 227.036 147.668C226.559 147.29 225.964 146.992 225.254 146.774C224.543 146.555 223.722 146.434 222.791 146.41L221.782 146.385C220.844 146.361 220.011 146.44 219.283 146.622C218.562 146.804 217.95 147.075 217.446 147.435C216.95 147.802 216.57 148.24 216.306 148.749C216.042 149.265 215.902 149.846 215.886 150.49C215.869 151.163 215.979 151.764 216.216 152.293C216.453 152.822 216.811 153.272 217.289 153.642C217.773 154.02 218.371 154.311 219.082 154.515C219.801 154.719 220.629 154.834 221.567 154.857Z" fill="#B6ADA3"/>
<path d="M217.745 175.671L216.798 175.391C215.671 175.058 214.703 174.619 213.893 174.074C213.084 173.529 212.444 172.899 211.976 172.186C211.507 171.473 211.217 170.696 211.106 169.857C210.994 169.025 211.072 168.152 211.342 167.239C211.604 166.353 212.009 165.587 212.557 164.943C213.104 164.305 213.77 163.808 214.555 163.45C215.339 163.098 216.22 162.907 217.2 162.875C218.18 162.844 219.234 162.994 220.36 163.327L221.308 163.607C222.434 163.939 223.398 164.381 224.199 164.931C225.004 165.49 225.641 166.129 226.107 166.85C226.581 167.572 226.874 168.349 226.987 169.182C227.098 170.021 227.022 170.883 226.76 171.769C226.491 172.683 226.082 173.458 225.536 174.096C224.987 174.74 224.319 175.234 223.531 175.576C222.747 175.927 221.868 176.112 220.892 176.129C219.921 176.156 218.872 176.003 217.745 175.671ZM217.379 173.423L218.347 173.709C219.24 173.973 220.057 174.113 220.799 174.131C221.538 174.155 222.193 174.061 222.764 173.849C223.334 173.636 223.815 173.311 224.205 172.874C224.594 172.444 224.882 171.909 225.071 171.27C225.253 170.652 225.298 170.057 225.206 169.485C225.112 168.919 224.884 168.389 224.522 167.894C224.159 167.406 223.662 166.964 223.032 166.569C222.402 166.174 221.64 165.844 220.747 165.581L219.779 165.295C218.879 165.029 218.054 164.89 217.304 164.877C216.56 164.867 215.899 164.97 215.319 165.187C214.745 165.413 214.264 165.738 213.878 166.162C213.489 166.592 213.204 167.116 213.021 167.735C212.831 168.38 212.781 168.989 212.874 169.562C212.966 170.134 213.195 170.661 213.561 171.142C213.931 171.632 214.433 172.068 215.068 172.449C215.709 172.833 216.479 173.157 217.379 173.423Z" fill="#B6ADA3"/>
<path d="M205.263 181.563L206.949 178.767L208.382 179.656L206.707 182.434C206.13 183.391 205.849 184.308 205.863 185.187C205.883 186.069 206.158 186.887 206.69 187.642C207.224 188.407 207.978 189.084 208.953 189.672L209.772 190.166C210.538 190.628 211.275 190.947 211.98 191.121C212.692 191.3 213.361 191.335 213.986 191.227C214.618 191.123 215.196 190.878 215.722 190.492C216.243 190.113 216.704 189.592 217.103 188.929L218.923 185.912L220.376 186.789L218.557 189.806C218.028 190.683 217.398 191.394 216.667 191.94C215.943 192.49 215.147 192.859 214.281 193.048C213.417 193.246 212.511 193.252 211.562 193.064C210.619 192.88 209.663 192.496 208.694 191.912L207.894 191.429C206.925 190.845 206.136 190.177 205.527 189.425C204.924 188.677 204.511 187.871 204.287 187.009C204.059 186.152 204.024 185.261 204.181 184.335C204.34 183.42 204.7 182.496 205.263 181.563ZM219.771 187.791L206.378 179.714L207.448 177.939L220.842 186.016L219.771 187.791Z" fill="#B6ADA3"/>
<path d="M196.731 213.75L187.29 201.28L188.917 200.048L198.358 212.518L196.731 213.75ZM192.723 216.784L191.698 215.431L201.333 208.137L202.358 209.49L192.723 216.784Z" fill="#B6ADA3"/>
<path d="M173.2 218.699L172.545 217.145L180.346 213.858L181.001 215.412L173.2 218.699ZM183.315 221.734L177.242 207.321L179.153 206.516L185.225 220.929L183.315 221.734ZM174.148 225.597L168.075 211.183L169.976 210.382L176.049 224.796L174.148 225.597Z" fill="#B6ADA3"/>
<path d="M153.382 215.484L153.121 213.818L161.303 212.534L161.564 214.2L153.382 215.484ZM163.314 228.05L160.889 212.598L162.937 212.277L165.362 227.728L163.314 228.05ZM155.586 222.456L155.324 220.79L162.424 219.676L162.685 221.342L155.586 222.456ZM155.652 229.253L155.389 227.576L163.465 226.308L163.728 227.985L155.652 229.253Z" fill="#B6ADA3"/>
<path d="M147.197 229.41L142.034 229.022C140.863 228.934 139.887 228.682 139.107 228.264C138.319 227.846 137.741 227.271 137.373 226.54C136.996 225.815 136.846 224.945 136.922 223.931C136.975 223.217 137.171 222.575 137.508 222.004C137.838 221.44 138.289 220.971 138.863 220.597C139.429 220.231 140.095 219.975 140.86 219.832L141.455 219.65L146.308 220.014L146.203 221.698L142.539 221.423C141.797 221.367 141.169 221.449 140.657 221.669C140.145 221.897 139.747 222.222 139.464 222.646C139.18 223.07 139.019 223.55 138.979 224.086C138.934 224.685 139.012 225.219 139.214 225.687C139.416 226.154 139.761 226.529 140.25 226.809C140.731 227.097 141.368 227.27 142.161 227.33L145.257 227.562L146.3 213.658L148.367 213.813L147.197 229.41ZM139.251 213.129L142.513 220.483L140.359 220.333L137.035 213.092L137.044 212.963L139.251 213.129Z" fill="#B6ADA3"/>
<path d="M123.063 223.615L132.437 211.693L134.447 212.354L123.895 225.347L122.599 224.921L123.063 223.615ZM123.396 208.718L123.869 223.88L123.466 225.206L122.17 224.78L121.376 208.053L123.396 208.718ZM121.841 214.301L122.372 212.689L130.719 215.436L130.188 217.048L121.841 214.301Z" fill="#B6ADA3"/>
<path d="M109.648 208.072L113.187 210.295L112.289 211.723L108.751 209.5C108.066 209.07 107.442 208.83 106.881 208.782C106.319 208.733 105.819 208.842 105.382 209.108C104.938 209.371 104.559 209.751 104.247 210.248C103.961 210.703 103.793 211.193 103.741 211.719C103.684 212.241 103.791 212.757 104.063 213.266C104.332 213.781 104.808 214.254 105.494 214.685L108.623 216.651L116.041 204.844L117.796 205.947L109.475 219.191L104.591 216.122C103.59 215.493 102.853 214.789 102.379 214.009C101.905 213.229 101.681 212.42 101.708 211.583C101.731 210.752 101.989 209.945 102.48 209.163C103.013 208.314 103.648 207.702 104.383 207.326C105.118 206.951 105.93 206.822 106.819 206.941C107.705 207.067 108.648 207.443 109.648 208.072Z" fill="#B6ADA3"/>
<path d="M93.4266 207.436L96.212 199.046L87.7481 201.615L86.1053 199.931L96.8836 196.95L101.067 192.869L102.514 194.353L98.3314 198.434L95.0843 209.135L93.4266 207.436Z" fill="#B6ADA3"/>
<path d="M94.1469 185.914C93.8665 186.1 93.5734 186.17 93.2676 186.124C92.9519 186.076 92.6831 185.884 92.4613 185.55C92.2395 185.216 92.1696 184.897 92.2516 184.593C92.3237 184.288 92.5 184.042 92.7804 183.856C93.0548 183.673 93.3469 183.608 93.6567 183.661C93.9625 183.707 94.2263 183.897 94.4481 184.231C94.6699 184.565 94.7447 184.885 94.6727 185.191C94.5966 185.491 94.4213 185.732 94.1469 185.914Z" fill="#B6ADA3"/>
</svg>
