<svg width="23" height="24" viewBox="0 0 23 24" fill="none" xmlns="http://www.w3.org/2000/svg">
<path d="M9.36218 0.304271V0.304218C14.408 0.304423 18.524 4.42074 18.524 9.4664C18.524 11.5658 17.8079 13.5058 16.6121 15.0541L16.5044 15.1935L16.6291 15.3179L22.4614 21.1405C22.855 21.5342 22.855 22.1721 22.4614 22.5658C22.0677 22.9595 21.4202 22.9595 21.0266 22.5658L15.2039 16.7431L15.0795 16.6188L14.9403 16.7261C13.393 17.9193 11.4591 18.6286 9.36218 18.6286C4.31624 18.6286 0.2 14.5124 0.2 9.46645C0.2 4.42051 4.31661 0.304271 9.36218 0.304271ZM16.5079 9.46586C16.5079 5.5053 13.323 2.32014 9.36218 2.32014C5.40162 2.32014 2.21646 5.50508 2.21646 9.46586C2.21646 13.4264 5.40162 16.6116 9.36218 16.6116C13.3227 16.6116 16.5079 13.4266 16.5079 9.46586Z" fill="#3A383B" stroke="#FDF7EB" stroke-width="0.4"/>
</svg>
