<svg width="78" height="87" viewBox="0 0 78 87" fill="none" xmlns="http://www.w3.org/2000/svg">
<circle cx="39" cy="39" r="39" fill="#E3D9C6"/>
<path d="M75.321 49.3213C75.321 49.3213 68.2078 58.7709 51.4129 51.7223C51.4129 51.7223 46.1223 61.0021 49.7442 69.1084C49.2059 69.0157 48.583 68.954 47.8371 68.954C43.177 68.954 43.177 71.2778 38.5169 71.2778C33.8568 71.2778 33.8568 68.954 29.1967 68.954C27.3511 68.954 26.2361 69.3168 25.2825 69.7569C26.9743 63.0711 32.611 47.206 48.2447 44.805C48.2447 44.805 45.6993 30.9626 55.1964 25.1106C55.1964 25.1106 63.2554 33.1937 57.711 44.0793C57.711 44.0793 66.416 42.2341 75.321 49.3213Z" stroke="#8B5632" stroke-width="2" stroke-miterlimit="10"/>
<path d="M27.643 34.4133H31.6725" stroke="#724D48" stroke-width="2" stroke-miterlimit="10"/>
<path d="M18.8659 41.0014C22.4907 40.1421 24.7354 36.4954 23.8794 32.8563C23.0235 29.2172 19.3911 26.9637 15.7663 27.823C12.1415 28.6823 9.89684 32.329 10.7528 35.9681C11.6087 39.6072 15.2411 41.8607 18.8659 41.0014Z" stroke="#8B5632" stroke-width="2" stroke-miterlimit="10"/>
<path d="M17.3158 24.0377V20" stroke="#724D48" stroke-width="2" stroke-miterlimit="10"/>
<path d="M10.0099 27.0792L7.16463 24.2227" stroke="#724D48" stroke-width="2" stroke-miterlimit="10"/>
<path d="M6.98065 34.4136H2.95882" stroke="#724D48" stroke-width="2" stroke-miterlimit="10"/>
<path d="M10.0099 41.7483L7.16463 44.6048" stroke="#724D48" stroke-width="2" stroke-miterlimit="10"/>
<path d="M17.3158 44.7822V48.8276" stroke="#724D48" stroke-width="2" stroke-miterlimit="10"/>
<path d="M24.6209 41.7483L27.4662 44.6048" stroke="#724D48" stroke-width="2" stroke-miterlimit="10"/>
<path d="M24.6209 27.0792L27.4662 24.2227" stroke="#724D48" stroke-width="2" stroke-miterlimit="10"/>
<path d="M1.24341 71.2777C5.90351 71.2777 5.90351 68.9539 10.5636 68.9539C15.2237 68.9539 15.2237 71.2777 19.8838 71.2777C22.6983 71.2777 23.8134 70.4284 25.2822 69.7568C26.2357 69.3167 27.3507 68.9539 29.1963 68.9539C33.8564 68.9539 33.8564 71.2777 38.5165 71.2777C43.1766 71.2777 43.1766 68.9539 47.8367 68.9539C48.575 68.9539 49.1979 69.0156 49.7438 69.1083C52.6199 69.6332 53.2428 71.2777 57.1569 71.2777C61.8247 71.2777 61.8247 68.9539 66.4772 68.9539C71.1296 68.9539 71.1373 71.2777 75.7974 71.2777" stroke="#8B5632" stroke-width="2" stroke-miterlimit="10" stroke-linecap="round" stroke-linejoin="round"/>
<path d="M75.7899 78.6346C71.1297 78.6346 71.1297 76.3108 66.4696 76.3108C61.8095 76.3108 61.8095 78.6346 57.1494 78.6346C52.4893 78.6346 52.4893 76.3108 47.8292 76.3108C43.1691 76.3108 43.1691 78.6346 38.509 78.6346C33.8489 78.6346 33.8489 76.3108 29.1888 76.3108C24.5287 76.3108 24.5287 78.6346 19.8686 78.6346C15.2085 78.6346 15.2085 76.3108 10.5484 76.3108C5.88831 76.3108 5.88831 78.6346 1.22821 78.6346" stroke="#8B5632" stroke-width="2" stroke-miterlimit="10" stroke-linecap="round" stroke-linejoin="round"/>
<path d="M75.7899 86.0001C71.1297 86.0001 71.1297 83.6763 66.4696 83.6763C61.8095 83.6763 61.8095 86.0001 57.1494 86.0001C52.4893 86.0001 52.4893 83.6763 47.8292 83.6763C43.1691 83.6763 43.1691 86.0001 38.509 86.0001C33.8489 86.0001 33.8489 83.6763 29.1888 83.6763C24.5287 83.6763 24.5287 86.0001 19.8686 86.0001C15.2085 86.0001 15.2085 83.6763 10.5484 83.6763C5.88831 83.6763 5.88831 86.0001 1.22821 86.0001" stroke="#8B5632" stroke-width="2" stroke-miterlimit="10" stroke-linecap="round" stroke-linejoin="round"/>
</svg>
