<svg width="89" height="89" viewBox="0 0 89 89" fill="none" xmlns="http://www.w3.org/2000/svg">
<circle cx="44.5" cy="44.5" r="44.5" fill="#371A0E"/>
<path fill-rule="evenodd" clip-rule="evenodd" d="M27.9291 28.0003H61.0715C63.7823 28.0003 66 30.2323 66 32.9622V54.3862C66 57.1161 63.7823 59.3495 61.0715 59.3495H59.3897V68.1948C59.3897 69.0371 58.4792 69.2325 57.8189 68.7151L45.8462 59.3492H27.9285C25.2191 59.3492 23 57.1158 23 54.3859V32.9619C23 30.232 25.2163 28 27.9285 28L27.9291 28.0003ZM56.9543 64.9346V59.3495C56.9543 57.9987 58.0483 56.897 59.3896 56.897H61.0715C62.4381 56.897 63.5647 55.7625 63.5647 54.3862V32.9622C63.5647 31.586 62.4381 30.4531 61.0715 30.4531H27.929C26.5624 30.4531 25.4358 31.5863 25.4358 32.9622V54.3862C25.4358 55.7625 26.5624 56.897 27.929 56.897H45.8467C46.4107 56.897 46.8949 57.0641 47.3405 57.413L56.9548 64.9331L56.9543 64.9346Z" fill="white"/>
</svg>
