<svg width="137" height="97" viewBox="0 0 137 97" fill="none" xmlns="http://www.w3.org/2000/svg">
<mask id="path-1-inside-1_228_6919" fill="white">
<path d="M100.535 6.72911C94.2961 -0.607482 82.2622 -2.31661 74.5626 3.45265C72.0252 5.35444 69.1353 9.03031 68.3409 12.1076C67.5465 9.03031 64.6555 5.35444 62.1181 3.45265C54.4196 -2.31661 42.3857 -0.607482 36.1456 6.72911C29.9066 14.0635 29.8851 25.7926 35.6347 33.521C40.066 39.4753 47.0218 42.8492 53.4096 46.6063C59.7962 50.3644 66.2918 55.2374 68.3409 62.3813C70.39 55.2374 76.8855 50.3644 83.2722 46.6063C89.6599 42.8492 96.6158 39.4753 101.047 33.521C106.798 25.7926 106.775 14.0635 100.535 6.72911"/>
</mask>
<path d="M74.5626 3.45264L73.3632 1.85226L73.3634 1.8521L74.5626 3.45264ZM68.3409 12.1076L70.2774 12.6075H66.4044L68.3409 12.1076ZM62.1181 3.45264L63.3174 1.85218L63.3175 1.85226L62.1181 3.45264ZM36.1456 6.72911L37.6691 8.02489L37.669 8.02498L36.1456 6.72911ZM35.6347 33.521L34.0302 34.715L34.03 34.7148L35.6347 33.521ZM53.4096 46.6063L54.4235 44.8823L54.4239 44.8825L53.4096 46.6063ZM68.3409 62.3813L70.2634 62.9328L68.3409 69.6352L66.4184 62.9328L68.3409 62.3813ZM83.2722 46.6063L82.2579 44.8825L82.2583 44.8823L83.2722 46.6063ZM101.047 33.521L102.652 34.7149L102.652 34.715L101.047 33.521ZM99.0115 8.02475C93.4118 1.43986 82.561 -0.0413246 75.7619 5.05318L73.3634 1.8521C81.9634 -4.5919 95.1804 -2.65483 102.059 5.43346L99.0115 8.02475ZM75.7621 5.05303C74.6738 5.86874 73.4499 7.116 72.4066 8.5279C71.3537 9.95283 70.5874 11.4066 70.2774 12.6075L66.4044 11.6077C66.8888 9.73136 67.9646 7.80851 69.1896 6.15074C70.4243 4.47993 71.9141 2.93835 73.3632 1.85226L75.7621 5.05303ZM66.4044 12.6075C66.0944 11.4067 65.3279 9.95306 64.2747 8.52807C63.2312 7.11615 62.007 5.86882 60.9186 5.05303L63.3175 1.85226C64.7665 2.93827 66.2566 4.47977 67.4915 6.15056C68.7167 7.80828 69.793 9.7312 70.2774 11.6077L66.4044 12.6075ZM60.9187 5.0531C54.1209 -0.0411911 43.2701 1.43971 37.6691 8.02489L34.6222 5.43333C41.5013 -2.65468 54.7183 -4.59204 63.3174 1.85218L60.9187 5.0531ZM37.669 8.02498C32.0747 14.6015 32.0071 25.2943 37.2393 32.3272L34.03 34.7148C27.763 26.2909 27.7385 13.5256 34.6222 5.43324L37.669 8.02498ZM37.2391 32.3269C41.3609 37.8654 47.8091 40.9919 54.4235 44.8823L52.3956 48.3302C46.2346 44.7065 38.7711 41.0853 34.0302 34.715L37.2391 32.3269ZM54.4239 44.8825C60.8304 48.6524 67.9794 53.8674 70.2634 61.8299L66.4184 62.9328C64.6041 56.6074 58.7621 52.0764 52.3953 48.33L54.4239 44.8825ZM66.4184 61.8299C68.7023 53.8674 75.8514 48.6524 82.2579 44.8825L84.2865 48.33C77.9197 52.0764 72.0777 56.6074 70.2634 62.9328L66.4184 61.8299ZM82.2583 44.8823C88.8727 40.9919 95.3209 37.8654 99.4426 32.3269L102.652 34.715C97.9107 41.0853 90.4472 44.7065 84.2862 48.3302L82.2583 44.8823ZM99.4426 32.3271C104.676 25.2943 104.607 14.6017 99.0118 8.02511L102.058 5.43311C108.943 13.5253 108.92 26.2908 102.652 34.7149L99.4426 32.3271Z" fill="#8B5632" mask="url(#path-1-inside-1_228_6919)"/>
<mask id="path-3-inside-2_228_6919" fill="white">
<path d="M53.9927 66.4232C50.5369 64.1101 46.3632 63.2096 42.3199 62.256C38.2767 61.3034 34.1159 60.1821 30.8994 57.542C30.1718 56.9446 29.1758 56.2421 28.3997 56.7735C28.0957 56.9813 27.9276 57.3353 27.8015 57.6817C26.5748 61.074 28.3965 64.9685 31.1937 67.2351C33.9909 69.5016 37.5685 70.5039 41.0372 71.451C28.1561 72.8127 15.1219 67.1257 5.91325 57.9783C4.71353 56.7865 3.03306 55.4324 1.54122 56.2258C0.544146 56.7551 0.208905 58.0215 0.14423 59.1527C-0.108003 63.5105 2.18042 67.7243 5.37753 70.6804C8.57571 73.6364 12.6071 75.5101 16.6547 77.1002C22.6479 79.4566 28.8395 81.3032 35.1421 82.6129C40.0692 83.6368 45.1096 84.3469 49.7662 86.2595C54.4239 88.1722 58.7711 91.5125 60.5723 96.2307C61.3818 94.2207 62.3714 89.5317 62.4932 87.9633C63.639 73.236 58.6331 69.5287 53.9927 66.4232"/>
</mask>
<path d="M42.3199 62.256L42.7785 60.3092L42.779 60.3094L42.3199 62.256ZM30.8994 57.542L29.6305 59.088L29.6301 59.0877L30.8994 57.542ZM28.3997 56.7735L29.5297 58.4237L29.5285 58.4245L28.3997 56.7735ZM27.8015 57.6817L25.9206 57.0016L25.9222 56.9974L27.8015 57.6817ZM41.0372 71.451L41.564 69.5217L41.2475 73.44L41.0372 71.451ZM5.91325 57.9783L7.32273 56.5593L7.32274 56.5593L5.91325 57.9783ZM1.54122 56.2258L2.48033 57.9916L2.47898 57.9924L1.54122 56.2258ZM0.14423 59.1527L2.14097 59.2668L2.14089 59.2682L0.14423 59.1527ZM5.37753 70.6804L4.02 72.1491L4.01975 72.1488L5.37753 70.6804ZM16.6547 77.1002L17.386 75.2386L17.3865 75.2389L16.6547 77.1002ZM35.1421 82.6129L35.549 80.6547L35.549 80.6547L35.1421 82.6129ZM49.7662 86.2595L49.0065 88.1096L49.0063 88.1096L49.7662 86.2595ZM60.5723 96.2307L62.4275 96.9779L60.5225 101.708L58.7039 96.944L60.5723 96.2307ZM62.4932 87.9633L60.4992 87.8084L60.4992 87.8081L62.4932 87.9633ZM52.8802 68.0853C49.7873 66.0151 46.0121 65.1816 41.8608 64.2026L42.779 60.3094C46.7143 61.2375 51.2865 62.2052 55.1052 64.7612L52.8802 68.0853ZM41.8613 64.2027C37.848 63.2572 33.2498 62.0586 29.6305 59.088L32.1683 55.9961C34.982 58.3055 38.7053 59.3497 42.7785 60.3092L41.8613 64.2027ZM29.6301 59.0877C29.4693 58.9556 29.3225 58.8417 29.185 58.7481C29.0443 58.6522 28.9476 58.6012 28.892 58.5779C28.833 58.553 28.8814 58.5851 29.0111 58.5854C29.081 58.5855 29.1697 58.5762 29.2681 58.5471C29.3677 58.5176 29.4566 58.4738 29.5297 58.4237L27.2697 55.1234C28.4526 54.3133 29.6955 54.5762 30.4435 54.891C31.1694 55.1965 31.792 55.6871 32.1687 55.9964L29.6301 59.0877ZM29.5285 58.4245C29.6747 58.3246 29.7371 58.224 29.7434 58.2137C29.7472 58.2074 29.7422 58.2148 29.7298 58.2425C29.7173 58.2701 29.7014 58.3093 29.6808 58.3659L25.9222 56.9974C26.0624 56.6124 26.4049 55.7146 27.2709 55.1225L29.5285 58.4245ZM29.6823 58.3618C28.8471 60.6714 30.0502 63.7343 32.4528 65.6812L29.9345 68.789C26.7427 66.2026 24.3025 61.4765 25.9206 57.0016L29.6823 58.3618ZM32.4528 65.6812C34.8703 67.6401 38.0264 68.5558 41.564 69.5217L40.5104 73.3804C37.1105 72.4521 33.1114 71.3632 29.9345 68.789L32.4528 65.6812ZM41.2475 73.44C27.655 74.8768 14.0512 68.8812 4.50376 59.3972L7.32274 56.5593C16.1926 65.3703 28.6572 70.7486 40.827 69.4621L41.2475 73.44ZM4.50377 59.3972C3.93633 58.8335 3.39497 58.3789 2.92352 58.1369C2.70092 58.0227 2.56652 57.9947 2.50959 57.9896C2.47712 57.9868 2.48424 57.9896 2.48033 57.9916L0.602108 54.46C2.15536 53.634 3.6884 54.0334 4.75003 54.5783C5.79171 55.113 6.69044 55.9313 7.32273 56.5593L4.50377 59.3972ZM2.47898 57.9924C2.51022 57.9758 2.43961 57.9898 2.34156 58.2272C2.23928 58.4748 2.16572 58.8339 2.14097 59.2668L-1.85251 59.0385C-1.81259 58.3403 -1.68619 57.5007 -1.35541 56.7C-1.0204 55.889 -0.424849 55.0052 0.603457 54.4593L2.47898 57.9924ZM2.14089 59.2682C1.93313 62.8576 3.83334 66.5287 6.7353 69.2119L4.01975 72.1488C0.527505 68.9199 -2.14914 64.1633 -1.85243 59.0371L2.14089 59.2682ZM6.73505 69.2116C9.64534 71.9016 13.3817 73.6656 17.386 75.2386L15.9234 78.9617C11.8325 77.3546 7.50608 75.3712 4.02 72.1491L6.73505 69.2116ZM17.3865 75.2389C23.2745 77.5539 29.3574 79.3681 35.549 80.6547L34.7351 84.571C28.3216 83.2383 22.0213 81.3592 15.9229 78.9615L17.3865 75.2389ZM35.549 80.6547C40.3004 81.6421 45.6432 82.4039 50.5261 84.4095L49.0063 88.1096C44.576 86.2899 39.8381 85.6315 34.7351 84.571L35.549 80.6547ZM50.5259 84.4095C55.4688 86.4392 60.37 90.093 62.4408 95.5174L58.7039 96.944C57.1722 92.9319 53.379 89.9052 49.0065 88.1096L50.5259 84.4095ZM58.7171 95.4836C59.0573 94.6388 59.4786 93.0987 59.8393 91.493C60.2002 89.8862 60.4501 88.4402 60.4992 87.8084L64.4872 88.1181C64.4144 89.0547 64.1087 90.7374 63.742 92.3697C63.3751 94.0032 62.8968 95.8126 62.4275 96.9779L58.7171 95.4836ZM60.4992 87.8081C61.0551 80.6628 60.0936 76.4783 58.6493 73.7785C57.2126 71.0929 55.1749 69.6209 52.8804 68.0854L55.105 64.7611C57.4509 66.331 60.2364 68.2654 62.1763 71.8916C64.1086 75.5036 65.077 80.5364 64.4871 88.1184L60.4992 87.8081Z" fill="#8B5632" mask="url(#path-3-inside-2_228_6919)"/>
<mask id="path-5-inside-3_228_6919" fill="white">
<path d="M11.06 59.2922C9.75569 58.2195 8.81143 56.7215 8.19917 55.1444C7.58691 53.5673 7.49314 51.724 8.25954 50.2162C8.62064 49.5072 9.20056 48.8675 9.96157 48.6413C10.8541 48.3761 11.8415 48.7354 12.5421 49.3524C13.2417 49.9694 13.7019 50.8104 14.1072 51.6525C15.3835 54.3034 16.2631 57.1555 17.8153 59.6548C19.6186 62.5578 22.238 64.8417 24.8174 67.078C24.4941 66.7977 19.4311 66.1796 11.06 59.2922"/>
</mask>
<path d="M8.25954 50.2162L6.47663 49.3099L6.47738 49.3085L8.25954 50.2162ZM9.96157 48.6413L9.39168 46.7242L9.39193 46.7241L9.96157 48.6413ZM12.5421 49.3524L13.8639 47.8514L13.865 47.8524L12.5421 49.3524ZM14.1072 51.6525L12.3052 52.5201L12.3051 52.5199L14.1072 51.6525ZM17.8153 59.6548L16.1164 60.7102L16.1163 60.71L17.8153 59.6548ZM24.8174 67.078L26.1275 65.5668L23.5073 68.5892L24.8174 67.078ZM9.78957 60.8369C8.15356 59.4914 7.03584 57.6741 6.33474 55.8682L10.0636 54.4206C10.587 55.7688 11.3578 56.9476 12.3304 57.7475L9.78957 60.8369ZM6.33474 55.8682C5.57821 53.9195 5.38435 51.4589 6.47663 49.3099L10.0424 51.1224C9.60193 51.9891 9.59561 53.2151 10.0636 54.4206L6.33474 55.8682ZM6.47738 49.3085C6.97821 48.3252 7.91266 47.1638 9.39168 46.7242L10.5315 50.5583C10.5162 50.5629 10.4532 50.5861 10.3535 50.6829C10.2514 50.7819 10.1398 50.9313 10.0417 51.1239L6.47738 49.3085ZM9.39193 46.7241C11.1484 46.2022 12.8292 46.9403 13.8638 47.8514L11.2204 50.8534C11.0669 50.7183 10.8954 50.6256 10.749 50.5817C10.6067 50.539 10.54 50.5558 10.5312 50.5584L9.39193 46.7241ZM13.865 47.8524C14.8903 48.7567 15.494 49.9221 15.9094 50.7852L12.3051 52.5199C11.9099 51.6988 11.593 51.1821 11.2192 50.8524L13.865 47.8524ZM15.9093 50.7849C16.5756 52.169 17.1542 53.6405 17.7 54.9319C18.2641 56.2666 18.8233 57.4871 19.5143 58.5996L16.1163 60.71C15.255 59.3232 14.5983 57.868 14.0156 56.4891C13.4145 55.0669 12.9151 53.7869 12.3052 52.5201L15.9093 50.7849ZM19.5142 58.5995C21.1315 61.203 23.51 63.2976 26.1275 65.5668L23.5073 68.5892C20.9659 66.3859 18.1058 63.9127 16.1164 60.7102L19.5142 58.5995ZM23.5073 68.5892C23.6822 68.7408 23.8391 68.8196 23.8832 68.8415C23.9442 68.8719 23.9866 68.8879 23.9915 68.8897C23.9992 68.8926 23.9768 68.8842 23.8883 68.8569C23.7661 68.8193 23.422 68.7183 23.1079 68.6194C22.401 68.3968 21.4021 68.052 20.1411 67.4889C17.6192 66.3628 14.1083 64.3902 9.78926 60.8366L12.3307 57.7477C16.3827 61.0816 19.5889 62.8617 21.7721 63.8365C22.8637 64.324 23.7143 64.6167 24.3093 64.8041C24.6461 64.9102 24.816 64.9573 25.0653 65.034C25.1625 65.0639 25.2903 65.1042 25.4118 65.1504C25.4497 65.1648 25.8062 65.2883 26.1275 65.5668L23.5073 68.5892Z" fill="#8B5632" mask="url(#path-5-inside-3_228_6919)"/>
<mask id="path-7-inside-4_228_6919" fill="white">
<path d="M20.8488 59.6634C19.0929 57.3763 17.8576 54.6659 17.4911 51.8018C17.3348 50.5809 17.3445 49.2592 18.0063 48.2234C18.6671 47.1875 20.1751 46.6247 21.1722 47.3412C22.0291 47.956 22.1606 49.1521 22.3643 50.1901C22.6856 51.8343 23.3744 53.4038 24.3639 54.7525C24.5676 55.0307 24.7907 55.3121 24.8716 55.6487C24.9567 56.0092 24.8673 56.3858 24.7951 56.7495C24.3865 58.8018 24.5471 61.6421 25.2521 63.611C25.1421 63.3057 23.148 62.6617 20.8488 59.6634"/>
</mask>
<path d="M17.4911 51.8018L19.4749 51.5479L19.4749 51.548L17.4911 51.8018ZM18.0063 48.2234L19.6925 49.2989L19.6917 49.3002L18.0063 48.2234ZM21.1722 47.3412L20.0063 48.9662L20.005 48.9653L21.1722 47.3412ZM22.3643 50.1901L24.3269 49.805L24.3272 49.8066L22.3643 50.1901ZM24.3639 54.7525L25.9764 53.5694L25.9774 53.5708L24.3639 54.7525ZM24.8716 55.6487L26.8163 55.1817L26.818 55.1889L24.8716 55.6487ZM24.7951 56.7495L26.7568 57.1391L26.7566 57.14L24.7951 56.7495ZM25.2521 63.611L27.135 62.9368L23.3704 64.2887L25.2521 63.611ZM19.2624 60.8813C17.3239 58.3563 15.925 55.3204 15.5073 52.0557L19.4749 51.548C19.7901 54.0114 20.8619 56.3962 22.4352 58.4455L19.2624 60.8813ZM15.5073 52.0558C15.3388 50.74 15.2605 48.8063 16.321 47.1465L19.6917 49.3002C19.4285 49.7122 19.3307 50.4218 19.4749 51.5479L15.5073 52.0558ZM16.3202 47.1478C16.9179 46.2108 17.8585 45.5278 18.8724 45.2144C19.8961 44.8979 21.2106 44.9059 22.3393 45.7171L20.005 48.9653C20.0593 49.0043 20.112 49.017 20.1331 49.0193C20.1466 49.0208 20.1196 49.0156 20.0539 49.0359C19.9888 49.056 19.9118 49.0936 19.8389 49.1483C19.7658 49.203 19.7182 49.2587 19.6925 49.2989L16.3202 47.1478ZM22.338 45.7162C23.2504 46.3708 23.6817 47.275 23.914 47.9849C24.13 48.645 24.25 49.413 24.3269 49.805L20.4018 50.5753C20.3739 50.4331 20.3472 50.2882 20.3235 50.1604C20.2988 50.0277 20.2762 49.9077 20.2526 49.7916C20.2049 49.5566 20.1605 49.3759 20.1124 49.229C20.0138 48.9277 19.9509 48.9265 20.0063 48.9662L22.338 45.7162ZM24.3272 49.8066C24.5919 51.1611 25.1608 52.4577 25.9764 53.5694L22.7514 55.9356C21.5879 54.3499 20.7793 52.5075 20.4015 50.5736L24.3272 49.8066ZM25.9774 53.5708C26.0841 53.7164 26.6199 54.3638 26.8163 55.1817L22.9269 56.1158C22.954 56.2285 22.9914 56.2767 22.9644 56.2333C22.9518 56.2129 22.9308 56.1814 22.8934 56.1294C22.875 56.1037 22.8548 56.0761 22.8304 56.043C22.8085 56.0132 22.7777 55.9716 22.7503 55.9342L25.9774 53.5708ZM26.818 55.1889C27.026 56.0691 26.7953 56.9448 26.7568 57.1391L22.8334 56.36C22.8427 56.313 22.8542 56.2564 22.8617 56.2191C22.8702 56.1763 22.8773 56.1404 22.8835 56.1073C22.8961 56.0401 22.902 56 22.9048 55.9746C22.9109 55.9204 22.8962 55.986 22.9252 56.1086L26.818 55.1889ZM26.7566 57.14C26.4132 58.8647 26.5615 61.3349 27.135 62.9368L23.3691 64.2851C22.5328 61.9492 22.3598 58.7389 22.8335 56.3591L26.7566 57.14ZM23.3704 64.2887C23.4981 64.6432 23.6952 64.8591 23.7631 64.9302C23.8455 65.0165 23.9106 65.0653 23.918 65.0709C23.928 65.0785 23.9047 65.061 23.775 64.9792C23.5537 64.8398 23.1647 64.6017 22.7052 64.2719C21.7672 63.5987 20.5458 62.5549 19.2617 60.8804L22.4359 58.4464C23.451 59.7702 24.3762 60.5476 25.0376 61.0223C25.3778 61.2664 25.6517 61.4339 25.9071 61.5948C26.0156 61.6632 26.1841 61.7695 26.3333 61.8825C26.4102 61.9407 26.5317 62.0376 26.6565 62.1683C26.7668 62.2839 26.9923 62.5406 27.1337 62.9332L23.3704 64.2887Z" fill="#8B5632" mask="url(#path-7-inside-4_228_6919)"/>
<mask id="path-9-inside-5_228_6919" fill="white">
<path d="M82.6884 66.4232C86.1442 64.1101 90.3189 63.2096 94.3611 62.256C98.4055 61.3034 102.566 60.1821 105.783 57.542C106.51 56.9446 107.505 56.2421 108.282 56.7735C108.586 56.9813 108.755 57.3353 108.881 57.6817C110.107 61.074 108.286 64.9685 105.488 67.2351C102.691 69.5016 99.1126 70.5039 95.6449 71.451C108.526 72.8127 121.56 67.1257 130.768 57.9783C131.969 56.7865 133.649 55.4324 135.141 56.2258C136.138 56.7551 136.473 58.0215 136.538 59.1527C136.789 63.5105 134.502 67.7243 131.304 70.6804C128.106 73.6364 124.074 75.5101 120.027 77.1002C114.034 79.4566 107.843 81.3032 101.54 82.6129C96.6129 83.6368 91.5726 84.3469 86.9149 86.2595C82.2572 88.1722 77.9099 91.5125 76.1098 96.2307C75.2992 94.2207 74.3108 89.5317 74.189 87.9633C73.0431 73.236 78.049 69.5287 82.6884 66.4232"/>
</mask>
<path d="M94.3611 62.256L93.9019 60.3094L93.9026 60.3092L94.3611 62.256ZM105.783 57.542L107.052 59.0877L107.052 59.088L105.783 57.542ZM108.282 56.7735L107.154 58.4245L107.153 58.4244L108.282 56.7735ZM108.881 57.6817L110.76 56.9974L110.761 57.0016L108.881 57.6817ZM95.6449 71.451L95.4347 73.44L95.118 69.5217L95.6449 71.451ZM130.768 57.9783L129.358 56.5594L129.359 56.5587L130.768 57.9783ZM135.141 56.2258L134.203 57.9924L134.202 57.9916L135.141 56.2258ZM136.538 59.1527L134.541 59.2677L134.541 59.2668L136.538 59.1527ZM131.304 70.6804L129.946 69.2119L129.946 69.2116L131.304 70.6804ZM120.027 77.1002L119.296 75.2389L119.296 75.2387L120.027 77.1002ZM101.54 82.6129L101.133 80.6547L101.133 80.6547L101.54 82.6129ZM76.1098 96.2307L77.9784 96.9436L76.1614 101.706L74.255 96.9787L76.1098 96.2307ZM74.189 87.9633L76.1829 87.8081L76.183 87.8084L74.189 87.9633ZM81.5759 64.7612C85.3946 62.2052 89.9679 61.2375 93.9019 60.3094L94.8204 64.2025C90.67 65.1817 86.8937 66.0151 83.8008 68.0853L81.5759 64.7612ZM93.9026 60.3092C97.9769 59.3497 101.7 58.3055 104.514 55.9961L107.052 59.088C103.432 62.0586 98.8341 63.2572 94.8196 64.2027L93.9026 60.3092ZM104.513 55.9964C104.89 55.6875 105.512 55.1966 106.238 54.8911C106.987 54.5759 108.229 54.3139 109.411 55.1226L107.153 58.4244C107.226 58.4742 107.315 58.5178 107.414 58.5472C107.512 58.5762 107.601 58.5855 107.671 58.5854C107.8 58.5851 107.849 58.553 107.79 58.5778C107.735 58.6011 107.638 58.652 107.497 58.7478C107.36 58.8415 107.213 58.9555 107.052 59.0877L104.513 55.9964ZM109.411 55.1225C110.277 55.7146 110.62 56.6123 110.76 56.9974L107.001 58.3659C106.981 58.3093 106.965 58.2701 106.952 58.2425C106.94 58.2149 106.935 58.2075 106.939 58.2137C106.945 58.224 107.007 58.3246 107.154 58.4245L109.411 55.1225ZM110.761 57.0016C112.38 61.4765 109.939 66.2026 106.748 68.789L104.229 65.6812C106.632 63.7343 107.835 60.6714 107 58.3618L110.761 57.0016ZM106.748 68.789C103.571 71.3632 99.5704 72.4522 96.1719 73.3804L95.118 69.5217C98.6548 68.5557 101.812 67.64 104.229 65.6812L106.748 68.789ZM95.8552 69.4621C108.025 70.7486 120.49 65.3702 129.358 56.5594L132.177 59.3971C122.631 68.8812 109.027 74.8768 95.4347 73.44L95.8552 69.4621ZM129.359 56.5587C129.992 55.931 130.89 55.1128 131.932 54.5782C132.994 54.0334 134.527 53.634 136.08 54.46L134.202 57.9916C134.198 57.9896 134.205 57.9868 134.173 57.9896C134.116 57.9947 133.981 58.0227 133.758 58.137C133.287 58.3791 132.745 58.8338 132.177 59.3978L129.359 56.5587ZM136.079 54.4593C137.107 55.0052 137.703 55.889 138.038 56.7C138.368 57.5007 138.495 58.3403 138.535 59.0385L134.541 59.2668C134.516 58.8339 134.443 58.4748 134.341 58.2272C134.243 57.9898 134.172 57.9758 134.203 57.9924L136.079 54.4593ZM138.535 59.0376C138.83 64.1632 136.155 68.9197 132.661 72.1491L129.946 69.2116C132.849 66.5289 134.748 62.8577 134.541 59.2677L138.535 59.0376ZM132.661 72.1488C129.176 75.3713 124.848 77.3547 120.759 78.9616L119.296 75.2387C123.3 73.6655 127.037 71.9016 129.946 69.2119L132.661 72.1488ZM120.759 78.9615C114.661 81.3592 108.361 83.2383 101.947 84.571L101.133 80.6547C107.325 79.3681 113.408 77.5539 119.296 75.2389L120.759 78.9615ZM101.947 84.571C96.8441 85.6315 92.1061 86.2899 87.6746 88.1096L86.1552 84.4095C91.039 82.4039 96.3817 81.6421 101.133 80.6547L101.947 84.571ZM87.6746 88.1096C83.302 89.9052 79.509 92.9319 77.9784 96.9436L74.2412 95.5178C76.3109 90.0931 81.2124 86.4391 86.1552 84.4095L87.6746 88.1096ZM74.255 96.9787C73.7848 95.8129 73.3065 94.003 72.9397 92.3696C72.5731 90.737 72.2677 89.0545 72.195 88.1181L76.183 87.8084C76.232 88.4404 76.4817 89.8866 76.8425 91.4932C77.2031 93.0989 77.6242 94.6385 77.9647 95.4827L74.255 96.9787ZM72.195 88.1184C71.6051 80.5364 72.5736 75.5037 74.5057 71.8917C76.4454 68.2655 79.2305 66.3311 81.5758 64.7612L83.8009 68.0853C81.5068 69.6208 79.4694 71.0928 78.0328 73.7784C76.5885 76.4783 75.627 80.6628 76.1829 87.8081L72.195 88.1184Z" fill="#8B5632" mask="url(#path-9-inside-5_228_6919)"/>
<mask id="path-11-inside-6_228_6919" fill="white">
<path d="M125.622 59.2922C126.926 58.2195 127.869 56.7215 128.483 55.1444C129.095 53.5673 129.19 51.724 128.422 50.2162C128.061 49.5072 127.481 48.8675 126.721 48.6413C125.828 48.3761 124.839 48.7354 124.14 49.3524C123.44 49.9694 122.979 50.8104 122.573 51.6525C121.298 54.3034 120.418 57.1555 118.866 59.6548C117.063 62.5578 114.444 64.8417 111.864 67.078C112.189 66.7977 117.25 66.1796 125.622 59.2922"/>
</mask>
<path d="M128.483 55.1444L130.347 55.8682L130.347 55.8693L128.483 55.1444ZM128.422 50.2162L130.204 49.3085L130.205 49.3089L128.422 50.2162ZM126.721 48.6413L127.29 46.7239L127.292 46.7244L126.721 48.6413ZM122.573 51.6525L120.771 50.7855L120.771 50.7852L122.573 51.6525ZM118.866 59.6548L120.566 60.7095L120.565 60.7102L118.866 59.6548ZM111.864 67.078L113.172 68.5913L110.554 65.5668L111.864 67.078ZM124.351 57.7475C125.323 56.948 126.094 55.7694 126.619 54.4195L130.347 55.8693C129.645 57.6736 128.529 59.491 126.892 60.8369L124.351 57.7475ZM126.618 54.4206C127.086 53.2141 127.08 51.9889 126.64 51.1234L130.205 49.3089C131.299 51.4591 131.103 53.9205 130.347 55.8682L126.618 54.4206ZM126.64 51.1239C126.542 50.9313 126.43 50.7818 126.328 50.6826C126.228 50.5856 126.165 50.5625 126.151 50.5581L127.292 46.7244C128.77 47.1643 129.704 48.3255 130.204 49.3085L126.64 51.1239ZM126.152 50.5586C126.142 50.5557 126.075 50.539 125.932 50.5818C125.786 50.6257 125.615 50.7183 125.462 50.8524L122.817 47.8524C123.852 46.9393 125.534 46.2027 127.29 46.7239L126.152 50.5586ZM125.462 50.8524C125.088 51.1826 124.77 51.7004 124.376 52.5199L120.771 50.7852C121.187 49.9204 121.792 48.7561 122.817 47.8524L125.462 50.8524ZM124.376 52.5195C123.766 53.7867 123.267 55.0668 122.666 56.4891C122.083 57.868 121.426 59.323 120.566 60.7095L117.167 58.6002C117.858 57.4873 118.417 56.2666 118.981 54.9319C119.527 53.6406 120.105 52.1692 120.771 50.7855L124.376 52.5195ZM120.565 60.7102C118.576 63.9127 115.716 66.3859 113.174 68.5892L110.554 65.5668C113.172 63.2976 115.55 61.203 117.168 58.5995L120.565 60.7102ZM110.557 65.5647C110.877 65.2878 111.232 65.1647 111.271 65.1502C111.392 65.1041 111.52 65.0639 111.617 65.034C111.865 64.9575 112.037 64.9099 112.373 64.8041C112.968 64.6167 113.818 64.324 114.91 63.8366C117.092 62.8617 120.298 61.0816 124.351 57.7477L126.892 60.8367C122.573 64.3902 119.062 66.3628 116.541 67.4889C115.28 68.052 114.281 68.3968 113.574 68.6194C113.259 68.7185 112.917 68.8191 112.793 68.857C112.705 68.8842 112.682 68.8927 112.69 68.8899C112.695 68.8881 112.737 68.8722 112.798 68.8421C112.842 68.8203 112.998 68.7419 113.172 68.5913L110.557 65.5647Z" fill="#8B5632" mask="url(#path-11-inside-6_228_6919)"/>
<mask id="path-13-inside-7_228_6919" fill="white">
<path d="M115.833 59.6634C117.588 57.3763 118.823 54.6659 119.19 51.8018C119.347 50.5809 119.337 49.2592 118.675 48.2234C118.013 47.1875 116.506 46.6247 115.509 47.3412C114.652 47.956 114.521 49.1521 114.317 50.1901C113.996 51.8343 113.307 53.4038 112.317 54.7525C112.113 55.0307 111.889 55.3121 111.81 55.6487C111.725 56.0092 111.814 56.3858 111.886 56.7495C112.294 58.8018 112.134 61.6421 111.429 63.611C111.539 63.3057 113.533 62.6617 115.833 59.6634"/>
</mask>
<path d="M119.19 51.8018L121.174 52.0558L121.174 52.0564L119.19 51.8018ZM115.509 47.3412L116.676 48.9653L116.675 48.9662L115.509 47.3412ZM114.317 50.1901L112.354 49.8066L112.354 49.805L114.317 50.1901ZM112.317 54.7525L113.93 55.9356L113.928 55.9382L112.317 54.7525ZM111.81 55.6487L109.863 55.1889L109.864 55.1876L111.81 55.6487ZM111.886 56.7495L113.848 56.36L113.848 56.3601L111.886 56.7495ZM111.429 63.611L113.311 64.2887L109.546 62.9368L111.429 63.611ZM114.246 58.4455C115.819 56.3966 116.89 54.0116 117.206 51.5472L121.174 52.0564C120.755 55.3202 119.358 58.3559 117.419 60.8813L114.246 58.4455ZM117.206 51.5479C117.351 50.4217 117.253 49.7122 116.99 49.3002L120.36 47.1465C121.421 48.8063 121.342 50.74 121.174 52.0558L117.206 51.5479ZM116.99 49.3002C116.964 49.2593 116.915 49.2033 116.842 49.1484C116.769 49.0935 116.692 49.056 116.627 49.0359C116.561 49.0156 116.534 49.0208 116.548 49.0193C116.569 49.017 116.622 49.0042 116.676 48.9653L114.342 45.7171C115.471 44.906 116.785 44.8978 117.809 45.2144C118.822 45.5279 119.762 46.2108 120.36 47.1465L116.99 49.3002ZM116.675 48.9662C116.73 48.9265 116.667 48.9277 116.569 49.229C116.521 49.376 116.476 49.5566 116.429 49.7916C116.405 49.9077 116.382 50.0277 116.358 50.1604C116.334 50.2882 116.307 50.4331 116.28 50.5753L112.354 49.805C112.431 49.4129 112.551 48.645 112.767 47.9849C113 47.275 113.431 46.3707 114.343 45.7162L116.675 48.9662ZM116.28 50.5736C115.902 52.5075 115.093 54.3499 113.93 55.9356L110.705 53.5694C111.521 52.4577 112.089 51.1612 112.354 49.8066L116.28 50.5736ZM113.928 55.9382C113.901 55.9744 113.869 56.0174 113.848 56.046C113.824 56.0788 113.804 56.1061 113.786 56.1314C113.749 56.1828 113.728 56.2137 113.716 56.2333C113.69 56.2752 113.729 56.2251 113.756 56.1099L109.864 55.1876C110.059 54.3639 110.597 53.7155 110.707 53.5667L113.928 55.9382ZM113.756 56.1086C113.785 55.9859 113.77 55.9203 113.776 55.9746C113.779 55.9999 113.785 56.04 113.798 56.1073C113.804 56.1404 113.811 56.1763 113.82 56.2191C113.827 56.2564 113.839 56.313 113.848 56.36L109.925 57.1391C109.886 56.9449 109.655 56.0692 109.863 55.1889L113.756 56.1086ZM113.848 56.3601C114.32 58.7386 114.149 61.9487 113.312 64.2851L109.546 62.9368C110.12 61.3355 110.267 58.865 109.925 57.139L113.848 56.3601ZM109.548 62.9332C109.689 62.5406 109.915 62.2839 110.025 62.1683C110.15 62.0376 110.271 61.9407 110.348 61.8825C110.497 61.7695 110.666 61.6632 110.774 61.5948C111.03 61.4339 111.304 61.2664 111.644 61.0223C112.305 60.5476 113.23 59.7702 114.245 58.4464L117.42 60.8804C116.136 62.5549 114.914 63.5987 113.976 64.2719C113.517 64.6017 113.128 64.8398 112.906 64.9792C112.777 65.061 112.753 65.0785 112.763 65.0709C112.771 65.0653 112.836 65.0165 112.918 64.9302C112.986 64.8591 113.183 64.6432 113.311 64.2887L109.548 62.9332Z" fill="#8B5632" mask="url(#path-13-inside-7_228_6919)"/>
</svg>
