<svg width="22" height="22" viewBox="0 0 22 22" fill="none" xmlns="http://www.w3.org/2000/svg">
<path d="M10.7281 0C4.81284 0 0 4.81207 0 10.727C0 16.6414 4.81284 21.4531 10.7281 21.4531C16.6434 21.4531 21.4555 16.6418 21.4555 10.727C21.4553 4.81207 16.643 0 10.7281 0ZM10.7281 20.2512C5.47601 20.2512 1.20234 15.9787 1.20234 10.727C1.20234 5.47485 5.47601 1.20156 10.7281 1.20156C15.9802 1.20156 20.2535 5.47485 20.2535 10.727C20.2535 15.9783 15.9802 20.2512 10.7281 20.2512Z" fill="black"/>
<path d="M15.3988 10.1255H6.05691C5.72512 10.1255 5.45605 10.395 5.45605 10.727C5.45605 11.0588 5.72513 11.3278 6.05691 11.3278H15.3988C15.7306 11.3278 15.9997 11.0588 15.9997 10.727C15.9998 10.395 15.7306 10.1255 15.3988 10.1255Z" fill="black"/>
</svg>
