<svg width="70" height="70" viewBox="0 0 70 70" fill="none" xmlns="http://www.w3.org/2000/svg">
<path d="M50.7404 35.1681C49.7287 18.1467 36.1238 5.70935 35.5469 5.19529C35.4744 5.12966 35.3746 5.13923 35.2871 5.10369C35.206 5.03832 35.1049 5.00269 35.0007 5.00269C34.8965 5.00269 34.7954 5.03832 34.7143 5.10369C34.6281 5.13923 34.5297 5.12966 34.4559 5.19529C33.8775 5.71618 20.2727 18.1535 19.2623 35.175C18.2328 52.4699 29.8799 56.849 29.9975 56.8886C30.085 56.9212 30.1776 56.9378 30.2709 56.9379C30.4589 56.931 30.6389 56.8596 30.7806 56.7358C30.9222 56.612 31.017 56.4432 31.0491 56.2578C31.0811 56.0724 31.0485 55.8816 30.9566 55.7174C30.8647 55.5533 30.7191 55.4257 30.5443 55.356C30.1123 55.1974 19.9309 51.3009 20.8838 35.272C21.7451 20.7812 32.4775 9.40486 35 6.92204C37.5225 9.40349 48.2521 20.7607 49.1148 35.2652C50.0719 51.2941 39.8863 55.1906 39.4516 55.3492C39.2768 55.4188 39.1312 55.5464 39.0393 55.7106C38.9474 55.8748 38.9148 56.0656 38.9468 56.251C38.9789 56.4364 39.0737 56.6052 39.2154 56.729C39.357 56.8528 39.537 56.9241 39.725 56.931C39.8184 56.9312 39.911 56.9145 39.9984 56.8818C40.1229 56.8422 51.7686 52.4631 50.7404 35.1681Z" fill="#8B5632"/>
<path d="M41.7443 44.4104C41.8379 44.2312 41.8621 44.0238 41.8121 43.828C41.7622 43.6321 41.6418 43.4616 41.4739 43.3491C41.3059 43.2366 41.1024 43.19 40.9023 43.2184C40.7022 43.2467 40.5195 43.3479 40.3894 43.5026L35.8203 50.3125V42.6782L41.7512 33.8557C41.8447 33.6765 41.8689 33.4692 41.819 33.2733C41.7691 33.0774 41.6486 32.9069 41.4807 32.7944C41.3128 32.6819 41.1092 32.6353 40.9091 32.6637C40.709 32.692 40.5264 32.7932 40.3963 32.9479L35.8203 39.7551V32.1289L39.4228 26.7709C39.5176 26.5917 39.5427 26.3838 39.4932 26.1872C39.4437 25.9906 39.3231 25.8193 39.1548 25.7063C38.9864 25.5933 38.7822 25.5467 38.5815 25.5754C38.3808 25.6041 38.1979 25.7061 38.068 25.8618L35.8203 29.2004V20.6678C35.8336 20.5529 35.8225 20.4364 35.7877 20.3261C35.7528 20.2158 35.695 20.1141 35.618 20.0277C35.5411 19.9412 35.4467 19.8721 35.3411 19.8248C35.2356 19.7774 35.1212 19.7529 35.0055 19.7529C34.8898 19.7529 34.7754 19.7774 34.6698 19.8248C34.5642 19.8721 34.4698 19.9412 34.3929 20.0277C34.3159 20.1141 34.2581 20.2158 34.2233 20.3261C34.1884 20.4364 34.1773 20.5529 34.1906 20.6678V29.2004L31.943 25.8563C31.8896 25.754 31.8153 25.664 31.7248 25.5924C31.6344 25.5207 31.5298 25.469 31.418 25.4405C31.3062 25.412 31.1896 25.4074 31.0759 25.4271C30.9622 25.4467 30.8539 25.4901 30.7581 25.5545C30.6623 25.6188 30.5812 25.7027 30.52 25.8005C30.4588 25.8983 30.419 26.008 30.4031 26.1223C30.3871 26.2366 30.3955 26.3529 30.4276 26.4637C30.4597 26.5746 30.5149 26.6774 30.5894 26.7655L34.1797 32.1289V39.7592L29.6105 32.9493C29.4804 32.7946 29.2978 32.6934 29.0977 32.665C28.8976 32.6367 28.694 32.6833 28.5261 32.7958C28.3582 32.9083 28.2378 33.0788 28.1878 33.2747C28.1379 33.4705 28.1621 33.6779 28.2557 33.8571L34.1797 42.6782V50.3125L29.6064 43.5067C29.4763 43.352 29.2937 43.2508 29.0936 43.2225C28.8935 43.1941 28.6899 43.2407 28.522 43.3532C28.3541 43.4657 28.2336 43.6362 28.1837 43.8321C28.1338 44.0279 28.158 44.2353 28.2516 44.4145L34.1797 53.2328V64.1895C34.1663 64.3044 34.1775 64.4209 34.2123 64.5312C34.2472 64.6415 34.305 64.7432 34.382 64.8296C34.4589 64.916 34.5533 64.9852 34.6588 65.0325C34.7644 65.0799 34.8788 65.1044 34.9945 65.1044C35.1102 65.1044 35.2246 65.0799 35.3302 65.0325C35.4358 64.9852 35.5301 64.916 35.6071 64.8296C35.684 64.7432 35.7419 64.6415 35.7767 64.5312C35.8116 64.4209 35.8227 64.3044 35.8094 64.1895V53.2328L41.7443 44.4104Z" fill="#8B5632"/>
</svg>
