<svg width="26" height="23" viewBox="0 0 26 23" fill="none" xmlns="http://www.w3.org/2000/svg">
<path d="M10.7665 22.2665C13.5249 22.2665 16.2835 21.2166 18.3836 19.1167C18.7063 18.7944 18.7063 18.2714 18.3836 17.9491C18.0608 17.6268 17.5383 17.6264 17.216 17.9491C13.6593 21.5049 7.87325 21.5046 4.31745 17.9491C0.761246 14.3927 0.761246 8.60639 4.31745 5.0506C7.87389 1.49439 13.6596 1.49439 17.216 5.0506C17.5387 5.37337 18.0613 5.37337 18.3836 5.0506C18.7063 4.72829 18.7063 4.20532 18.3836 3.88301C14.1834 -0.317122 7.34934 -0.317122 3.1501 3.88301C-1.05003 8.0829 -1.05003 14.9172 3.1501 19.1171C5.24984 21.2168 8.00819 22.2666 10.7665 22.2666V22.2665Z" fill="#3A383B"/>
<path d="M25.4156 10.9147C25.4154 10.9145 25.4149 10.9145 25.4149 10.914L21.8997 7.39882C21.5769 7.07605 21.0544 7.07605 20.7321 7.39882C20.4093 7.72112 20.4093 8.24409 20.7321 8.56641L22.8392 10.6735H10.7664C10.3102 10.6735 9.94067 11.0431 9.94067 11.4992C9.94067 11.9554 10.3102 12.3249 10.7664 12.3249H22.8392L20.7321 14.432C20.4093 14.7548 20.4093 15.2773 20.7321 15.5996C20.8934 15.7609 21.1046 15.8413 21.3161 15.8413C21.5276 15.8413 21.7386 15.7607 21.9001 15.5996L26.0001 11.4993L25.4165 10.9157C25.4163 10.9153 25.4158 10.915 25.4156 10.9148L25.4156 10.9147Z" fill="#3A383B"/>
</svg>

