<svg width="24" height="25" viewBox="0 0 24 25" fill="none" xmlns="http://www.w3.org/2000/svg">
<path d="M22.9959 21.268C22.9959 19.0842 17.9268 17.6294 13.6705 16.7964C13.164 16.6905 12.6778 17.0246 12.5813 17.5292C12.4829 18.032 12.8113 18.5182 13.3141 18.6184C17.1401 19.3736 20.8047 20.6575 21.144 21.2773L21.1442 22.7059H2.84975L2.84043 21.3607C3.17631 20.6391 6.80557 19.2438 10.6109 18.379C11.034 18.2844 11.3326 17.9059 11.3326 17.4737V16.0654C11.3752 16.0672 11.416 16.0784 11.4587 16.0784H12.5349C15.3831 16.0784 17.7024 13.7666 17.7024 10.9203L17.7026 5.60266C17.7026 2.75448 15.3851 0.438965 12.5351 0.438965H11.4589C8.61264 0.438965 6.29707 2.75453 6.29707 5.60266V10.9219C6.29707 13.0649 7.61076 14.9017 9.47716 15.6809V16.7385C5.4493 17.7053 1 19.2379 1 21.2751V23.6333C1 24.1436 1.4156 24.561 1.92771 24.561H22.0723C22.5863 24.561 23 24.1436 23 23.6333C23 23.6259 22.9963 23.6221 22.9963 23.6147L22.9959 21.268ZM8.15462 10.9201V5.60244C8.15462 3.77665 9.63524 2.29603 11.4592 2.29603H12.5354C14.3631 2.29603 15.8474 3.78036 15.8474 5.60244L15.8453 10.9201C15.8453 12.7384 14.361 14.2209 12.5352 14.2209H11.459C9.63715 14.2209 8.15466 12.7384 8.15466 10.9201H8.15462Z" fill="#3A383B" stroke="#FDF7EB" stroke-width="0.4"/>
</svg>
