<svg width="28" height="25" viewBox="0 0 28 25" fill="none" xmlns="http://www.w3.org/2000/svg">
<path d="M25.7925 2.61403C24.4021 1.17317 22.4831 0.363533 20.4807 0.373136C18.4765 0.37269 16.5558 1.17631 15.1491 2.60397L13.9987 3.75435L12.8483 2.60397C11.4416 1.17625 9.52091 0.372679 7.51672 0.373136C5.52122 0.363311 3.60763 1.16494 2.215 2.59397C0.797116 4.00403 0 5.92116 0 7.92072C0 9.92029 0.797116 11.8374 2.215 13.2475L13.2883 24.3311C13.4761 24.5206 13.7318 24.6271 13.9986 24.6271C14.2654 24.6271 14.5211 24.5206 14.7089 24.3311L16.8096 22.2203V22.2206C17.0299 21.9629 17.1052 21.6112 17.009 21.2861C16.9129 20.961 16.6586 20.7066 16.3335 20.6104C16.0082 20.5144 15.6565 20.5894 15.3991 20.81L13.9986 22.2004L3.61525 11.8268C2.57542 10.7907 1.99106 9.38338 1.99106 7.9157C1.99106 6.4478 2.57542 5.04043 3.61525 4.00438C4.64261 2.95718 6.04929 2.36927 7.51651 2.37373C8.99019 2.3744 10.4025 2.96524 11.4377 4.01444L13.2883 5.8751V5.87487C13.4761 6.06444 13.7317 6.17095 13.9986 6.17095C14.2654 6.17095 14.521 6.06444 14.7088 5.87487L16.5594 4.01421V4.01444C17.5946 2.96524 19.0069 2.37442 20.4806 2.37373C21.9512 2.37217 23.3592 2.96793 24.3819 4.02427C25.4204 5.05695 26.0043 6.461 26.0043 7.92553C26.0043 9.39006 25.4204 10.7943 24.3819 11.8268C24.1691 12.0068 24.0409 12.2671 24.0282 12.5455C24.0154 12.824 24.1195 13.0948 24.3151 13.2933C24.5107 13.4918 24.7802 13.5997 25.0589 13.591C25.3373 13.582 25.5997 13.4577 25.7823 13.2473C27.2015 11.842 28 9.92774 28 7.93064C28 5.93336 27.2015 4.01908 25.7823 2.61394L25.7925 2.61403Z" fill="#3A383B"/>
<path d="M24.5023 15.9987H22.0015V13.4979C22.0015 13.1404 21.8108 12.8102 21.5014 12.6315C21.1919 12.4529 20.8105 12.4529 20.501 12.6315C20.1916 12.8102 20.0009 13.1404 20.0009 13.4979V15.9987H17.5001C17.1426 15.9987 16.8124 16.1894 16.6337 16.4988C16.4551 16.8083 16.4551 17.1897 16.6337 17.4992C16.8124 17.8086 17.1426 17.9993 17.5001 17.9993H20.0009V20.5001C20.0009 20.8576 20.1916 21.1878 20.501 21.3665C20.8105 21.5451 21.1919 21.5451 21.5014 21.3665C21.8108 21.1878 22.0015 20.8576 22.0015 20.5001V17.9993H24.5023C24.8598 17.9993 25.19 17.8086 25.3687 17.4992C25.5473 17.1897 25.5473 16.8083 25.3687 16.4988C25.19 16.1894 24.8598 15.9987 24.5023 15.9987Z" fill="#3A383B"/>
</svg>
