<svg width="50" height="116" viewBox="0 0 50 116" fill="none" xmlns="http://www.w3.org/2000/svg">
<mask id="path-1-inside-1_228_6906" fill="white">
<path d="M2.38316 34.3427C-0.454176 27.616 -0.416874 19.732 2.48446 13.0334C10.6445 11.6294 18.5578 16.9734 23.7391 23.4307C25.8458 26.056 27.6978 28.956 28.5991 32.1987C29.8684 36.7734 29.1045 41.6387 27.3978 45.9934C25.6431 50.468 22.6992 50.7627 18.1578 49.7334C11.3085 48.184 4.96849 40.4694 2.38316 34.3427Z"/>
</mask>
<path d="M2.48446 13.0334L0.649206 12.2385L1.07917 11.2458L2.14532 11.0623L2.48446 13.0334ZM23.7391 23.4307L22.1793 24.6824L22.1792 24.6824L23.7391 23.4307ZM28.5991 32.1987L30.5261 31.6631L30.5263 31.664L28.5991 32.1987ZM27.3978 45.9934L29.2599 46.7231L29.2598 46.7235L27.3978 45.9934ZM18.1578 49.7334L18.5991 47.7827L18.5999 47.7828L18.1578 49.7334ZM0.540382 35.12C-2.50913 27.8903 -2.46919 19.4383 0.649206 12.2385L4.31971 13.8283C1.63544 20.0258 1.60077 27.3418 4.22593 33.5654L0.540382 35.12ZM2.14532 11.0623C11.3803 9.47337 19.948 15.5101 25.2991 22.179L22.1792 24.6824C17.1677 18.4366 9.90859 13.7854 2.82359 15.0044L2.14532 11.0623ZM25.299 22.179C27.4833 24.901 29.5211 28.0475 30.5261 31.6631L26.6722 32.7343C25.8745 29.8646 24.2084 27.2111 22.1793 24.6824L25.299 22.179ZM30.5263 31.664C31.9484 36.7893 31.0654 42.1163 29.2599 46.7231L25.5357 45.2636C27.1436 41.161 27.7885 36.7574 26.6719 32.7334L30.5263 31.664ZM29.2598 46.7235C28.2402 49.3235 26.7081 51.0787 24.4515 51.826C22.3703 52.5152 20.0289 52.2082 17.7157 51.6839L18.5999 47.7828C20.8281 48.2879 22.2293 48.3482 23.1941 48.0288C23.9835 47.7673 24.8007 47.1379 25.5358 45.2632L29.2598 46.7235ZM17.7166 51.6841C13.7607 50.7893 10.1339 48.175 7.22665 45.1374C4.30015 42.0799 1.93124 38.416 0.540498 35.1203L4.22582 33.5651C5.42041 36.3961 7.51416 39.6529 10.1163 42.3716C12.7377 45.1104 15.7056 47.1281 18.5991 47.7827L17.7166 51.6841Z" fill="#8B5632" mask="url(#path-1-inside-1_228_6906)"/>
<mask id="path-3-inside-2_228_6906" fill="white">
<path d="M47.4271 12.8161C47.6951 12.8227 47.9832 12.8414 48.1952 13.0054C48.4232 13.1787 48.5112 13.4734 48.5859 13.7494C50.4565 20.8134 50.1045 28.5921 46.8205 35.1201C43.5352 41.6454 36.4791 47.6854 29.2325 48.6121C30.7805 47.7627 31.9698 44.8534 32.2298 43.1067C32.7445 39.6627 32.8725 36.0974 31.9952 32.7281C30.4205 26.6787 27.1165 23.9961 27.0431 23.3387C26.9671 22.6761 28.5659 21.1174 28.9912 20.6214C31.8819 17.2374 35.6885 15.2334 39.9298 13.8921C42.3471 13.1267 44.8898 12.7467 47.4271 12.8161Z"/>
</mask>
<path d="M48.1952 13.0054L46.9848 14.5975L46.9781 14.5925L46.9714 14.5873L48.1952 13.0054ZM48.5859 13.7494L50.5165 13.2271L50.5192 13.2374L48.5859 13.7494ZM46.8205 35.1201L48.6072 36.0189L48.6069 36.0195L46.8205 35.1201ZM29.2325 48.6121L29.4862 50.5959L28.2704 46.8586L29.2325 48.6121ZM32.2298 43.1067L30.2516 42.8123L30.2518 42.8111L32.2298 43.1067ZM31.9952 32.7281L30.0597 33.232L30.0597 33.2319L31.9952 32.7281ZM27.0431 23.3387L29.0301 23.1109L29.0308 23.117L27.0431 23.3387ZM28.9912 20.6214L30.5119 21.9204L30.5094 21.9233L28.9912 20.6214ZM39.9298 13.8921L40.5335 15.7988L40.5329 15.799L39.9298 13.8921ZM47.4769 10.8167C47.6668 10.8214 48.6177 10.8037 49.4189 11.4235L46.9714 14.5873C47.1881 14.7549 47.3853 14.8021 47.4456 14.814C47.4777 14.8203 47.4914 14.8206 47.4764 14.8195C47.4606 14.8182 47.4332 14.8168 47.3774 14.8154L47.4769 10.8167ZM49.4056 11.4133C50.2591 12.0621 50.4719 13.0624 50.5165 13.2271L46.6553 14.2717C46.638 14.2078 46.6288 14.1763 46.622 14.1553C46.6157 14.1358 46.6183 14.147 46.6317 14.1761C46.6573 14.2317 46.7549 14.4228 46.9848 14.5975L49.4056 11.4133ZM50.5192 13.2374C52.4913 20.6846 52.149 28.9784 48.6072 36.0189L45.0338 34.2213C48.06 28.2058 48.4217 20.9422 46.6525 14.2614L50.5192 13.2374ZM48.6069 36.0195C45.1002 42.9843 37.5468 49.5652 29.4862 50.5959L28.9788 46.6282C35.4115 45.8056 41.9701 40.3065 45.0341 34.2207L48.6069 36.0195ZM28.2704 46.8586C28.4913 46.7375 28.9476 46.2616 29.4235 45.305C29.8641 44.4196 30.1558 43.4559 30.2516 42.8123L34.208 43.4012C34.0438 44.5043 33.6109 45.8686 33.0047 47.0868C32.434 48.2339 31.5216 49.6373 30.1945 50.3655L28.2704 46.8586ZM30.2518 42.8111C30.7469 39.4976 30.8413 36.2339 30.0597 33.232L33.9306 32.2241C34.9037 35.9609 34.742 39.8279 34.2078 43.4023L30.2518 42.8111ZM30.0597 33.2319C29.3427 30.4777 28.2378 28.5039 27.3053 27.1404C26.8335 26.4506 26.4072 25.9177 26.0541 25.4685C25.8897 25.2593 25.7039 25.0217 25.5572 24.8055C25.4824 24.6951 25.3886 24.5483 25.3046 24.3804C25.231 24.2331 25.0978 23.9401 25.0555 23.5605L29.0308 23.117C28.9976 22.8195 28.8989 22.6246 28.8825 22.5917C28.8557 22.5383 28.842 22.5224 28.8676 22.5601C28.9218 22.6401 29.0185 22.7671 29.1987 22.9964C29.5349 23.4241 30.0468 24.0632 30.607 24.8824C31.7385 26.5369 33.0729 28.9291 33.9307 32.2242L30.0597 33.2319ZM25.0562 23.5666C24.9991 23.0692 25.1098 22.6498 25.1989 22.3942C25.2942 22.1206 25.4203 21.8792 25.5333 21.6877C25.7585 21.3062 26.0422 20.9392 26.2898 20.6407C26.5456 20.3324 26.8113 20.0396 27.026 19.8066C27.2679 19.5441 27.3977 19.4072 27.473 19.3195L30.5094 21.9233C30.372 22.0836 30.1424 22.3275 29.9673 22.5175C29.7651 22.737 29.5561 22.9683 29.3685 23.1944C29.1728 23.4304 29.0445 23.6084 28.978 23.721C28.9452 23.7765 28.9555 23.7695 28.9763 23.7099C28.9908 23.6683 29.0682 23.4426 29.0301 23.1109L25.0562 23.5666ZM27.4705 19.3224C30.6869 15.5571 34.8735 13.3935 39.3267 11.9852L40.5329 15.799C36.5034 17.0733 33.0769 18.9177 30.5119 21.9204L27.4705 19.3224ZM39.3261 11.9854C41.9448 11.1563 44.7097 10.7411 47.4818 10.8168L47.3725 14.8153C45.0699 14.7524 42.7495 15.0972 40.5335 15.7988L39.3261 11.9854Z" fill="#8B5632" mask="url(#path-3-inside-2_228_6906)"/>
<mask id="path-5-inside-3_228_6906" fill="white">
<path d="M32.1351 2.42568C31.7151 2.34968 31.2752 2.29635 30.8672 2.42168C30.4218 2.56168 30.0711 2.90034 29.7485 3.23635C25.9005 7.25501 23.5431 12.671 23.2231 18.227L23.2485 18.559C23.3085 18.727 23.4645 18.8377 23.6138 18.9363C24.2912 19.395 24.9685 19.851 25.6472 20.3083C27.5592 17.0937 30.5192 14.515 33.9672 13.0657C35.5218 12.4097 37.1618 11.983 38.7938 11.559C39.7204 11.3177 40.6512 11.091 41.5725 10.835C42.5218 10.5697 42.8138 10.5764 42.4018 9.64168C41.8538 8.39902 40.7205 7.22034 39.7445 6.29901C37.6458 4.32034 34.9805 2.93102 32.1351 2.42568Z"/>
</mask>
<path d="M30.8672 2.42168L30.2673 0.513699L30.2799 0.509853L30.8672 2.42168ZM29.7485 3.23635L28.3039 1.85314L28.3059 1.85104L29.7485 3.23635ZM23.2231 18.227L21.2289 18.3791L21.2188 18.2456L21.2265 18.112L23.2231 18.227ZM23.2485 18.559L21.365 19.2317L21.2747 18.9788L21.2543 18.7111L23.2485 18.559ZM23.6138 18.9363L24.7163 17.2677L24.7258 17.2739L24.7352 17.2803L23.6138 18.9363ZM25.6472 20.3083L27.3661 21.3307L26.2844 23.1495L24.5295 21.9669L25.6472 20.3083ZM33.9672 13.0657L34.7447 14.9084L34.7422 14.9094L33.9672 13.0657ZM38.7938 11.559L39.2978 13.4945L39.2967 13.4948L38.7938 11.559ZM41.5725 10.835L42.1108 12.7612L42.1079 12.762L41.5725 10.835ZM42.4018 9.64168L44.2318 8.83469L44.2319 8.83498L42.4018 9.64168ZM39.7445 6.29901L41.1165 4.8438L41.1174 4.84465L39.7445 6.29901ZM31.779 4.39372C31.5989 4.36113 31.4967 4.34931 31.4295 4.34706C31.3682 4.345 31.3892 4.35355 31.4544 4.33351L30.2799 0.509853C31.1904 0.230131 32.0558 0.37886 32.4912 0.457645L31.779 4.39372ZM31.467 4.32962C31.542 4.30602 31.5557 4.28242 31.4967 4.32876C31.4306 4.38059 31.3438 4.46253 31.191 4.62165L28.3059 1.85104C28.6059 1.53871 29.2749 0.825737 30.2674 0.513741L31.467 4.32962ZM31.193 4.61955C27.6742 8.29446 25.5125 13.2607 25.2198 18.342L21.2265 18.112C21.5738 12.0813 24.1268 6.21557 28.3039 1.85314L31.193 4.61955ZM25.2174 18.0749L25.2427 18.4069L21.2543 18.7111L21.2289 18.3791L25.2174 18.0749ZM25.132 17.8863C25.0212 17.5762 24.8456 17.3895 24.7643 17.3135C24.6941 17.2477 24.6434 17.2195 24.7163 17.2677L22.5113 20.605C22.442 20.5592 21.6819 20.1189 21.365 19.2317L25.132 17.8863ZM24.7352 17.2803C25.4102 17.7374 26.0851 18.1917 26.7648 18.6498L24.5295 21.9669C23.8519 21.5103 23.1721 21.0527 22.4924 20.5924L24.7352 17.2803ZM23.9282 19.286C26.0585 15.7044 29.349 12.8374 33.1922 11.2219L34.7422 14.9094C31.6894 16.1926 29.0599 18.483 27.3661 21.3307L23.9282 19.286ZM33.1896 11.223C34.9004 10.5011 36.6823 10.0412 38.2909 9.62328L39.2967 13.4948C37.6413 13.9248 36.1432 14.3182 34.7447 14.9083L33.1896 11.223ZM38.2897 9.62358C39.2598 9.37094 40.1342 9.15888 41.0371 8.90801L42.1079 12.762C41.1681 13.0231 40.1811 13.2644 39.2978 13.4945L38.2897 9.62358ZM41.0341 8.90883C41.3516 8.82011 41.436 8.80127 41.5301 8.77C41.5583 8.76063 41.5169 8.77216 41.444 8.80975C41.3699 8.84796 41.2101 8.93991 41.0439 9.11576C40.8622 9.30806 40.7181 9.5532 40.6419 9.83145C40.5708 10.091 40.5796 10.3023 40.593 10.4167C40.614 10.5967 40.6615 10.6522 40.5717 10.4484L44.2319 8.83498C44.3481 9.09855 44.5136 9.50363 44.5661 9.95356C44.6312 10.5123 44.5287 11.2519 43.9513 11.8629C43.5137 12.3261 42.9787 12.5037 42.7909 12.5661C42.5762 12.6374 42.2681 12.7172 42.1108 12.7612L41.0341 8.90883ZM40.5718 10.4487C40.2037 9.61401 39.3511 8.67803 38.3716 7.75336L41.1174 4.84465C42.0899 5.76265 43.5038 7.18403 44.2318 8.83469L40.5718 10.4487ZM38.3725 7.75421C36.5419 6.02831 34.2269 4.82849 31.7854 4.39487L32.4849 0.456499C35.734 1.03354 38.7497 2.61237 41.1165 4.8438L38.3725 7.75421Z" fill="#8B5632" mask="url(#path-5-inside-3_228_6906)"/>
<mask id="path-7-inside-4_228_6906" fill="white">
<path d="M16.559 2.57819C16.3457 2.46886 16.1231 2.36086 15.8857 2.34886C15.6257 2.33553 15.3764 2.4342 15.139 2.53687C11.3764 4.1542 8.44705 6.42486 6.24438 9.87819C11.5951 10.5649 16.0644 12.0755 20.7097 16.4675C20.6977 14.8395 20.9524 13.2075 21.4537 11.6569C21.7937 10.6009 23.1164 8.85019 22.7884 7.72886C22.5017 6.74086 20.9324 5.6542 20.1831 5.01686C19.0724 4.0702 17.855 3.24886 16.559 2.57819Z"/>
</mask>
<path d="M15.8857 2.34886L15.7847 4.34631L15.7833 4.34624L15.8857 2.34886ZM15.139 2.53687L15.9331 4.37248L15.9288 4.37431L15.139 2.53687ZM6.24438 9.87819L5.98981 11.8619L2.86284 11.4606L4.55819 8.80267L6.24438 9.87819ZM20.7097 16.4675L22.7096 16.4528L22.7442 21.1435L19.3357 17.9208L20.7097 16.4675ZM21.4537 11.6569L23.3575 12.2698L23.3567 12.2721L21.4537 11.6569ZM22.7884 7.72886L20.8688 8.29035L20.8676 8.28617L22.7884 7.72886ZM20.1831 5.01686L18.8873 6.54034L18.8857 6.53898L20.1831 5.01686ZM15.6469 4.35806C15.598 4.33303 15.5685 4.31834 15.5456 4.30753C15.5236 4.29722 15.5191 4.29591 15.5267 4.29876C15.539 4.30342 15.6341 4.3387 15.7847 4.34631L15.9867 0.351414C16.7125 0.388109 17.2978 0.709426 17.4712 0.798325L15.6469 4.35806ZM15.7833 4.34624C15.9385 4.35419 16.0405 4.32611 16.0571 4.32134C16.0663 4.31869 16.0623 4.31933 16.0396 4.32807C16.0161 4.33717 15.9846 4.3502 15.9331 4.37248L14.345 0.701254C14.5539 0.610871 15.2036 0.311251 15.9882 0.351486L15.7833 4.34624ZM15.9288 4.37431C12.4764 5.85829 9.88588 7.8882 7.93058 10.9537L4.55819 8.80267C7.00822 4.96152 10.2763 2.45011 14.3492 0.699419L15.9288 4.37431ZM6.49896 7.89446C12.1568 8.62055 17.0574 10.262 22.0837 15.0142L19.3357 17.9208C15.0713 13.889 11.0333 12.5092 5.98981 11.8619L6.49896 7.89446ZM18.7097 16.4823C18.6961 14.6374 18.9845 12.7928 19.5507 11.0416L23.3567 12.2721C22.9202 13.6222 22.6992 15.0416 22.7096 16.4528L18.7097 16.4823ZM19.5499 11.0439C19.6885 10.6136 19.9022 10.1793 20.0665 9.85389C20.2575 9.47545 20.4106 9.18904 20.5601 8.86967C20.7052 8.55955 20.7868 8.34023 20.8239 8.1896C20.8639 8.02684 20.8128 8.0988 20.8688 8.29035L24.708 7.16737C24.928 7.91958 24.8345 8.63087 24.7082 9.14474C24.5788 9.67074 24.3701 10.1653 24.183 10.5651C24.0003 10.9555 23.7795 11.3749 23.6371 11.6567C23.4681 11.9916 23.3889 12.1722 23.3575 12.2698L19.5499 11.0439ZM20.8676 8.28617C20.8973 8.38861 20.9174 8.3701 20.7995 8.22171C20.6927 8.08721 20.5319 7.91958 20.3132 7.72062C20.0981 7.52485 19.8605 7.32875 19.6116 7.12828C19.3851 6.94588 19.1019 6.72285 18.8873 6.54034L21.4788 3.49339C21.6666 3.65311 22.4929 4.29592 23.0052 4.7621C23.5207 5.2311 24.3931 6.08206 24.7092 7.17155L20.8676 8.28617ZM18.8857 6.53898C17.8891 5.68953 16.7983 4.95394 15.6398 4.35445L17.4782 0.801936C18.9118 1.54377 20.2557 2.45086 21.4804 3.49474L18.8857 6.53898Z" fill="#8B5632" mask="url(#path-7-inside-4_228_6906)"/>
<mask id="path-9-inside-5_228_6906" fill="white">
<path d="M23.5604 0.00356483C21.799 -0.0551019 19.9817 0.606233 18.8297 1.93823C20.8097 3.0329 22.6031 4.46756 24.1044 6.16089C25.3164 4.98089 26.5271 3.8009 27.7391 2.62223C28.1244 2.24623 28.4911 2.0489 28.1551 1.6369C27.8551 1.27023 27.1311 0.998226 26.7097 0.798226C25.7244 0.335559 24.6524 0.0395646 23.5604 0.00356483Z"/>
</mask>
<path d="M18.8297 1.93823L17.862 3.68854L15.7037 2.49529L17.317 0.629929L18.8297 1.93823ZM24.1044 6.16089L25.4996 7.59389L23.9981 9.05572L22.6079 7.48771L24.1044 6.16089ZM27.7391 2.62223L29.1359 4.05368L29.1334 4.05603L27.7391 2.62223ZM28.1551 1.6369L29.703 0.370421L29.705 0.372882L28.1551 1.6369ZM26.7097 0.798226L27.5598 -1.01215L27.5674 -1.00855L26.7097 0.798226ZM23.4938 2.00246C22.2298 1.96035 21.0345 2.44629 20.3424 3.24654L17.317 0.629929C18.9289 -1.23382 21.3683 -2.07056 23.627 -1.99533L23.4938 2.00246ZM19.7974 0.18792C21.9759 1.39233 23.9482 2.97003 25.6009 4.83406L22.6079 7.48771C21.2579 5.96508 19.6435 4.67347 17.862 3.68854L19.7974 0.18792ZM22.7092 4.72788C23.9201 3.54892 25.1322 2.36758 26.3447 1.18844L29.1334 4.05603C27.9219 5.23422 26.7126 6.41285 25.4996 7.59389L22.7092 4.72788ZM26.3423 1.19079C26.4474 1.08824 26.6451 0.90941 26.6488 0.90594C26.7216 0.837904 26.641 0.901457 26.5498 1.03928C26.4331 1.21551 26.2518 1.58325 26.2929 2.07772C26.3312 2.53741 26.5398 2.82079 26.6052 2.90091L29.705 0.372882C29.9384 0.659007 30.2272 1.12155 30.2791 1.74586C30.334 2.40496 30.0999 2.92278 29.8854 3.24685C29.6964 3.53251 29.4728 3.74164 29.379 3.82923C29.2161 3.98139 29.2234 3.96822 29.1359 4.05368L26.3423 1.19079ZM26.6072 2.90337C26.6944 3.00993 26.7573 3.04692 26.729 3.02744C26.7083 3.01321 26.6583 2.98234 26.5665 2.93531C26.4766 2.88931 26.374 2.84159 26.25 2.78573C26.1454 2.73862 25.9816 2.66648 25.8521 2.605L27.5674 -1.00855C27.6126 -0.987072 28.1146 -0.765867 28.3893 -0.625188C28.6853 -0.473688 29.2704 -0.158322 29.703 0.370422L26.6072 2.90337ZM25.8597 2.60858C25.0769 2.24106 24.271 2.02808 23.4945 2.00248L23.6263 -1.99535C25.0338 -1.94895 26.3718 -1.56994 27.5598 -1.01213L25.8597 2.60858Z" fill="#8B5632" mask="url(#path-9-inside-5_228_6906)"/>
<path d="M19.3237 54.3318L19.3235 54.3316C18.7043 53.4295 17.9554 52.4247 17.0534 51.6213C18.7406 51.8402 20.3596 52.6681 21.4318 53.9788L22.4143 55.1799L23.1022 53.789C23.5129 52.9584 24.0698 52.2005 24.7384 51.5597C25.3399 52.311 25.8418 53.1411 26.2265 54.0229L27.1409 56.1185L28.0589 54.0245C28.2734 53.5353 28.556 53.0756 28.8935 52.6602L30.7775 53.1506C31.2677 52.0902 32.1357 51.2141 33.1713 50.6591C32.7332 51.4398 32.3755 52.2658 32.1076 53.121C32.0931 53.1674 32.0787 53.2135 32.0643 53.2592C31.735 54.3107 31.464 55.1758 30.9508 55.9011C28.7638 58.986 25.6329 58.9096 23.391 58.5717L19.3237 54.3318ZM19.3237 54.3318C19.4964 54.5836 19.6668 54.8426 19.839 55.1042M19.3237 54.3318L19.839 55.1042M19.839 55.1042C20.2777 55.771 20.7277 56.4548 21.2552 57.0791M19.839 55.1042L21.2552 57.0791M21.2552 57.0791C21.9885 57.9468 22.6905 58.4659 23.3909 58.5716L21.2552 57.0791Z" stroke="#8B5632" stroke-width="2"/>
<path d="M25.0002 115.5H26.0002V59.5H25.0002V115.5Z" fill="#8B5632" stroke="#8B5632"/>
<mask id="path-13-inside-6_228_6906" fill="white">
<path d="M32.1805 63.7823C35.2872 61.2166 39.2912 59.7609 43.3192 59.7313C42.9632 63.9062 41.0218 67.9261 37.9752 70.8005C35.3205 73.3047 31.8471 74.9209 28.2298 75.3703C27.5364 75.4567 26.4072 75.7791 26.0218 75.1114C25.7658 74.6661 26.1378 73.6089 26.2591 73.1447C26.7085 71.4193 27.4178 69.7474 28.3445 68.2275C29.3658 66.5474 30.6645 65.0338 32.1805 63.7823Z"/>
</mask>
<path d="M43.3192 59.7313L43.3045 57.7313L45.4983 57.7152L45.3119 59.9012L43.3192 59.7313ZM37.9752 70.8005L39.3476 72.2552L39.3476 72.2553L37.9752 70.8005ZM28.2298 75.3703L27.9825 73.3857L27.9832 73.3856L28.2298 75.3703ZM26.0218 75.1114L24.2896 76.1111L24.2879 76.1082L26.0218 75.1114ZM26.2591 73.1447L28.1946 73.6488L28.1941 73.6506L26.2591 73.1447ZM28.3445 68.2275L30.0535 69.2664L30.0521 69.2687L28.3445 68.2275ZM30.9069 62.2403C34.3682 59.3817 38.8168 57.7643 43.3045 57.7313L43.3339 61.7312C39.7655 61.7574 36.2061 63.0516 33.4541 65.3244L30.9069 62.2403ZM45.3119 59.9012C44.9141 64.5662 42.7519 69.0434 39.3476 72.2552L36.6027 69.3457C39.2917 66.8087 41.0122 63.2462 41.3264 59.5614L45.3119 59.9012ZM39.3476 72.2553C36.379 75.0557 32.5095 76.854 28.4764 77.3551L27.9832 73.3856C31.1847 72.9878 34.262 71.5538 36.6028 69.3457L39.3476 72.2553ZM28.4771 77.355C28.3334 77.3729 28.244 77.3922 27.9481 77.4374C27.7153 77.4729 27.3922 77.5168 27.0483 77.5233C26.4807 77.5341 25.0643 77.4535 24.2896 76.1111L27.7541 74.1118C27.6756 73.9757 27.5692 73.8521 27.4432 73.752C27.3206 73.6546 27.2035 73.5983 27.1172 73.5668C26.9645 73.5111 26.8884 73.5256 26.9723 73.524C27.0456 73.5226 27.1589 73.5115 27.3449 73.4831C27.4387 73.4688 27.5216 73.4549 27.6337 73.4369C27.7346 73.4206 27.858 73.4012 27.9825 73.3857L28.4771 77.355ZM24.2879 76.1082C23.9679 75.5515 23.9324 74.9883 23.9339 74.6724C23.9355 74.3213 23.9877 73.9915 24.0384 73.7401C24.1268 73.3012 24.3092 72.6962 24.3242 72.6389L28.1941 73.6506C28.1722 73.7343 28.147 73.8226 28.1261 73.8957C28.1031 73.9759 28.0826 74.0467 28.0609 74.1241C28.0178 74.278 27.9833 74.4127 27.9596 74.5302C27.9341 74.6567 27.9338 74.7037 27.9338 74.6906C27.9339 74.6801 27.9338 74.6238 27.9168 74.5361C27.8999 74.4497 27.8593 74.2947 27.7558 74.1147L24.2879 76.1082ZM24.3237 72.6407C24.8223 70.726 25.6084 68.8732 26.6369 67.1864L30.0521 69.2687C29.2272 70.6216 28.5946 72.1125 28.1946 73.6488L24.3237 72.6407ZM26.6355 67.1887C27.7698 65.3226 29.2143 63.6375 30.9073 62.24L33.4537 65.3247C32.1147 66.4301 30.9618 67.7722 30.0535 69.2664L26.6355 67.1887Z" fill="#8B5632" mask="url(#path-13-inside-6_228_6906)"/>
<mask id="path-15-inside-7_228_6906" fill="white">
<path d="M17.9978 78.5564C14.5138 76.6829 10.5111 76.0845 6.59509 75.5231C7.17643 76.57 7.29911 77.7949 7.54978 78.9643C8.39511 82.9111 10.7977 86.4403 13.9431 88.97C16.8231 91.2881 21.1138 93.582 24.8751 93.7976C26.9284 87.8829 23.2258 81.3643 17.9978 78.5564Z"/>
</mask>
<path d="M6.59509 75.5231L4.84657 76.494L2.89062 72.9715L6.87895 73.5433L6.59509 75.5231ZM7.54978 78.9643L9.50535 78.5451L9.50543 78.5454L7.54978 78.9643ZM13.9431 88.97L15.1965 87.4115L15.1971 87.412L13.9431 88.97ZM24.8751 93.7976L26.7645 94.4535L26.269 95.8808L24.7607 95.7943L24.8751 93.7976ZM17.0506 80.3179C13.9288 78.6392 10.2827 78.0722 6.31124 77.5028L6.87895 73.5433C10.7395 74.0968 15.0987 74.7267 18.945 76.7949L17.0506 80.3179ZM8.34362 74.5522C8.76336 75.3081 8.99095 76.0799 9.14517 76.7478C9.22244 77.0825 9.2859 77.413 9.34187 77.7093C9.40002 78.0172 9.44914 78.2829 9.50535 78.5451L5.59421 79.3835C5.52508 79.061 5.46487 78.735 5.41135 78.4517C5.35565 78.1568 5.30511 77.8963 5.24771 77.6477C5.13258 77.1491 5.00816 76.785 4.84657 76.494L8.34362 74.5522ZM9.50543 78.5454C10.2408 81.9786 12.3544 85.1256 15.1965 87.4115L12.6896 90.5285C9.24112 87.7549 6.54946 83.8435 5.59413 79.3831L9.50543 78.5454ZM15.1971 87.412C17.9217 89.6051 21.8189 91.6191 24.9896 91.8009L24.7607 95.7943C20.4086 95.5449 15.7244 92.9712 12.689 90.528L15.1971 87.412ZM22.9857 93.1417C24.6286 88.4094 21.6744 82.8013 17.0514 80.3184L18.9441 76.7944C24.7771 79.9273 29.2283 87.3565 26.7645 94.4535L22.9857 93.1417Z" fill="#8B5632" mask="url(#path-15-inside-7_228_6906)"/>
<mask id="path-17-inside-8_228_6906" fill="white">
<path d="M28.7817 100.771C31.2911 97.3966 35.5137 95.8272 39.5484 94.6378C39.1164 98.1111 37.5644 101.435 35.1817 103.998C32.9591 106.39 29.5097 108.676 26.1844 108.994C25.2164 106.364 27.2604 102.815 28.7817 100.771Z"/>
</mask>
<path d="M39.5484 94.6378L38.9828 92.7194L41.9097 91.8565L41.5331 94.8846L39.5484 94.6378ZM35.1817 103.998L33.7166 102.636L33.7171 102.636L35.1817 103.998ZM26.1844 108.994L26.3746 110.985L24.8401 111.131L24.3075 109.685L26.1844 108.994ZM27.1768 99.5777C30.1243 95.6139 34.9663 93.9035 38.9828 92.7194L40.114 96.5561C36.0612 97.751 32.4578 99.1792 30.3866 101.965L27.1768 99.5777ZM41.5331 94.8846C41.0492 98.7756 39.3149 102.49 36.6464 105.36L33.7171 102.636C35.8139 100.381 37.1836 97.4466 37.5637 94.3909L41.5331 94.8846ZM36.6469 105.359C34.2407 107.949 30.3697 110.603 26.3746 110.985L25.9943 107.003C28.6497 106.749 31.6774 104.831 33.7166 102.636L36.6469 105.359ZM24.3075 109.685C23.5713 107.685 24.0418 105.571 24.689 103.929C25.3567 102.236 26.3565 100.68 27.1773 99.5771L30.3862 101.965C29.6856 102.907 28.9027 104.147 28.4102 105.397C27.897 106.698 27.8295 107.673 28.0613 108.303L24.3075 109.685Z" fill="#8B5632" mask="url(#path-17-inside-8_228_6906)"/>
</svg>
