<svg width="78" height="86" viewBox="0 0 78 86" fill="none" xmlns="http://www.w3.org/2000/svg">
<circle cx="39" cy="39" r="39" fill="#E3D9C6"/>
<mask id="path-2-inside-1_1_504" fill="white">
<path d="M26.1315 39.5397C24.5172 35.7125 24.5384 31.2268 26.1892 27.4155C30.8319 26.6166 35.3344 29.6572 38.2824 33.3312C39.481 34.8249 40.5347 36.4749 41.0475 38.3199C41.7697 40.9227 41.3351 43.6909 40.364 46.1686C39.3657 48.7145 37.6907 48.8822 35.1068 48.2965C31.2098 47.415 27.6025 43.0256 26.1315 39.5397Z"/>
</mask>
<path d="M26.1892 27.4155L24.3539 26.6206L24.7839 25.6279L25.8501 25.4444L26.1892 27.4155ZM38.2824 33.3312L36.7225 34.5829L36.7225 34.5829L38.2824 33.3312ZM41.0475 38.3199L42.9745 37.7843L42.9747 37.7851L41.0475 38.3199ZM40.364 46.1686L42.2261 46.8984L42.226 46.8987L40.364 46.1686ZM35.1068 48.2965L35.548 46.3458L35.5489 46.346L35.1068 48.2965ZM24.2888 40.317C22.4623 35.9868 22.4861 30.933 24.3539 26.6206L28.0244 28.2104C26.5907 31.5205 26.5722 35.4382 27.9743 38.7625L24.2888 40.317ZM25.8501 25.4444C31.5678 24.4606 36.7245 28.194 39.8423 32.0795L36.7225 34.5829C33.9442 31.1204 30.0961 28.7726 26.5283 29.3865L25.8501 25.4444ZM39.8423 32.0795C41.1184 33.6699 42.358 35.5664 42.9745 37.7843L39.1206 38.8555C38.7114 37.3835 37.8435 35.9799 36.7225 34.5829L39.8423 32.0795ZM42.9747 37.7851C43.8497 40.9387 43.296 44.1686 42.2261 46.8984L38.5019 45.4388C39.3741 43.2133 39.6897 40.9068 39.1203 38.8546L42.9747 37.7851ZM42.226 46.8987C41.5846 48.5343 40.5588 49.7756 38.9587 50.3055C37.534 50.7773 35.9991 50.5495 34.6647 50.247L35.5489 46.346C36.7984 46.6292 37.3929 46.6104 37.7013 46.5083C37.8342 46.4642 38.1451 46.3487 38.5021 45.4384L42.226 46.8987ZM34.6655 50.2472C32.1859 49.6863 29.9803 48.0703 28.2645 46.2777C26.5296 44.465 25.1224 42.2927 24.2889 40.3173L27.9742 38.7622C28.6116 40.2727 29.7436 42.038 31.1542 43.5119C32.5841 45.0058 34.1307 46.0252 35.548 46.3458L34.6655 50.2472Z" fill="#8B5632" mask="url(#path-2-inside-1_1_504)"/>
<mask id="path-4-inside-2_1_504" fill="white">
<path d="M51.7604 27.292C51.9129 27.2958 52.0768 27.3064 52.1974 27.3997C52.3271 27.4984 52.3772 27.666 52.4197 27.823C53.4841 31.8422 53.2838 36.268 51.4153 39.9822C49.546 43.6949 45.5314 47.1315 41.4083 47.6587C42.2891 47.1755 42.9658 45.5201 43.1137 44.5264C43.4065 42.5668 43.4794 40.5383 42.9802 38.6212C42.0843 35.1794 40.2044 33.653 40.1627 33.279C40.1194 32.902 41.029 32.0152 41.271 31.733C42.9157 29.8076 45.0815 28.6674 47.4947 27.9042C48.8701 27.4688 50.3168 27.2526 51.7604 27.292Z"/>
</mask>
<path d="M52.1974 27.3997L50.987 28.9919L50.9803 28.9868L50.9737 28.9816L52.1974 27.3997ZM52.4197 27.823L54.3503 27.3007L54.3531 27.3111L52.4197 27.823ZM51.4153 39.9822L53.2019 40.881L53.2016 40.8816L51.4153 39.9822ZM41.4083 47.6587L41.662 49.6425L40.4463 45.9053L41.4083 47.6587ZM43.1137 44.5264L41.1355 44.2319L41.1356 44.2308L43.1137 44.5264ZM42.9802 38.6212L41.0447 39.1252L41.0447 39.1251L42.9802 38.6212ZM40.1627 33.279L42.1496 33.0512L42.1503 33.0573L40.1627 33.279ZM41.271 31.733L42.7917 33.032L42.7893 33.0349L41.271 31.733ZM47.4947 27.9042L48.0984 29.8109L48.0978 29.8111L47.4947 27.9042ZM51.8102 25.2926C51.8846 25.2945 52.7114 25.2687 53.4212 25.8178L50.9737 28.9816C51.2361 29.1846 51.4871 29.2515 51.6044 29.2746C51.7095 29.2953 51.7778 29.2931 51.7107 29.2914L51.8102 25.2926ZM53.4078 25.8076C54.1631 26.3818 54.3379 27.255 54.3503 27.3008L50.4891 28.3453C50.4667 28.2624 50.4806 28.3304 50.5249 28.4266C50.5764 28.5383 50.708 28.7798 50.987 28.9919L53.4078 25.8076ZM54.3531 27.3111C55.5189 31.7134 55.3283 36.6543 53.2019 40.881L49.6286 39.0834C51.2393 35.8817 51.4492 31.971 50.4864 28.335L54.3531 27.3111ZM53.2016 40.8816C51.1111 45.0338 46.599 49.0112 41.662 49.6425L41.1546 45.6748C44.4638 45.2517 47.981 42.356 49.6289 39.0828L53.2016 40.8816ZM40.4463 45.9053C40.3555 45.9551 40.3695 45.9745 40.4596 45.8611C40.5414 45.7581 40.6418 45.601 40.7452 45.3931C40.9602 44.961 41.0957 44.499 41.1355 44.2319L45.0919 44.8208C44.9837 45.5475 44.707 46.41 44.3264 47.1749C43.9813 47.8686 43.3638 48.867 42.3703 49.4121L40.4463 45.9053ZM41.1356 44.2308C41.409 42.4017 41.4482 40.6748 41.0447 39.1252L44.9156 38.1173C45.5105 40.4018 45.404 42.732 45.0917 44.8219L41.1356 44.2308ZM41.0447 39.1251C40.6671 37.6746 40.0879 36.6418 39.6002 35.9287C39.3509 35.5641 39.1267 35.2838 38.9222 35.0235C38.832 34.9089 38.7071 34.7498 38.6038 34.5975C38.5506 34.519 38.474 34.4004 38.4024 34.2572C38.3411 34.1345 38.2154 33.8627 38.175 33.5008L42.1503 33.0573C42.1152 32.7421 42.009 32.5261 41.9802 32.4685C41.9589 32.4258 41.9409 32.395 41.9311 32.3789C41.9209 32.3621 41.9145 32.3526 41.9141 32.3521C41.9136 32.3513 41.9164 32.3554 41.9238 32.3656C41.931 32.3756 41.9411 32.3892 41.9548 32.4073C41.9833 32.4448 42.0189 32.4905 42.0669 32.5515C42.2545 32.7902 42.5642 33.1768 42.9019 33.6707C43.5886 34.6747 44.3973 36.126 44.9157 38.1174L41.0447 39.1251ZM38.1757 33.5069C38.1227 33.0453 38.2263 32.6676 38.2992 32.4581C38.3785 32.2306 38.4796 32.0397 38.5612 31.9014C38.7236 31.6264 38.9184 31.3769 39.0705 31.1936C39.2307 31.0004 39.3942 30.8206 39.519 30.6852C39.5508 30.6507 39.5811 30.618 39.6083 30.5886C39.6362 30.5585 39.66 30.5328 39.6819 30.5091C39.7037 30.4854 39.7206 30.467 39.7338 30.4524C39.7476 30.4371 39.7529 30.4309 39.7528 30.4311L42.7893 33.0349C42.733 33.1005 42.6702 33.169 42.6224 33.2208C42.5963 33.2491 42.5685 33.2791 42.542 33.3077C42.5148 33.337 42.4879 33.3661 42.4603 33.396C42.3479 33.518 42.2413 33.6363 42.1492 33.7473C42.1041 33.8018 42.0683 33.8474 42.0413 33.884C42.0132 33.9223 42.0037 33.9385 42.0059 33.9348C42.0076 33.9319 42.0155 33.9183 42.027 33.8948C42.038 33.872 42.0568 33.8309 42.0766 33.7738C42.0961 33.7179 42.1224 33.6305 42.1404 33.5174C42.1583 33.4048 42.1718 33.2441 42.1496 33.0512L38.1757 33.5069ZM39.7503 30.434C41.7207 28.1273 44.2666 26.8275 46.8917 25.9973L48.0978 29.8111C45.8965 30.5073 44.1107 31.4879 42.7917 33.032L39.7503 30.434ZM46.891 25.9975C48.4678 25.4983 50.1367 25.2469 51.8151 25.2928L51.7058 29.2913C50.4969 29.2582 49.2724 29.4392 48.0984 29.8109L46.891 25.9975Z" fill="#8B5632" mask="url(#path-4-inside-2_1_504)"/>
<mask id="path-6-inside-3_1_504" fill="white">
<path d="M43.0593 21.3801C42.8203 21.3368 42.57 21.3065 42.3378 21.3778C42.0844 21.4574 41.8849 21.6501 41.7013 21.8413C39.5119 24.1278 38.1707 27.2093 37.9886 30.3705L38.0031 30.5594C38.0372 30.655 38.126 30.7179 38.2109 30.7741C38.5963 31.035 38.9817 31.2945 39.3678 31.5547C40.4557 29.7257 42.1398 28.2585 44.1016 27.4339C44.9862 27.0606 45.9192 26.8179 46.8478 26.5766C47.375 26.4393 47.9046 26.3103 48.4288 26.1647C48.9689 26.0137 49.135 26.0175 48.9006 25.4857C48.5888 24.7787 47.944 24.1081 47.3887 23.5839C46.1947 22.4581 44.6781 21.6676 43.0593 21.3801Z"/>
</mask>
<path d="M42.3378 21.3778L41.738 19.4698L41.7505 19.466L42.3378 21.3778ZM41.7013 21.8413L40.2568 20.4581L40.2588 20.456L41.7013 21.8413ZM37.9886 30.3705L35.9944 30.5226L35.9843 30.3891L35.992 30.2555L37.9886 30.3705ZM38.0031 30.5594L36.1196 31.2321L36.0293 30.9792L36.0088 30.7115L38.0031 30.5594ZM38.2109 30.7741L39.3134 29.1054L39.3229 29.1117L39.3323 29.118L38.2109 30.7741ZM39.3678 31.5547L41.0868 32.5771L40.005 34.3958L38.2502 33.2133L39.3678 31.5547ZM44.1016 27.4339L44.8791 29.2765L44.8766 29.2776L44.1016 27.4339ZM46.8478 26.5766L47.3518 28.5121L47.3507 28.5124L46.8478 26.5766ZM48.4288 26.1647L48.9671 28.0909L48.9642 28.0917L48.4288 26.1647ZM48.9006 25.4857L50.7306 24.6787L50.7307 24.679L48.9006 25.4857ZM47.3887 23.5839L48.7607 22.1286L48.7616 22.1295L47.3887 23.5839ZM42.7031 23.3481C42.6618 23.3406 42.6376 23.337 42.6231 23.3351C42.6089 23.3333 42.6124 23.3343 42.6289 23.3348C42.6596 23.3359 42.772 23.3367 42.9251 23.2896L41.7505 19.466C42.4852 19.2403 43.161 19.366 43.4154 19.412L42.7031 23.3481ZM42.9376 23.2857C43.1087 23.232 43.2081 23.1568 43.2283 23.141C43.2393 23.1323 43.2384 23.132 43.2222 23.1474C43.2055 23.1634 43.1823 23.1866 43.1439 23.2266L40.2588 20.456C40.4196 20.2885 40.9375 19.7215 41.738 19.4698L42.9376 23.2857ZM43.1459 23.2245C41.2857 25.1672 40.1401 27.799 39.9853 30.4855L35.992 30.2555C36.2014 26.6196 37.7382 23.0883 40.2568 20.4581L43.1459 23.2245ZM39.9829 30.2184L39.9973 30.4073L36.0088 30.7115L35.9944 30.5226L39.9829 30.2184ZM39.8865 29.8867C39.7628 29.5404 39.5639 29.3236 39.4546 29.2213C39.3563 29.1293 39.2726 29.0784 39.3134 29.1054L37.1084 32.4427C37.1035 32.4395 36.4106 32.0469 36.1196 31.2321L39.8865 29.8867ZM39.3323 29.118C39.7153 29.3774 40.0983 29.6352 40.4855 29.8961L38.2502 33.2133C37.8651 32.9538 37.4773 32.6927 37.0895 32.4301L39.3323 29.118ZM37.6489 30.5323C38.955 28.3363 40.9696 26.5809 43.3266 25.5901L44.8766 29.2776C43.31 29.9361 41.9564 31.115 41.0868 32.5771L37.6489 30.5323ZM43.3241 25.5912C44.3648 25.1521 45.4397 24.876 46.3449 24.6409L47.3507 28.5124C46.3987 28.7597 45.6075 28.9692 44.8791 29.2765L43.3241 25.5912ZM46.3437 24.6412C46.9144 24.4926 47.3876 24.3782 47.8934 24.2377L48.9642 28.0917C48.4215 28.2425 47.8357 28.3861 47.3518 28.5121L46.3437 24.6412ZM47.8904 24.2385C47.9545 24.2206 48.0553 24.1933 48.082 24.186C48.1324 24.1721 48.1407 24.1691 48.133 24.1716C48.1279 24.1733 48.0576 24.1961 47.9605 24.2462C47.8622 24.2969 47.6827 24.4026 47.5015 24.5944C47.3047 24.8027 47.15 25.0661 47.0679 25.3659C46.9909 25.6469 46.9985 25.883 47.0152 26.0265C47.043 26.2647 47.116 26.3955 47.0705 26.2924L50.7307 24.679C50.8025 24.8419 50.9426 25.1716 50.9883 25.5634C51.0467 26.0639 50.956 26.7625 50.4089 27.3416C50.0015 27.7728 49.515 27.9275 49.3937 27.9677C49.2456 28.0169 49.0221 28.0755 48.9671 28.0909L47.8904 24.2385ZM47.0707 26.2927C46.9388 25.9937 46.5747 25.5657 46.0158 25.0382L48.7616 22.1295C49.3134 22.6504 50.2389 23.5637 50.7306 24.6787L47.0707 26.2927ZM46.0167 25.0391C45.0907 24.166 43.9246 23.5651 42.7095 23.3493L43.409 19.4109C45.4317 19.7701 47.2986 20.7501 48.7607 22.1286L46.0167 25.0391Z" fill="#8B5632" mask="url(#path-6-inside-3_1_504)"/>
<mask id="path-8-inside-4_1_504" fill="white">
<path d="M34.1971 21.4668C34.0758 21.4046 33.9491 21.3432 33.814 21.3363C33.6661 21.3288 33.5242 21.3849 33.3892 21.4433C31.2484 22.3635 29.5817 23.6555 28.3285 25.6203C31.3728 26.011 33.9157 26.8705 36.5587 29.3694C36.5519 28.4431 36.6968 27.5146 36.982 26.6323C37.1755 26.0315 37.928 25.0354 37.7414 24.3974C37.5783 23.8352 36.6854 23.217 36.2591 22.8543C35.6271 22.3157 34.9345 21.8484 34.1971 21.4668Z"/>
</mask>
<path d="M33.814 21.3363L33.713 23.3338L33.7116 23.3337L33.814 21.3363ZM33.3892 21.4433L34.1833 23.2789L34.179 23.2808L33.3892 21.4433ZM28.3285 25.6203L28.0739 27.604L24.9469 27.2027L26.6423 24.5448L28.3285 25.6203ZM36.5587 29.3694L38.5587 29.3546L38.5932 34.0453L35.1847 30.8227L36.5587 29.3694ZM36.982 26.6323L38.8858 27.2452L38.885 27.2475L36.982 26.6323ZM37.7414 24.3974L35.8219 24.9589L35.8206 24.9547L37.7414 24.3974ZM36.2591 22.8543L34.9633 24.3778L34.9617 24.3765L36.2591 22.8543ZM33.285 23.2467C33.2258 23.2164 33.253 23.2326 33.306 23.2526C33.3666 23.2754 33.5113 23.3236 33.713 23.3338L33.915 19.3389C34.5385 19.3704 35.0278 19.6452 35.1093 19.687L33.285 23.2467ZM33.7116 23.3337C33.9228 23.3446 34.0797 23.3073 34.15 23.2871C34.2116 23.2693 34.243 23.2531 34.1833 23.2789L32.5952 19.6077C32.7018 19.5616 33.244 19.3045 33.9165 19.339L33.7116 23.3337ZM34.179 23.2808C32.3484 24.0676 31.0205 25.1188 30.0146 26.6958L26.6423 24.5448C28.1429 22.1921 30.1483 20.6594 32.5994 19.6059L34.179 23.2808ZM28.583 23.6365C31.9346 24.0667 34.9087 25.057 37.9327 27.9161L35.1847 30.8227C32.9227 28.684 30.811 27.9553 28.0739 27.604L28.583 23.6365ZM34.5588 29.3841C34.5503 28.241 34.7289 27.0999 35.079 26.017L38.885 27.2475C38.6646 27.9292 38.5534 28.6452 38.5587 29.3546L34.5588 29.3841ZM35.0783 26.0193C35.1802 25.7028 35.3307 25.401 35.4232 25.2179C35.5424 24.9818 35.6149 24.8475 35.6928 24.6811C35.7266 24.6089 35.7503 24.5532 35.7668 24.5103C35.7836 24.4665 35.7877 24.4492 35.7866 24.4537C35.7857 24.4571 35.7743 24.5033 35.7715 24.5828C35.7687 24.664 35.7745 24.7969 35.8219 24.9589L39.661 23.8359C39.8457 24.4673 39.7613 25.0408 39.6708 25.4088C39.5774 25.789 39.4312 26.1297 39.3157 26.3765C39.2046 26.6139 39.0643 26.8812 38.9939 27.0207C38.8966 27.2133 38.8806 27.2614 38.8858 27.2452L35.0783 26.0193ZM35.8206 24.9547C35.8813 25.1636 35.9668 25.2542 35.9347 25.2139C35.9138 25.1875 35.8591 25.1269 35.7529 25.0303C35.6503 24.9369 35.5314 24.8384 35.3932 24.7271C35.2775 24.6339 35.0971 24.4917 34.9633 24.3778L37.5548 21.3309C37.5811 21.3532 38.1576 21.8103 38.445 22.0718C38.7355 22.3361 39.4079 22.9635 39.6622 23.8401L35.8206 24.9547ZM34.9617 24.3765C34.4438 23.9351 33.8778 23.5535 33.2779 23.2431L35.1163 19.6906C35.9912 20.1433 36.8104 20.6964 37.5564 21.3322L34.9617 24.3765Z" fill="#8B5632" mask="url(#path-8-inside-4_1_504)"/>
<mask id="path-10-inside-5_1_504" fill="white">
<path d="M38.181 20.0021C37.1789 19.9687 36.1449 20.345 35.4894 21.1028C36.616 21.7257 37.6363 22.5419 38.4905 23.5054C39.1801 22.834 39.869 22.1626 40.5585 21.492C40.7778 21.2781 40.9864 21.1658 40.7952 20.9314C40.6246 20.7228 40.2126 20.568 39.9729 20.4542C39.4123 20.191 38.8023 20.0225 38.181 20.0021Z"/>
</mask>
<path d="M35.4894 21.1028L34.5217 22.8531L32.3634 21.6599L33.9767 19.7945L35.4894 21.1028ZM38.4905 23.5054L39.8857 24.9384L38.3842 26.4002L36.994 24.8322L38.4905 23.5054ZM40.5585 21.492L41.9553 22.9234L41.9529 22.9258L40.5585 21.492ZM40.7952 20.9314L42.3432 19.6649L42.3452 19.6674L40.7952 20.9314ZM39.9729 20.4542L40.8229 18.6438L40.8305 18.6474L39.9729 20.4542ZM38.1144 22.001C37.6096 21.9841 37.1977 22.185 37.0021 22.4111L33.9767 19.7945C35.092 18.5049 36.7481 17.9532 38.2476 18.0032L38.1144 22.001ZM36.4571 19.3525C37.7822 20.0851 38.9815 21.0444 39.987 22.1785L36.994 24.8322C36.2912 24.0394 35.4498 23.3662 34.5217 22.8531L36.4571 19.3525ZM37.0954 22.0724C37.7839 21.402 38.4741 20.7293 39.1642 20.0582L41.9529 22.9258C41.2638 23.5959 40.5763 24.266 39.8857 24.9384L37.0954 22.0724ZM39.1618 20.0606C39.2134 20.0101 39.2603 19.9671 39.2917 19.9385C39.3317 19.902 39.3375 19.8969 39.3498 19.8855C39.3867 19.851 39.2753 19.9459 39.163 20.1156C39.0253 20.3237 38.8325 20.7238 38.8766 21.2537C38.9179 21.7489 39.1438 22.0709 39.2453 22.1954L42.3452 19.6674C42.5423 19.9091 42.8138 20.333 42.8628 20.9219C42.9148 21.5455 42.692 22.0309 42.4986 22.3231C42.3307 22.5769 42.1379 22.7547 42.08 22.8088C41.953 22.9274 42.0014 22.8785 41.9553 22.9234L39.1618 20.0606ZM39.2473 22.1979C39.3109 22.2756 39.3688 22.3304 39.408 22.3645C39.4478 22.3992 39.479 22.4216 39.4955 22.433C39.5125 22.4446 39.5218 22.4499 39.5206 22.4493C39.5197 22.4487 39.5129 22.4448 39.4985 22.4375C39.4671 22.4214 39.4246 22.4014 39.3573 22.3711C39.3411 22.3638 39.3247 22.3564 39.3066 22.3483C39.2892 22.3405 39.2693 22.3317 39.2499 22.3229C39.2118 22.3058 39.1642 22.2842 39.1152 22.261L40.8305 18.6474C40.8663 18.6644 40.8975 18.6778 40.9997 18.7238C41.0824 18.761 41.1985 18.8141 41.3214 18.877C41.5004 18.9686 41.9752 19.2152 42.3432 19.6649L39.2473 22.1979ZM39.1228 22.2646C38.7648 22.0965 38.4209 22.0111 38.1151 22.001L38.2469 18.0032C39.1837 18.034 40.0597 18.2855 40.8229 18.6438L39.1228 22.2646Z" fill="#8B5632" mask="url(#path-10-inside-5_1_504)"/>
<path d="M36.1252 50.669L36.125 50.6688C36.0479 50.5564 35.9663 50.44 35.8804 50.3214C36.1659 50.5023 36.4227 50.7248 36.6355 50.985L37.618 52.186L38.3059 50.7951C38.444 50.5159 38.6142 50.2526 38.8115 50.0116C39.0011 50.2957 39.1656 50.5965 39.3021 50.9095L40.159 52.8733C39.4751 53.0434 38.7722 52.993 38.1482 52.899L36.1252 50.669ZM36.1252 50.669C36.2334 50.8268 36.336 50.9827 36.4369 51.1362M36.1252 50.669L36.4369 51.1362M36.4369 51.1362C36.6808 51.5069 36.9154 51.8634 37.1979 52.1978M36.4369 51.1362L37.1979 52.1978M37.1979 52.1978C37.5961 52.6689 37.9086 52.8627 38.148 52.899L37.1979 52.1978ZM41.1345 50.9111L40.2897 52.838C40.9182 52.6544 41.5252 52.2735 42.0336 51.5564C42.2507 51.2494 42.3815 50.8854 42.5404 50.3859L41.6223 50.1469C41.422 50.3755 41.256 50.634 41.1345 50.9111ZM39.3444 49.4713C39.3445 49.4712 39.343 49.4723 39.3398 49.4749C39.3428 49.4727 39.3444 49.4714 39.3444 49.4713ZM38.3402 49.3984C38.3402 49.3985 38.3415 49.3999 38.3439 49.4024C38.3413 49.3995 38.3401 49.3983 38.3402 49.3984Z" stroke="#8B5632" stroke-width="2"/>
<path d="M39.2154 85.5H39.3533V54.069H39.2154V85.5Z" fill="#8B5632" stroke="#8B5632"/>
<mask id="path-14-inside-6_1_504" fill="white">
<path d="M43.0852 56.29C44.8528 54.8302 47.1309 54.0019 49.4227 53.9851C49.2202 56.3605 48.1156 58.6476 46.3822 60.2831C44.8718 61.7079 42.8955 62.6275 40.8374 62.8832C40.4429 62.9323 39.8004 63.1158 39.5811 62.7359C39.4355 62.4825 39.6471 61.881 39.7162 61.6169C39.9718 60.6352 40.3754 59.6839 40.9027 58.8192C41.4838 57.8632 42.2227 57.0021 43.0852 56.29Z"/>
</mask>
<path d="M49.4227 53.9851L49.408 51.9851L51.6019 51.969L51.4155 54.155L49.4227 53.9851ZM46.3822 60.2831L47.7547 61.7378L47.7546 61.7379L46.3822 60.2831ZM40.8374 62.8832L40.5901 60.8985L40.5908 60.8984L40.8374 62.8832ZM39.5811 62.7359L37.8489 63.7355L37.8472 63.7326L39.5811 62.7359ZM39.7162 61.6169L41.6516 62.1209L41.6511 62.1227L39.7162 61.6169ZM40.9027 58.8192L42.6117 59.8581L42.6103 59.8603L40.9027 58.8192ZM41.8116 54.7479C43.9338 52.9952 46.6566 52.0054 49.408 51.9851L49.4374 55.985C47.6053 55.9985 45.7718 56.6651 44.3588 57.8321L41.8116 54.7479ZM51.4155 54.155C51.1712 57.0205 49.8457 59.765 47.7547 61.7378L45.0097 58.8283C46.3855 57.5303 47.2692 55.7005 47.43 53.8152L51.4155 54.155ZM47.7546 61.7379C45.9302 63.4589 43.5579 64.5605 41.084 64.8679L40.5908 60.8984C42.2331 60.6944 43.8133 59.957 45.0098 58.8283L47.7546 61.7379ZM41.0847 64.8678C41.0157 64.8764 41.0127 64.8801 40.8071 64.9115C40.6646 64.9332 40.4355 64.9652 40.1816 64.9701C39.7938 64.9774 38.5405 64.9341 37.8489 63.7355L41.3134 61.7362C41.0964 61.3601 40.7691 61.1454 40.4997 61.0471C40.2734 60.9646 40.1116 60.9707 40.1055 60.9708C40.0889 60.9711 40.1082 60.9718 40.2039 60.9572C40.2526 60.9498 40.2913 60.9432 40.3611 60.932C40.4199 60.9225 40.5029 60.9094 40.5901 60.8985L41.0847 64.8678ZM37.8472 63.7326C37.5548 63.224 37.53 62.7252 37.5311 62.4822C37.5324 62.2039 37.5733 61.9553 37.6075 61.7853C37.6436 61.6063 37.6873 61.4435 37.7194 61.3287C37.7641 61.1691 37.768 61.1615 37.7812 61.1111L41.6511 62.1227C41.6358 62.1815 41.6188 62.2407 41.607 62.2819C41.5932 62.33 41.5828 62.3659 41.5715 62.4063C41.5491 62.4865 41.536 62.5394 41.5287 62.5754C41.5197 62.6205 41.5307 62.5863 41.5311 62.5004C41.5313 62.4534 41.5286 62.3628 41.5055 62.2439C41.4826 62.1263 41.4323 61.9431 41.3151 61.7391L37.8472 63.7326ZM37.7807 61.1129C38.0856 59.9419 38.566 58.8097 39.195 57.778L42.6103 59.8603C42.1848 60.5581 41.858 61.3284 41.6516 62.1209L37.7807 61.1129ZM39.1936 57.7803C39.8877 56.6385 40.7725 55.6057 41.812 54.7476L44.3584 57.8324C43.6728 58.3984 43.0798 59.088 42.6117 59.8581L39.1936 57.7803Z" fill="#8B5632" mask="url(#path-14-inside-6_1_504)"/>
<mask id="path-16-inside-7_1_504" fill="white">
<path d="M35.0162 64.696C33.0339 63.63 30.7565 63.2895 28.5285 62.9701C28.8592 63.5658 28.929 64.2627 29.0717 64.928C29.5526 67.1736 30.9196 69.1816 32.7092 70.6209C34.3478 71.9399 36.7891 73.245 38.9292 73.3677C40.0975 70.0024 37.9908 66.2935 35.0162 64.696Z"/>
</mask>
<path d="M28.5285 62.9701L26.78 63.941L24.824 60.4185L28.8123 60.9903L28.5285 62.9701ZM29.0717 64.928L31.0272 64.5088L31.0273 64.5092L29.0717 64.928ZM32.7092 70.6209L33.9627 69.0625L33.9633 69.0629L32.7092 70.6209ZM38.9292 73.3677L40.8186 74.0236L40.3231 75.4509L38.8147 75.3644L38.9292 73.3677ZM34.069 66.4574C32.4489 65.5863 30.5281 65.2773 28.2446 64.9498L28.8123 60.9903C30.985 61.3018 33.6189 61.6738 35.9634 62.9345L34.069 66.4574ZM30.277 61.9992C30.5715 62.5295 30.7232 63.0565 30.8194 63.473C30.8676 63.6819 30.9065 63.8851 30.9384 64.054C30.9725 64.2345 30.998 64.3726 31.0272 64.5088L27.1161 65.3472C27.074 65.1508 27.0373 64.9523 27.0079 64.7964C26.9762 64.6289 26.9503 64.4958 26.9219 64.3729C26.8648 64.1257 26.8163 64.0064 26.78 63.941L30.277 61.9992ZM31.0273 64.5092C31.3983 66.2412 32.4763 67.867 33.9627 69.0625L31.4558 72.1794C29.363 70.4963 27.707 68.106 27.116 65.3469L31.0273 64.5092ZM33.9633 69.0629C35.4465 70.2568 37.4942 71.2821 39.0436 71.371L38.8147 75.3644C36.084 75.2079 33.2492 73.6229 31.4552 72.1789L33.9633 69.0629ZM37.0398 72.7118C37.7976 70.5289 36.4394 67.7305 34.0699 66.4579L35.9625 62.934C39.5421 64.8565 42.3973 69.476 40.8186 74.0236L37.0398 72.7118Z" fill="#8B5632" mask="url(#path-16-inside-7_1_504)"/>
<mask id="path-18-inside-8_1_504" fill="white">
<path d="M41.1514 77.3352C42.5792 75.4152 44.9817 74.5223 47.2773 73.8455C47.0315 75.8217 46.1485 77.713 44.7928 79.171C43.5282 80.532 41.5656 81.833 39.6736 82.0137C39.1229 80.5175 40.2858 78.4983 41.1514 77.3352Z"/>
</mask>
<path d="M47.2773 73.8455L46.7117 71.9272L49.6386 71.0643L49.262 74.0924L47.2773 73.8455ZM44.7928 79.171L43.3277 77.8096L43.3281 77.8091L44.7928 79.171ZM39.6736 82.0137L39.8638 84.0046L38.3293 84.1512L37.7968 82.7046L39.6736 82.0137ZM39.5465 76.1418C41.4124 73.6325 44.4343 72.5986 46.7117 71.9272L47.8428 75.7639C45.5291 76.446 43.7459 77.1979 42.7563 78.5286L39.5465 76.1418ZM49.262 74.0924C48.9643 76.4862 47.899 78.7675 46.2575 80.5328L43.3281 77.8091C44.398 76.6585 45.0987 75.1572 45.2926 73.5987L49.262 74.0924ZM46.258 80.5323C44.8099 82.0909 42.4256 83.7599 39.8638 84.0046L39.4835 80.0227C40.7056 79.906 42.2465 78.9732 43.3277 77.8096L46.258 80.5323ZM37.7968 82.7046C37.2691 81.2712 37.6237 79.823 38.0208 78.8159C38.4385 77.7566 39.0541 76.8034 39.547 76.1412L42.7559 78.5292C42.3832 79.03 41.9845 79.6681 41.742 80.2831C41.4789 80.9505 41.5274 81.26 41.5505 81.3228L37.7968 82.7046Z" fill="#8B5632" mask="url(#path-18-inside-8_1_504)"/>
</svg>
