<svg width="106" height="131" viewBox="0 0 106 131" fill="none" xmlns="http://www.w3.org/2000/svg">
<mask id="path-1-inside-1_228_6876" fill="white">
<path d="M48.6217 53.4698C47.8541 49.7847 46.9987 46.0003 44.8658 42.9228C42.1729 39.0348 37.8179 36.7878 33.9853 34.068C23.3012 26.4822 15.8117 13.0082 18.3792 -9.91821e-05C25.7532 1.06879 33.0728 3.43935 39.0968 7.90085C45.1222 12.3624 49.746 19.0823 50.7505 26.6014C51.1434 29.5454 50.9859 32.5335 50.9497 35.5045C50.8438 43.7916 51.6825 52.0914 53.4393 60.1826C54.4507 50.6946 57.3721 41.2123 63.1983 33.7372C69.0216 26.2635 78.0186 21.0369 87.3834 21.2527C89.2934 31.1197 86.7259 41.7915 80.5584 49.6428C74.3881 57.4926 64.023 62.7405 54.1553 62.9989C54.7502 69.0928 54.6332 72.9269 54.5204 78.074C57.9517 73.736 63.456 71.188 68.92 71.4066C68.8782 74.8276 67.1966 78.1904 64.5037 80.2345C61.8093 82.2786 57.7706 83.3631 54.5412 82.4248C54.1818 88.2447 51.709 103.362 50.7783 105.385C48.3013 98.1642 51.4917 90.3797 51.8762 83.0749C52.3986 73.1086 50.6446 63.1777 48.6217 53.4698Z"/>
</mask>
<path d="M44.8658 42.9228L43.222 44.0621L43.2217 44.0616L44.8658 42.9228ZM33.9853 34.068L32.8279 35.699L32.8275 35.6987L33.9853 34.068ZM18.3792 -9.91821e-05L16.4171 -0.387383L16.7851 -2.25207L18.6661 -1.97941L18.3792 -9.91821e-05ZM39.0968 7.90085L37.9066 9.50819L37.9065 9.50806L39.0968 7.90085ZM50.7505 26.6014L52.7329 26.3366L52.7329 26.3368L50.7505 26.6014ZM50.9497 35.5045L52.9495 35.5289L52.9495 35.5301L50.9497 35.5045ZM53.4393 60.1826L55.428 60.3946L51.4848 60.6069L53.4393 60.1826ZM63.1983 33.7372L64.7759 34.9665L64.7757 34.9667L63.1983 33.7372ZM87.3834 21.2527L87.4295 19.2532L89.0407 19.2904L89.3469 20.8726L87.3834 21.2527ZM80.5584 49.6428L82.1311 50.8783L82.1308 50.8787L80.5584 49.6428ZM54.1553 62.9989L52.1648 63.1932L51.9562 61.0558L54.103 60.9995L54.1553 62.9989ZM54.5204 78.074L56.089 79.3147L52.3902 83.9909L52.5208 78.0301L54.5204 78.074ZM68.92 71.4066L68.9999 69.4082L70.9436 69.4859L70.9198 71.431L68.92 71.4066ZM64.5037 80.2345L65.7129 81.8276L65.7125 81.8279L64.5037 80.2345ZM54.5412 82.4248L52.545 82.3015L52.6991 79.8068L55.0993 80.5042L54.5412 82.4248ZM50.7783 105.385L52.5953 106.221L50.5074 110.759L48.8865 106.034L50.7783 105.385ZM51.8762 83.0749L53.8734 83.1796L53.8734 83.1801L51.8762 83.0749ZM46.6638 53.8776C45.8863 50.1454 45.0901 46.7575 43.222 44.0621L46.5096 41.7836C48.9073 45.2431 49.8219 49.424 50.5797 53.0619L46.6638 53.8776ZM43.2217 44.0616C42.0576 42.381 40.4975 41.0017 38.6751 39.6737C37.7642 39.01 36.8115 38.3755 35.8208 37.7207C34.8417 37.0736 33.8191 36.4025 32.8279 35.699L35.1428 32.437C36.0678 33.0934 37.0268 33.7231 38.0263 34.3837C39.0142 35.0367 40.0372 35.7169 41.0308 36.4409C43.0172 37.8885 44.981 39.5766 46.51 41.7841L43.2217 44.0616ZM32.8275 35.6987C21.7009 27.7988 13.6548 13.6076 16.4171 -0.387383L20.3414 0.387192C17.9685 12.4089 24.9016 25.1656 35.1432 32.4372L32.8275 35.6987ZM18.6661 -1.97941C26.2513 -0.879906 33.9169 1.5757 40.2871 6.29364L37.9065 9.50806C32.2287 5.30299 25.255 3.01749 18.0923 1.97922L18.6661 -1.97941ZM40.2869 6.29351C46.6587 11.0115 51.6434 18.1812 52.7329 26.3366L48.7681 26.8662C47.8486 19.9834 43.5856 13.7132 37.9066 9.50819L40.2869 6.29351ZM52.7329 26.3368C53.1508 29.4681 52.9844 32.6721 52.9495 35.5289L48.9498 35.4801C48.9875 32.3949 49.1359 29.6227 48.7681 26.8659L52.7329 26.3368ZM52.9495 35.5301C52.8456 43.6657 53.669 51.8147 55.3937 59.7582L51.4848 60.6069C49.696 52.3682 48.842 43.9174 48.9499 35.479L52.9495 35.5301ZM51.4505 59.9706C52.4873 50.2451 55.495 40.3674 61.6208 32.5078L64.7757 34.9667C59.2493 42.0573 56.4141 51.1442 55.428 60.3946L51.4505 59.9706ZM61.6206 32.508C67.742 24.6519 77.2975 19.0198 87.4295 19.2532L87.3373 23.2522C78.7398 23.0541 70.3013 27.8752 64.7759 34.9665L61.6206 32.508ZM89.3469 20.8726C91.3665 31.3054 88.6595 42.5675 82.1311 50.8783L78.9856 48.4073C84.7922 41.0155 87.2203 30.934 85.4198 21.6328L89.3469 20.8726ZM82.1308 50.8787C75.5982 59.1895 64.6793 64.724 54.2077 64.9982L54.103 60.9995C63.3668 60.757 73.1781 55.7957 78.986 48.4068L82.1308 50.8787ZM56.1459 62.8046C56.7535 69.0295 56.6327 72.9704 56.5199 78.1178L52.5208 78.0301C52.6337 72.8834 52.7469 69.1561 52.1648 63.1932L56.1459 62.8046ZM52.9518 76.8332C56.7746 72.0002 62.8886 69.1637 68.9999 69.4082L68.84 73.405C64.0235 73.2123 59.1288 75.4717 56.089 79.3147L52.9518 76.8332ZM70.9198 71.431C70.8706 75.4597 68.9044 79.405 65.7129 81.8276L63.2945 78.6414C65.4889 76.9758 66.8858 74.1954 66.9201 71.3821L70.9198 71.431ZM65.7125 81.8279C62.6301 84.1663 57.9475 85.4972 53.9832 84.3454L55.0993 80.5042C57.5936 81.229 60.9885 80.3908 63.2949 78.6411L65.7125 81.8279ZM56.5374 82.5481C56.3511 85.5648 55.6287 90.8828 54.8477 95.6522C54.4552 98.0486 54.0429 100.338 53.6674 102.165C53.48 103.078 53.2987 103.89 53.1307 104.55C52.9748 105.162 52.7968 105.783 52.5953 106.221L48.9614 104.549C48.9606 104.551 48.9704 104.529 48.99 104.475C49.0088 104.424 49.0322 104.354 49.06 104.265C49.1158 104.085 49.1809 103.852 49.2543 103.563C49.4011 102.987 49.5684 102.241 49.7493 101.36C50.1105 99.6022 50.5133 97.3691 50.9003 95.0057C51.6782 90.2555 52.3719 85.1047 52.545 82.3015L56.5374 82.5481ZM48.8865 106.034C47.4915 101.967 47.7252 97.8324 48.2742 93.9794C48.8485 89.949 49.6919 86.5225 49.8789 82.9698L53.8734 83.1801C53.6759 86.9321 52.7319 91.0503 52.2342 94.5436C51.7111 98.2143 51.5881 101.582 52.6701 104.736L48.8865 106.034ZM49.8789 82.9702C50.3867 73.2832 48.6839 63.5723 46.6638 53.8777L50.5797 53.0618C52.6053 62.7832 54.4105 72.934 53.8734 83.1796L49.8789 82.9702Z" fill="#8B5632" mask="url(#path-1-inside-1_228_6876)"/>
<path d="M42.0327 60.659L42.0323 60.6588C39.8698 59.9355 37.5693 59.5492 35.271 59.5481C36.276 62.3977 38.329 64.9616 41.0567 66.688C41.4595 66.943 42.472 67.3989 43.8127 67.869C45.129 68.3306 46.675 68.7756 48.1039 69.033C49.5797 69.299 50.7611 69.3317 51.4474 69.1159C51.7645 69.0162 51.8581 68.9006 51.889 68.8447C51.9191 68.79 51.9914 68.6074 51.8693 68.1537C51.4457 66.581 50.0036 65.0203 48.0357 63.6503C46.1018 62.3039 43.8279 61.2584 42.0327 60.659Z" stroke="#8B5632" stroke-width="2"/>
<path d="M52.9366 91.7493C32.0293 91.7493 13.444 99.2764 1.33984 110.958V129.269H104.536V110.958C92.4308 99.2764 73.8467 91.7493 52.9366 91.7493Z" stroke="#8B5632" stroke-width="2"/>
</svg>
