<svg width="78" height="86" viewBox="0 0 78 86" fill="none" xmlns="http://www.w3.org/2000/svg">
<circle cx="39" cy="39" r="39" fill="#E3D9C6"/>
<mask id="path-2-inside-1_1_477" fill="white">
<path d="M36.4621 47.0901C36.0732 45.2231 35.6398 43.3058 34.5592 41.7466C33.1948 39.7767 30.9884 38.6383 29.0467 37.2603C23.6336 33.417 19.8391 26.5905 21.1399 19.9999C24.8759 20.5415 28.5843 21.7425 31.6364 24.0029C34.6891 26.2633 37.0317 29.6679 37.5406 33.4774C37.7397 34.969 37.6599 36.4829 37.6416 37.9881C37.5879 42.1867 38.0128 46.3918 38.9029 50.4911C39.4153 45.6841 40.8954 40.88 43.8472 37.0928C46.7976 33.3063 51.3559 30.6582 56.1005 30.7675C57.0682 35.7666 55.7674 41.1734 52.6426 45.1512C49.5165 49.1283 44.2651 51.7871 39.2657 51.918C39.5671 55.0055 39.5078 56.948 39.4506 59.5557C41.1891 57.3579 43.9778 56.067 46.7461 56.1777C46.7249 57.911 45.873 59.6147 44.5086 60.6503C43.1435 61.686 41.0973 62.2354 39.4612 61.76C39.2791 64.7087 38.0262 72.368 37.5548 73.3928C36.2998 69.7343 37.9161 65.7903 38.111 62.0894C38.3756 57.04 37.487 52.0086 36.4621 47.0901Z"/>
</mask>
<path d="M34.5592 41.7466L32.9154 42.8859L32.9151 42.8854L34.5592 41.7466ZM29.0467 37.2603L27.8892 38.8914L27.8888 38.8911L29.0467 37.2603ZM21.1399 19.9999L19.1778 19.6126L19.5458 17.748L21.4268 18.0206L21.1399 19.9999ZM31.6364 24.0029L30.4462 25.6102L30.446 25.6101L31.6364 24.0029ZM37.5406 33.4774L39.523 33.2126L39.5231 33.2129L37.5406 33.4774ZM37.6416 37.9881L39.6414 38.0125L39.6414 38.0137L37.6416 37.9881ZM38.9029 50.4911L40.8916 50.7031L36.9484 50.9155L38.9029 50.4911ZM43.8472 37.0928L45.4249 38.322L45.4247 38.3222L43.8472 37.0928ZM56.1005 30.7675L56.1466 28.7681L57.7578 28.8052L58.064 30.3874L56.1005 30.7675ZM52.6426 45.1512L54.2154 46.3867L54.215 46.3872L52.6426 45.1512ZM39.2657 51.918L37.2752 52.1123L37.0665 49.9749L39.2133 49.9187L39.2657 51.918ZM39.4506 59.5557L41.0192 60.7965L37.3204 65.4726L37.4511 59.5119L39.4506 59.5557ZM46.7461 56.1777L46.8261 54.1793L48.7697 54.2571L48.746 56.2022L46.7461 56.1777ZM44.5086 60.6503L45.7178 62.2434L45.7174 62.2437L44.5086 60.6503ZM39.4612 61.76L37.465 61.6367L37.6191 59.1421L40.0192 59.8395L39.4612 61.76ZM37.5548 73.3928L39.3717 74.2287L37.2838 78.7669L35.663 74.0418L37.5548 73.3928ZM38.111 62.0894L40.1082 62.1941L40.1082 62.1946L38.111 62.0894ZM34.5042 47.498C34.1054 45.5838 33.7312 44.063 32.9154 42.8859L36.203 40.6073C37.5484 42.5486 38.041 44.8624 38.4201 46.6823L34.5042 47.498ZM32.9151 42.8854C32.4153 42.1639 31.7244 41.5412 30.8416 40.8979C30.4005 40.5765 29.9352 40.2663 29.4325 39.9341C28.9415 39.6096 28.4078 39.2594 27.8892 38.8914L30.2041 35.6293C30.6564 35.9503 31.1266 36.2591 31.6381 36.5971C32.1379 36.9275 32.6735 37.2834 33.1973 37.6651C34.2442 38.428 35.3387 39.3595 36.2033 40.6078L32.9151 42.8854ZM27.8888 38.8911C22.0333 34.7336 17.6822 27.1899 19.1778 19.6126L23.1021 20.3872C21.996 25.9911 25.234 32.1004 30.2045 35.6296L27.8888 38.8911ZM21.4268 18.0206C25.374 18.5928 29.4284 19.8789 32.8267 22.3957L30.446 25.6101C27.7403 23.6062 24.3778 22.4902 20.853 21.9792L21.4268 18.0206ZM32.8265 22.3956C36.2256 24.9124 38.9291 28.7668 39.523 33.2126L35.5582 33.7422C35.1343 30.569 33.1526 27.6142 30.4462 25.6102L32.8265 22.3956ZM39.5231 33.2129C39.7471 34.8917 39.6584 36.6215 39.6414 38.0125L35.6417 37.9638C35.6615 36.3443 35.7323 35.0463 35.5582 33.742L39.5231 33.2129ZM39.6414 38.0137C39.5897 42.0609 39.9993 46.115 40.8574 50.0668L36.9484 50.9155C36.0263 46.6686 35.5862 42.3126 35.6417 37.9626L39.6414 38.0137ZM36.9142 50.2791C37.4519 45.2346 39.0183 40.035 42.2698 35.8633L45.4247 38.3222C42.7726 41.725 41.3787 46.1337 40.8916 50.7031L36.9142 50.2791ZM42.2696 35.8635C45.518 31.6946 50.6347 28.6411 56.1466 28.7681L56.0544 32.767C52.0771 32.6754 48.0773 34.9179 45.4249 38.322L42.2696 35.8635ZM58.064 30.3874C59.1413 35.9523 57.701 41.9494 54.2154 46.3867L51.0699 43.9157C53.8337 40.3974 54.9951 35.5809 54.1369 31.1476L58.064 30.3874ZM54.215 46.3872C50.7266 50.8252 44.9213 53.7706 39.318 53.9173L39.2133 49.9187C43.6089 49.8036 48.3064 47.4314 51.0702 43.9153L54.215 46.3872ZM41.2562 51.7237C41.5704 54.9422 41.5073 56.9915 41.4501 59.5996L37.4511 59.5119C37.5083 56.9045 37.5637 55.0687 37.2752 52.1123L41.2562 51.7237ZM37.882 58.315C40.012 55.6222 43.4104 54.0427 46.8261 54.1793L46.6662 58.1761C44.5453 58.0913 42.3662 59.0936 41.0192 60.7965L37.882 58.315ZM48.746 56.2022C48.7174 58.5431 47.5808 60.8293 45.7178 62.2434L43.2994 59.0573C44.1652 58.4001 44.7325 57.2788 44.7463 56.1533L48.746 56.2022ZM45.7174 62.2437C43.9643 63.5737 41.2743 64.3695 38.9032 63.6806L40.0192 59.8395C40.9204 60.1013 42.3228 59.7982 43.2998 59.057L45.7174 62.2437ZM41.4574 61.8833C41.3598 63.4644 40.9867 66.2 40.5902 68.6211C40.39 69.8434 40.1787 71.0171 39.985 71.96C39.8884 72.4301 39.7931 72.8581 39.7028 73.213C39.6245 73.5205 39.5158 73.9156 39.3717 74.2287L35.7378 72.5569C35.7116 72.6139 35.7452 72.5454 35.8264 72.2263C35.8955 71.9547 35.9768 71.5932 36.0669 71.155C36.2463 70.2814 36.448 69.1638 36.6428 67.9746C37.0361 65.5727 37.3805 63.0043 37.465 61.6367L41.4574 61.8833ZM35.663 74.0418C34.879 71.7562 35.0246 69.472 35.3092 67.4749C35.619 65.3005 36.0216 63.7351 36.1137 61.9843L40.1082 62.1946C40.0055 64.1447 39.5025 66.4017 39.2692 68.0392C39.0106 69.8539 38.9756 71.3709 39.4465 72.7439L35.663 74.0418ZM36.1137 61.9847C36.3637 57.2147 35.5262 52.4032 34.5042 47.4981L38.4201 46.6821C39.4477 51.6141 40.3875 56.8654 40.1082 62.1941L36.1137 61.9847Z" fill="#8B5632" mask="url(#path-2-inside-1_1_477)"/>
<path d="M32.8926 53.3703C33.0463 53.4677 33.5143 53.6836 34.1883 53.92C34.838 54.1478 35.5952 54.3652 36.2866 54.4898C36.8988 54.6001 37.3438 54.6152 37.6062 54.5768C37.4089 53.9725 36.8101 53.2987 35.8827 52.6531C34.9476 52.002 33.8393 51.4919 32.9669 51.2006L32.9665 51.2004C32.1576 50.9299 31.3094 50.757 30.4537 50.6921C30.9806 51.7511 31.825 52.6946 32.8926 53.3703ZM32.8926 53.3703L32.3578 54.2153L32.8926 53.3703ZM37.7827 54.5326C37.7827 54.5326 37.7824 54.5327 37.7818 54.533L37.7827 54.5326ZM37.6482 54.7541C37.6483 54.7541 37.6483 54.7531 37.6483 54.751C37.6482 54.753 37.6482 54.754 37.6482 54.7541Z" stroke="#8B5632" stroke-width="2"/>
<path d="M38.6479 66.9777C28.2554 66.9777 19.034 70.6889 13 76.427V85H64.2972V76.427C58.2625 70.6889 49.0417 66.9777 38.6479 66.9777Z" stroke="#8B5632" stroke-width="2"/>
</svg>
